<?xml version="1.0" encoding="utf-8"?>
<svg xmlns="http://www.w3.org/2000/svg" width="200" height="200" viewBox="0 0 200 200">
  <g fill="#4F5963" transform="translate(38 63)">
    <path d="M95.4860197,42.7507947 C94.8649877,39.674141 93.5580118,36.7787818 91.6632329,34.2821299 C87.8320812,29.2160536 81.6587406,26.044505 73.3063279,26.044505 C60.2946325,26.044505 52.2810007,34.9080381 49.9388119,44.2462534 C47.822477,37.6595141 42.1301216,33.1857402 36.1115328,31.3122162 C40.6411587,27.9936421 43.0000775,23.2552225 43.0000775,17.8362852 C43.0570279,13.0302498 41.0278667,8.43743482 37.4415615,5.25510899 C32.3180234,0.898955495 25.3500116,0 16.78011,0 L0,0 L0,72.8111944 C4.74293238,72.8111944 9.65316397,72.7817893 14.4211912,72.8111944 C18.653861,72.8363987 22.7861513,72.8111944 26.6758578,72.647366 C38.8970645,72.155881 47.2620246,65.9766122 49.9388119,56.7098093 C50.702559,60.4371628 52.4225811,63.8994549 54.9285106,66.7537466 C59.6463481,71.9584469 66.4512431,74 73.3314228,74 C81.7883975,74 87.9157308,71.5215713 92.0940283,67.761921 L86.1005344,60.708901 C82.8502598,63.1147802 78.9034904,64.3824888 74.866393,64.3173252 C66.3550461,64.2879201 62.5866316,58.8563806 62.2603981,53.6684832 L95.5278445,53.6684832 L95.5278445,72.8363987 L108,72.8363987 L108,0.420072661 L95.5403919,0.420072661 L95.4860197,42.7633969 L95.4860197,42.7507947 Z M12.7440167,9.88430972 L16.2112927,9.88430972 C19.5572767,9.88430972 22.2047866,10.2371708 24.1036326,11.001703 C27.8678646,12.4719573 29.6328712,15.4670754 29.6328712,19.1973206 C29.6328712,22.356267 28.4408644,27.3383288 21.7990861,28.6993642 C20.158535,28.9700005 18.4966312,29.088121 16.8344822,29.0522252 L12.7440167,29.0522252 L12.7440167,9.88430972 Z M26.8389745,62.1917575 C25.1781137,62.4443921 23.4997057,62.5623932 21.8199985,62.5446185 L12.7440167,62.5446185 L12.7440167,38.8021117 L20.8496631,38.8021117 C23.239443,38.7837282 25.6239455,39.0302626 27.9598792,39.5372389 C33.656417,41.0326975 36.9354814,45.1452089 36.9354814,50.5641462 C36.9354814,56.1721163 33.9240957,60.9105359 26.8222446,62.1917575 L26.8389745,62.1917575 Z M62.4360623,44.6579246 C63.548602,39.3482062 67.425761,35.5339464 73.2017659,35.5339464 C78.9777709,35.5339464 82.8131051,38.9659401 83.7750755,44.6579246 L62.4360623,44.6579246 Z"/>
    <rect width="13" height="72" x="112"/>
  </g>
</svg>
