<?xml version="1.0" encoding="utf-8"?>
<svg xmlns="http://www.w3.org/2000/svg" width="200" height="200" viewBox="0 0 200 200">
  <g fill="#4F5963" transform="translate(32 64)">
    <polygon points="44 48.905 38 48.905 38 72.905 44 72.905"/>
    <path d="M17.727,7.43518519 C16.2258437,6.59019538 14.5390732,6.15555822 12.828,6.17283951 C9.054,6.17283951 6.447,8.87345679 6.447,12.5123457 C6.447,16.0339506 8.958,18.8549383 12.828,18.8549383 C14.5375414,18.8591124 16.2211895,18.4252798 17.727,17.5925926 L17.727,23.9814815 C16.0070782,24.52987 14.2176088,24.8127835 12.417,24.8209877 C5.865,24.8209877 0.117,20.191358 0.117,12.5154321 C0.117,5.43518519 5.328,0.231481481 12.417,0.231481481 C14.2194686,0.236423776 16.0104515,0.526863558 17.727,1.09259259 L17.727,7.43518519 Z" transform="translate(75 47.905)"/>
    <path d="M30 55.9361948C28.4653368 55.1114626 26.7409165 54.6872454 24.991651 54.7041124 21.1334128 54.7041124 18.4712898 57.3399854 18.4712898 60.891636 18.4712898 64.3288143 21.0352701 67.0821719 24.991651 67.0821719 26.739382 67.0864993 28.4606726 66.663052 30 65.8500896L30 72.0858119C28.2429987 72.6221541 26.4144293 72.8983139 24.5745442 72.9051919 17.8732322 72.9051919 12 68.3865525 12 60.8946484 12 53.9841425 17.327313 48.9051919 24.5745442 48.9051919 26.4162202 48.9102769 28.2461281 49.1937511 30 49.7456588L30 55.9361948zM111.501538 54.8012501C108.98131 54.7841637 106.699525 56.258257 105.722966 58.5343602 104.746408 60.8104635 105.268017 63.4388781 107.043931 65.1907647 108.819846 66.9426513 111.49919 67.471883 113.829316 66.5310326 116.159441 65.5901822 117.679974 63.3651374 117.680034 60.8961535 117.707491 59.2789213 117.066775 57.7194286 115.903356 56.5717503 114.739937 55.424072 113.152526 54.7855834 111.501538 54.8012501M124 60.8961535C124 67.5243232 118.771805 72.9051919 111.501538 72.9051919 104.231271 72.9051919 99 67.5363744 99 60.8961535 99 54.2559325 104.228195 48.9051919 111.501538 48.9051919 118.77488 48.9051919 124 54.2740093 124 60.8961535M67.3595166 54.5963794C67.2809668 54.5783026 64.7915408 53.894396 62.776435 53.894396 60.4259819 53.894396 59.1510574 54.6747123 59.1510574 55.78945 59.1510574 57.1934168 60.8731118 57.7025808 61.8338369 57.9948228L63.4592145 58.5039868C67.2567976 59.7091085 69 62.3121715 69 65.1321565 69 70.9528946 63.8640483 72.9051919 59.3836858 72.9051919 57.2615619 72.88462 55.1454751 72.6759147 53.060423 72.2815414L53.060423 66.9488775C54.8617128 67.4760776 56.7244798 67.7657614 58.6012085 67.8105396 61.5196375 67.8105396 62.8700906 66.9488775 62.8700906 65.6413204 62.8700906 64.4693395 61.7160121 63.7854329 60.244713 63.336525 59.8942598 63.2190257 59.3655589 63.0352446 58.9939577 62.9267836 55.7220544 61.8903789 53 59.9772481 53 56.1509865 53 51.8155609 56.2507553 48.9051919 61.6555891 48.9051919 63.5846631 48.9251657 65.5045022 49.1739645 67.3746224 49.6463418L67.3746224 54.587341 67.3595166 54.5963794z"/>
    <path d="M5.91666667 21.957377C5.86519256 20.3818412 4.55589755 19.1309052 2.95833333 19.1309052 1.36076911 19.1309052.0514741047 20.3818412 0 21.957377L0 28.0927049C.0514741047 29.6682408 1.36076911 30.9191767 2.95833333 30.9191767 4.55589755 30.9191767 5.86519256 29.6682408 5.91666667 28.0927049L5.91666667 21.957377zM22.1729004 13.917459C22.1214263 12.3419231 20.8121313 11.0909872 19.2145671 11.0909872 17.6170029 11.0909872 16.3077079 12.3419231 16.2562338 13.917459L16.2562338 28.0714754C16.3077079 29.6470113 17.6170029 30.8979472 19.2145671 30.8979472 20.8121313 30.8979472 22.1214263 29.6470113 22.1729004 28.0714754L22.1729004 13.917459zM38.4506494 2.90844262C38.3991752 1.33290673 37.0898802.0819708098 35.492316.0819708098 33.8947518.0819708098 32.5854568 1.33290673 32.5339827 2.90844262L32.5339827 33.8913934C32.5854568 35.4669293 33.8947518 36.7178653 35.492316 36.7178653 37.0898802 36.7178653 38.3991752 35.4669293 38.4506494 33.8913934L38.4506494 2.90844262zM54.7283983 13.917459C54.6769242 12.3419231 53.3676292 11.0909872 51.7700649 11.0909872 50.1725007 11.0909872 48.8632057 12.3419231 48.8117316 13.917459L48.8117316 28.0714754C48.8117316 29.6894886 50.1410389 31.0011475 51.7808225 31.0011475 53.4206061 31.0011475 54.7499134 29.6894886 54.7499134 28.0714754L54.7499134 13.917459 54.7283983 13.917459zM71 21.957377C70.9485259 20.3818412 69.6392309 19.1309052 68.0416667 19.1309052 66.4441024 19.1309052 65.1348074 20.3818412 65.0833333 21.957377L65.0833333 28.0927049C65.0453304 29.1578095 65.5983307 30.1587741 66.5261823 30.7043501 67.4540338 31.2499261 68.6093996 31.2534794 69.5406798 30.7136212 70.47196 30.173763 71.0312733 29.1762193 71 28.1109016L71 21.957377z" transform="translate(0 1.905)"/>
    <path d="M6.12068966 22.6764228C6.06943742 21.0714603 4.76578593 19.7971603 3.17510776 19.7971603 1.58442959 19.7971603.280778096 21.0714603.229525862 22.6764228L.229525862 28.9263415C.229525862 30.5745747 1.55310337 31.9107317 3.18581897 31.9107317 4.81853456 31.9107317 6.14211207 30.5745747 6.14211207 28.9263415L6.14211207 22.6764228 6.12068966 22.6764228zM22.3129741 14.4863415C22.2617219 12.881379 20.9580704 11.607079 19.3673922 11.607079 17.7767141 11.607079 16.4730626 12.881379 16.4218103 14.4863415L16.4218103 28.9047154C16.4730626 30.509678 17.7767141 31.7839779 19.3673922 31.7839779 20.9580704 31.7839779 22.2617219 30.509678 22.3129741 28.9047154L22.3129741 14.4863415zM38.5021983 3.27170732C38.5021983 1.62859293 37.1827312.296585617 35.5550862.296585617 33.9274413.296585617 32.6079741 1.62859293 32.6079741 3.27170732L32.6079741 34.8333333C32.6079741 36.4764477 33.9274413 37.808455 35.5550862 37.808455 37.1827312 37.808455 38.5021983 36.4764477 38.5021983 34.8333333L38.5021983 3.27170732zM54.7067241 14.4863415C54.6554719 12.881379 53.3518204 11.607079 51.7611422 11.607079 50.1704641 11.607079 48.8668126 12.881379 48.8155603 14.4863415L48.8155603 28.9047154C48.8155603 30.5529487 50.1391379 31.8891057 51.7718534 31.8891057 53.404569 31.8891057 54.7281466 30.5529487 54.7281466 28.9047154L54.7281466 14.4863415 54.7067241 14.4863415zM70.8959483 22.6764228C70.8447778 21.0765206 69.5452128 19.8062792 67.9595474 19.8062792 66.373882 19.8062792 65.074317 21.0765206 65.0231466 22.6764228L65.0231466 28.9263415C64.9853074 30.0113392 65.5359241 31.0309991 66.4597763 31.5867649 67.3836285 32.1425307 68.5340142 32.1461504 69.4612803 31.5962092 70.3885464 31.0462679 70.9454489 30.0300929 70.9143103 28.944878L70.9143103 22.6764228 70.8959483 22.6764228z" transform="translate(65 .905)"/>
    <polygon points="133 68.905 133 69.268 131.759 69.268 131.759 71.905 131.241 71.905 131.241 69.271 130 69.271 130 68.908"/>
    <polygon points="133.006 68.905 133.641 68.905 134.522 71.348 134.539 71.348 135.382 68.905 136 68.905 136 71.905 135.587 71.905 135.587 69.459 135.57 69.459 134.689 71.905 134.296 71.905 133.43 69.462 133.41 69.462 133.41 71.905 133 71.905 133 68.905"/>
  </g>
</svg>
