<?xml version="1.0" encoding="utf-8"?>
<svg xmlns="http://www.w3.org/2000/svg" width="200" height="200" viewBox="0 0 200 200">
  <g fill="#4F5963" transform="translate(0 79)">
    <path d="M92.4115822,36.3309204 L91.4457084,37.2699069 C90.7880041,36.5604964 90.0517063,36.2109617 89.2202689,36.2109617 C88.5598269,36.1979522 87.9237216,36.4601865 87.4643226,36.9348501 C86.991519,37.4056281 86.7340757,38.050733 86.7528438,38.7176836 C86.7427496,39.1762502 86.8540589,39.6293361 87.0754912,40.0310238 C87.2814647,40.4113649 87.5932467,40.7238652 87.9731127,40.9307135 C88.3676321,41.1453852 88.8104446,41.2557324 89.2595657,41.2512927 C89.6382651,41.2537924 90.013221,41.176264 90.3598759,41.0237849 C90.7729085,40.8165958 91.1449957,40.5363042 91.4581179,40.196484 L92.3971044,41.2016546 C91.9643073,41.6678346 91.4452562,42.0457094 90.868666,42.3143744 C90.3497419,42.5265182 89.7932225,42.6313493 89.2326784,42.622544 C88.1927568,42.6597184 87.1847398,42.2599617 86.4529473,41.5201655 C85.7290589,40.7817994 85.3795243,39.8655636 85.3795243,38.705274 C85.36518,38.0156276 85.5366315,37.3348223 85.8759049,36.7342296 C86.2067305,36.1508694 86.6947573,35.6721589 87.2843847,35.352637 C87.8836329,35.00897 88.5625609,34.8285406 89.2533609,34.8293663 C89.8519223,34.8305796 90.4429039,34.9633209 90.9844881,35.2182006 C91.5291033,35.4882343 92.0126629,35.866917 92.4053775,36.3309204"/>
    <polygon points="99.45 34.883 100.951 34.883 100.951 37.986 104.467 37.986 104.467 34.883 105.895 34.883 105.895 42.606 104.474 42.606 104.474 39.388 100.958 39.388 100.958 42.606 99.456 42.606 99.456 34.883"/>
    <path d="M116.903826,36.680455 L115.644261,39.4146846 L118.097208,39.4022751 L116.903826,36.680455 Z M116.2606,34.8562565 L117.57394,34.8562565 L120.938987,42.5915202 L119.385729,42.5915202 L118.593588,40.688728 L115.14788,40.6763185 L114.34333,42.5915202 L112.856256,42.5915202 L116.2606,34.8562565 Z"/>
    <polygon points="127.818 34.871 129.346 34.871 133.233 39.992 133.247 34.871 134.629 34.871 134.629 42.606 133.26 42.606 129.33 37.204 129.342 42.606 127.841 42.606 127.841 34.871"/>
    <polygon points="142.215 34.871 143.744 34.871 147.632 39.992 147.646 34.871 149.026 34.871 149.026 42.606 147.646 42.606 143.704 37.204 143.717 42.606 142.215 42.606"/>
    <polygon points="156.567 34.856 162.378 34.856 162.378 36.118 158.077 36.118 158.077 37.994 161.897 37.994 161.897 39.402 158.077 39.402 158.077 41.212 162.378 41.212 162.378 42.606 156.567 42.606"/>
    <polygon points="169.646 34.871 171.16 34.871 171.16 41.198 175.102 41.198 175.102 42.606 169.646 42.606"/>
    <polygon points="191.313 38.469 191.313 36.401 190.507 36.401 190.507 36.12 192.463 36.12 192.463 36.401 191.646 36.401 191.646 38.469"/>
    <path d="M192.663909 38.4694933L192.663909 36.1116856 193.14788 36.1116856 193.722854 37.78697 193.844881 38.1344364C193.871768 38.0558428 193.911065 37.9276112 193.979317 37.7600827L194.554292 36.1054809 194.984488 36.1054809 194.984488 38.4694933 194.676319 38.4694933 194.676319 36.4860393 193.96484 38.4694933 193.671148 38.4694933 192.967942 36.4653568 192.967942 38.4694933 192.663909 38.4694933zM16.6907963 4.87900724L16.6907963 0 26.8397104 0C35.1127198 0 42.5253361 4.50465357 42.5253361 14.6122027 42.5253361 24.3185109 33.3547053 28.5418821 28.1406412 28.5418821L18.7156153 28.5418821C21.0217166 27.081696 22.3764219 25.5263702 22.9389866 23.9296794L28.1406412 23.9296794C32.7921406 23.9296794 37.2699069 20.3908997 37.2699069 14.622544 37.2699069 8.48397104 33.4498449 4.59565667 28.1406412 4.59565667L21.811789 4.59565667 21.811789 8.79420889C20.7528438 7.17269907 18.2957601 5.30920372 16.6907963 4.87900724"/>
    <polygon points="50.395 28.542 45.34 28.542 45.34 7.092 50.395 7.092"/>
    <path d="M70.262668 9.26370217L68.3185109 12.6825233C66.2502585 10.926577 59.3381593 9.26370217 59.3381593 12.8893485 59.3381593 16.8976215 70.8004137 14.6328852 70.8004137 22.5418821 70.8004137 29.5263702 60.8397104 31.0548087 53.6339193 25.8262668L55.8779731 22.5439504C57.9296794 24.5832472 66.2419855 27.2368149 66.2419855 22.85212 66.2419855 18.5894519 54.6845915 20.9906929 54.6845915 13.1995863 54.6845915 6.48397104 63.8821096 4.86039297 70.262668 9.26990693M89.6752844 13.7021717C86.2833506 9.30713547 77.9731127 10.0806618 77.9731127 18.0310238 77.9731127 25.7807653 86.9948294 26.4239917 89.8366081 22.1675284 90.467425 22.7983454 92.1840745 24.4736298 92.8273009 25.1044467 86.1365047 33.0610134 73.0093071 28.5294726 73.0093071 18.0186143 73.0093071 7.07962771 86.1344364 3.19131334 92.6907963 10.3764219L89.6752844 13.7021717zM105.687694 24.7880041C101.880041 24.7880041 99.0382627 21.9607032 99.0382627 17.8986556 99.0382627 13.5553257 102.09514 11.0072389 105.687694 11.0072389 109.280248 11.0072389 112.175801 14.2502585 112.175801 17.8986556 112.175801 21.9731127 109.267839 24.7880041 105.687694 24.7880041M105.522234 6.74250259C99.1809721 6.74250259 94.033092 11.7580145 94.033092 17.9379524 94.033092 24.1178904 99.1809721 29.131334 105.522234 29.131334 111.863495 29.131334 117.011375 24.1178904 117.011375 17.9379524 117.011375 11.7580145 111.863495 6.74250259 105.522234 6.74250259"/>
    <polygon points="117.187 7.092 122.509 7.092 128.261 22.912 134.064 7.092 139.235 7.092 130.486 28.838 126.008 28.838"/>
    <path d="M144.616339 15.9131334C145.782834 9.00930714 154.858325 8.99482937 155.648397 15.9131334L144.616339 15.9131334zM139.708376 17.8986556C139.708376 29.4684592 154.268873 32.483971 159.578077 25.1106515L156.655636 22.5439504C154.415719 25.820062 146.018614 27.1747673 144.616339 19.6277146L160.475698 19.6277146C161.716649 2.25439504 139.708376 3.36504654 139.708376 17.8986556M164.190279 7.09203723L169.203723 7.09203723 169.203723 10.7383661C170.884532 8.82103907 173.224856 7.60584268 175.760083 7.33402275L177.414685 11.4229576C175.257497 11.4229576 169.18304 13.6980352 169.18304 19.78697L169.18304 28.5418821 164.175801 28.5418821 164.175801 7.09203723 164.190279 7.09203723zM179.044467 7.09203723L184.281282 7.09203723 189.389866 22.885212 194.89969 7.09203723 199.981386 7.09203723C199.981386 7.09203723 191.158221 29.6690796 189.482937 33.8510858 188.169597 37.1602896 186.318511 38.5563599 182.109617 38.5563599L179.02999 38.5563599 179.02999 34.467425 182.752844 34.467425C185.005171 34.467425 186.949328 28.5294726 186.949328 28.5294726L179.044467 7.09203723zM-.00000691183282 17.3071355C-.00000691183282 23.4822158 5.00589171 28.4881075 11.1809721 28.4881075 17.3560524 28.4881075 22.3619442 23.4822158 22.3619442 17.3071355 22.3619442 11.1320551 17.3560524 6.12615648 11.1809721 6.12615648 8.21458415 6.12286557 5.36874365 7.29979841 3.27118934 9.39735273 1.17363502 11.494907-.00329782177 14.3407475-.00000691183282 17.3071355z"/>
  </g>
</svg>
