<?xml version="1.0" encoding="utf-8"?>
<svg xmlns="http://www.w3.org/2000/svg" width="200" height="200" viewBox="0 0 200 200">
  <path fill="#4F5963" d="M53.0740741 21.3846154C53.0741318 18.8163289 51.0012771 16.729477 48.4330484 16.7122507L48.4131054 16.7122507C45.8536294 16.7622577 43.7907477 18.8251393 43.7407407 21.3846154 43.7407407 23.9650911 45.8326297 26.0569801 48.4131054 26.0569801 50.9935812 26.0569801 53.0854701 23.9650911 53.0854701 21.3846154M61.0826211 21.3846154C61.0826211 28.0512821 55.4131054 33.2421652 48.3960114 33.2421652 41.3789174 33.2421652 35.6980057 27.9031339 35.6980057 21.3846154 35.6980057 14.7179487 41.3675214 9.36182336 48.3846154 9.36182336 55.5669516 9.36182336 61.0712251 14.7008547 61.0712251 21.3846154M86.2792023 16.5470085C86.2792023 12.039886 83.1025641 8.1994302 78.5868946 8.1994302L72.2621083 8.1994302 72.2621083 25.0712251 78.5982906 25.0712251C83.1025641 25.2193732 86.2905983 21.045584 86.2905983 16.5584046M94.97151 16.5584046C94.97151 26.0683761 88.3048433 32.5700418 78.7920228 32.5700418L65.1168091 32.5700418C64.4906331 32.58256 63.9715094 32.0876111 63.9541598 31.4615385L63.9541598 1.84615385C63.9414188 1.22746756 64.424533.711471204 65.042735.683760684L78.7806268.683760684C88.2735043.683760684 94.960114 7.01709402 94.960114 16.5470085M108.310541 26.0569801C110.871262 26.0098989 112.935825 23.945336 112.982906 21.3846154 112.982906 18.8119078 110.903168 16.7232318 108.330484 16.7122507L108.310541 16.7122507C105.751065 16.7622577 103.688184 18.8251393 103.638177 21.3846154 103.806268 23.8774929 105.80057 26.0569801 108.310541 26.0569801M107.122507 9.36182336C109.80057 9.36182336 111.965812 10.3589744 112.960114 11.8746439L112.960114 11.2108262C112.945764 10.5835494 113.441168 10.0626745 114.068376 10.045584L119.957265 10.045584C120.225061 10.0341727 120.485375 10.1355601 120.674907 10.3250926 120.86444 10.514625 120.965827 10.7749387 120.954416 11.042735L120.954416 31.5555556C120.965827 31.8233519 120.86444 32.0836656 120.674907 32.273198 120.485375 32.4627305 120.225061 32.5641179 119.957265 32.5527066L114.145299 32.5527066C113.877503 32.5641179 113.617189 32.4627305 113.427657 32.273198 113.238124 32.0836656 113.136737 31.8233519 113.148148 31.5555556L113.148148 30.8888889C112.150997 32.2193732 109.97151 33.4017094 107.31339 33.4017094 101.478632 33.4017094 95.974359 28.7293447 95.974359 21.3789174 95.974359 14.02849 101.293447 9.35612536 107.128205 9.35612536M134.498575 26.0569801C137.058673 26.0084344 139.122395 23.9447133 139.17094 21.3846154 139.169396 18.8114461 137.088816 16.7232266 134.51567 16.7122507L134.498575 16.7122507C131.938478 16.7607964 129.874756 18.8245175 129.826211 21.3846154 129.991453 23.8774929 132.005698 26.0569801 134.498575 26.0569801M133.168091 9.36182336C136.017094 9.36182336 138.173789 10.3589744 139.17094 11.7094017L139.17094 1.70940171C139.159529 1.44160535 139.260916 1.18129168 139.450449.991759218 139.639981.802226756 139.900295.700839386 140.168091.712250712L146.002849.712250712C146.272093.698360834 146.534712.798651315 146.726161.988473465 146.91761 1.17829561 147.020138 1.440049 147.008547 1.70940171L147.008547 31.5612536C147.019958 31.8290499 146.918571 32.0893636 146.729039 32.2788961 146.539506 32.4684285 146.279192 32.5698159 146.011396 32.5584046L140.17094 32.5584046C139.903144 32.5698159 139.64283 32.4684285 139.453298 32.2788961 139.263765 32.0893636 139.162378 31.8290499 139.173789 31.5612536L139.173789 30.8945869C137.680417 32.53522 135.551422 33.4512071 133.333333 33.4074074 127.498575 33.4074074 121.994302 28.7350427 121.994302 21.3846154 121.994302 14.034188 127.498575 9.36182336 133.168091 9.36182336M160.868946 26.0569801C163.429666 26.0098989 165.494229 23.945336 165.541311 21.3846154 165.539766 18.8114461 163.459186 16.7232266 160.88604 16.7122507L160.868946 16.7122507C158.308848 16.7607964 156.245127 18.8245175 156.196581 21.3846154 156.205956 23.9611978 158.292363 26.0476049 160.868946 26.0569801L160.868946 26.0569801M159.373219 9.36182336C162.222222 9.36182336 164.378917 10.3589744 165.376068 11.7094017L165.376068 1.70940171C165.364657 1.44160535 165.466044 1.18129168 165.655577.991759218 165.845109.802226756 166.105423.700839386 166.373219.712250712L172.207977.712250712C172.478182.696691885 172.742345.796242557 172.935078.986260604 173.127811 1.17627865 173.231098 1.43900341 173.219373 1.70940171L173.219373 31.5612536C173.230785 31.8290499 173.129397 32.0893636 172.939865 32.2788961 172.750332 32.4684285 172.490019 32.5698159 172.222222 32.5584046L166.381766 32.5584046C166.11397 32.5698159 165.853656 32.4684285 165.664124 32.2788961 165.474591 32.0893636 165.373204 31.8290499 165.384615 31.5612536L165.384615 30.8945869C163.891243 32.53522 161.762248 33.4512071 159.54416 33.4074074 153.709402 33.4074074 148.205128 28.7350427 148.205128 21.3846154 148.205128 14.034188 153.689459 9.36182336 159.378917 9.36182336M192.592593 35.8974359C191.096866 40.7407407 187.749288 43.4131054 182.581197 43.4131054 179.732194 43.4131054 176.911681 42.4159544 175.233618 40.9031339 174.938861 40.6522865 174.758866 40.2922972 174.735043 39.9059829 174.768855 39.5529841 174.881817 39.2121504 175.065527 38.9088319L177.207977 35.5669516C177.430833 35.238424 177.808593 35.0495441 178.205128 35.0683761 178.703704 35.0683761 178.868946 35.2364672 179.367521 35.5669516 180.135475 36.1685267 181.071202 36.5169358 182.045584 36.5641026 183.153362 36.6113711 184.166024 35.9412439 184.555556 34.9031339L185.222222 32.5584046 181.717949 32.5584046C181.057838 32.5256725 180.506941 32.0431949 180.387464 31.3931624L174.552707 11.6809117C174.442314 11.3600914 174.38646 11.023041 174.387451 10.6837607 174.387451 10.1851852 174.717949 9.85185185 175.384615 9.85185185L182.222222 9.85185185C182.888889 9.85185185 183.219373 10.3504274 183.387464 11.017094L187.22792 25.1994302 187.558405 25.1994302 190.729345 11.025641C190.897436 10.5270655 191.22792 9.86039886 191.894587 9.86039886L198.911681 9.86039886C199.575499 9.86039886 199.908845 10.1937322 199.908845 10.6923077 199.909836 11.031588 199.853982 11.3686384 199.74359 11.6894587L192.592593 35.8974359M27.7008547 28.2193732C24.8518519 32.0598291 20.3504274 33.3903134 16.3618234 33.3903134 6.85185185 33.3903134 0 26.3703704 0 16.6951567 0 7.35042735 7.51566952 0 17.1937322 0 24.3760684 0 30.2136752 3.01139601 32.8632479 8.84615385 33.1965812 9.50997151 33.3618234 10.6752137 31.5327635 11.005698L26.3703704 11.8376068C25.2079772 12.002849 24.5441595 11.3390313 24.3760684 11.005698 22.765144 8.83828737 20.2386146 7.54238835 17.5384615 7.4985755 12.3732194 7.4985755 8.86324786 11.3390313 8.86324786 16.5242165 8.86324786 22.1937322 13.037037 25.5356125 17.5441595 25.5356125 20.5527066 25.5356125 23.048433 24.3732194 24.7264957 22.3589744L20.2279202 22.3589744C19.6006434 22.3733246 19.0797686 21.8779204 19.0626781 21.2507123L19.0626781 16.8433048C19.0434942 16.2148905 19.5368577 15.6896559 20.1652422 15.6695157L34.0712251 15.6695157C34.6985019 15.6551654 35.2193767 16.1505697 35.2367713 16.7777778L35.2367713 31.1823362C35.2508175 31.809613 34.7554133 32.3304878 34.1282051 32.3475783L29.2336182 32.3475783C28.6074422 32.3603378 28.0883185 31.8653889 28.0712251 31.2393162L28.0712251 28.1823362" transform="translate(0 78)"/>
</svg>
