<?xml version="1.0" encoding="utf-8"?>
<svg xmlns="http://www.w3.org/2000/svg" width="200" height="200" viewBox="0 0 200 200">
  <g fill="#4F5963" transform="translate(0 45)">
    <path d="M143.360465 0L55.8139535 0 55.8139535 87.7596899 143.360465 87.7596899 143.360465 0zM138.937984 83.2868217L60.3217054 83.2868217 60.3217054 4.49612403 138.937984 4.49612403 138.937984 83.2868217zM87.5310078 93.7984496C84.3178295 93.7984496 82.6317829 96.5116279 82.6317829 101.887597L82.6317829 102.643411C82.6317829 108.01938 84.3410853 110.732558 87.5310078 110.732558 90.7209302 110.732558 92.4069767 108.01938 92.4069767 102.643411L92.4069767 102.643411 92.4069767 101.887597C92.4069767 96.5116279 90.748062 93.7984496 87.5310078 93.7984496zM89.8565891 102.616279L89.8565891 102.616279C89.8565891 107.515504 88.9263566 109.29845 87.5310078 109.29845 85.875969 109.29845 85.2713178 107.515504 85.2713178 102.616279L85.2713178 101.887597C85.2713178 96.9883721 85.8255814 95.127907 87.5968992 95.127907 89.255814 95.127907 89.8333333 96.9651163 89.8333333 101.887597L89.8565891 102.616279zM66.0271318 99.6434109C64.8217054 98.5387597 64.5193798 97.9108527 64.5193798 97.2286822 64.5193798 96.375969 64.872093 95.0465116 66.0697674 95.0465116 67.6511628 95.0465116 68.7829457 96.879845 69.3333333 99.1899225L69.7868217 99.1899225 69.7868217 94.2906977 69.3992248 94.2906977 68.4689922 95.120155C67.7757538 94.4660837 66.8427964 94.1279743 65.8914729 94.1860465 63.755814 94.1860465 62.0736434 95.2170543 62.1511628 97.9806202 62.2015504 100.166667 65.3914729 102.930233 65.3914729 102.930233 67 104.713178 67.9263566 105.794574 67.9263566 106.899225 67.9263566 108.449612 67.3488372 109.310078 66.244186 109.310078 64.4612403 109.337209 63.5077519 107.627907 62.4496124 104.713178L61.9224806 104.662791 61.9224806 110.565891 62.6007752 110.565891 63.3565891 109.209302C64.0982321 110.156732 65.2559775 110.682059 66.4573643 110.616279 68.6937984 110.616279 70.2790698 109.135659 70.2790698 106.472868 70.2790698 103.934109 68.8217054 102.77907 67.0116279 100.717054L66.0271318 99.6434109zM103.05814 107.329457L103.034884 106.166667C102.957364 103.728682 102.782946 102.248062 100.244186 101.872093 103.007752 101.193798 103.209302 100.162791 103.209302 98.2286822 103.209302 95.3372093 101.577519 94.4069767 97.3062016 94.4069767L93.4612403 94.4069767 94.7945736 95.4883721 94.7945736 109.383721 93.4612403 110.465116 98.5 110.465116 97.1434109 109.383721 97.1434109 109.383721 97.1434109 102.325581C99.7790698 102.050388 100.406977 103.910853 100.434109 106.271318L100.457364 107.453488C100.484496 108.984496 100.844961 109.965116 101.790698 110.44186L105.03876 110.44186C103.846603 109.858493 103.081688 108.656485 103.05814 107.329457zM97.6744186 101.403101C97.5503876 101.403101 97.3992248 101.375969 97.2209302 101.375969L97.2209302 101.375969 97.2209302 95.4457364 97.5 95.4457364C99.8604651 95.4457364 100.864341 95.9496124 100.864341 98.0348837 100.872093 100.294574 99.7945736 101.403101 97.6744186 101.403101zM111.829457 95.5736434C111.829457 95.5736434 109.992248 99.8682171 109.767442 100.748062L109.379845 100.748062C109.302326 100.22093 107.468992 95.5736434 107.468992 95.5736434L108.224806 94.4108527 104.189922 94.4108527 105.22093 95.620155 107.751938 102.906977 107.751938 109.302326 106.395349 110.360465 111.434109 110.360465 110.077519 109.302326 110.077519 102.883721 113.093023 95.6472868 114.29845 94.4418605 110.856589 94.4418605 111.829457 95.5736434z"/>
    <polygon points="0 98.736 .829 98.764 2.791 93.713 4.322 93.713 4.322 108.988 2.512 110.469 9.271 110.469 7.461 108.988 7.461 93.713 8.919 93.713 11.105 98.686 11.783 98.686 11.783 92.43 0 92.43"/>
    <path d="M127.352713 104.44186C126.965116 107.155039 125.922481 109.065891 124.189922 109.139535 122.205426 109.213178 121.527132 106.879845 121.527132 102.031008L121.527132 101.302326C121.527132 96.3255814 121.5 93.7364341 123.662791 93.6899225 125.825581 93.6434109 126.976744 96.6782946 127.302326 98.5387597L127.98062 98.5387597 127.782946 92.5310078 127.155039 92.5310078 126.70155 93.5387597C125.848837 92.6085271 124.414729 92.4302326 123.360465 92.4302326 118.763566 92.4302326 118.282946 95.2945736 118.232558 101.375969L118.232558 102.127907C118.186047 109.391473 120.72093 110.267442 123.360465 110.344961 127.054264 110.472868 128.031008 108.108527 128.05814 106.953488 128.081395 105.573643 128.158915 104.968992 128.05814 104.24031 128.081395 104.24031 127.403101 103.988372 127.352713 104.44186zM24.8062016 94.4147287L19.0697674 94.4147287 20.4496124 95.4728682 20.4496124 101.050388C19.7885217 100.922062 19.1147129 100.871331 18.4418605 100.899225 17.8768787 100.873197 17.3109798 100.924049 16.7596899 101.050388L16.7596899 95.4728682 18.1395349 94.3914729 12.5620155 94.3914729 13.9534884 95.4457364 13.9534884 109.263566 12.5697674 110.321705 17.7364341 110.321705 16.7596899 109.263566 16.7596899 102.430233C17.2894252 102.326994 17.8255293 102.259658 18.3643411 102.228682 19.0627368 102.255594 19.7589907 102.32289 20.4496124 102.430233L20.4496124 109.263566 19.0697674 110.344961 24.2209302 110.344961 23.255814 109.302326 23.255814 95.4728682 24.8062016 94.4147287z"/>
    <polygon points="60.725 94.415 55.298 94.415 56.554 95.496 56.554 109.314 55.298 110.395 60.725 110.395 59.368 109.314 59.368 95.496"/>
    <polygon points="32.636 108.864 30 108.864 30 102.357 31.004 102.357 32.283 104.543 32.814 104.543 32.814 99.391 32.283 99.391 31.004 101.252 30 101.252 30 95.473 32.434 95.473 34.043 98.764 34.57 98.764 34.57 94.415 25.601 94.415 27.186 95.496 27.186 109.291 25.601 110.395 35.124 110.395 35.124 105.019 34.698 105.019"/>
    <polygon points="182.403 108.938 179.791 108.938 179.791 101.981 180.318 101.981 182.326 104.066 182.678 104.066 182.678 98.988 182.326 98.988 180.318 100.922 179.791 100.922 179.791 95.473 181.876 95.473 183.934 98.764 184.36 98.764 184.36 94.415 175.845 94.415 177.453 95.496 177.453 109.364 175.845 110.469 184.915 110.469 184.915 104.616 184.488 104.616"/>
    <path d="M160.143411,95.496124 C160.166667,102.356589 160.290698,100.72093 160.317829,104.213178 L159.74031,104.213178 C159.437984,102.507752 156.271318,94.4186047 156.271318,94.4186047 L151.348837,94.4186047 L152.899225,95.6472868 L152.872093,109.341085 L151.744186,110.395349 L155.937984,110.395349 L154.406977,109.341085 C154.406977,109.341085 154.255814,97.6317829 154.27907,97.5581395 L154.782946,97.5581395 C155.236434,98.8875969 159.581395,110.395349 159.581395,110.395349 L161.364341,110.395349 L161.790698,95.496124 L162.72093,94.4418605 L158.926357,94.4418605 L160.143411,95.496124 Z"/>
    <polygon points="194.965 104.14 193.004 108.864 190.516 108.864 190.516 95.496 191.899 94.415 186.345 94.415 187.729 95.496 187.729 109.264 186.372 110.395 195.442 110.395 195.415 104.14"/>
    <path d="M147.027132 94.2674419L144.96124 94.2674419 141.472868 109.263566 140.267442 110.244186 140.395349 110.395349 144.112403 110.395349 142.879845 109.263566 143.635659 106.124031C144.221674 105.999995 144.819662 105.941496 145.418605 105.949612 145.806202 105.949612 146.22093 106.023256 147.228682 106.124031L147.930233 109.263566 146.550388 110.395349 150.996124 110.395349 150.042636 109.263566 147.027132 94.2674419zM145.569767 104.767442C145.042636 104.767442 144.565891 104.844961 143.937984 104.895349 143.937984 104.895349 145.042636 100.523256 145.344961 99.1666667L145.693798 99.1666667C146.081395 100.717054 147.077519 104.895349 147.077519 104.895349 146.550388 104.895349 146.147287 104.767442 145.569767 104.767442zM73.0852713 69.1937984L64.8449612 76.9457364 96.9302326 76.9457364 88.6395349 69.1937984 88.6395349 46.755814 110.620155 46.755814 110.620155 69.1666667 102.329457 76.9186047 135.275194 76.9186047 126.984496 69.1666667 126.984496 18.744186 135.476744 10.9922481 102.104651 10.9922481 110.596899 18.744186 110.596899 33.3914729 88.6395349 33.3914729 88.6395349 18.744186 97.0813953 10.9922481 64.620155 10.9922481 73.0620155 18.744186 73.0620155 69.1937984 73.0852713 69.1937984zM117.531008 70.1976744L105.496124 75.6472868 111.829457 70.0465116 111.976744 47.0077519 117.531008 41.255814 117.531008 70.1976744 117.531008 70.1976744zM88.0348837 34.748062L112.228682 34.748062 112.228682 18.0387597 105.271318 12.1860465 117.531008 17.5852713 117.531008 38.6899225 83.2131783 38.6899225 88.0348837 34.748062zM67.4418605 12.0348837L80.8333333 17.8488372 80.8333333 69.9457364 67.6550388 75.8255814 73.7868217 70.3992248 73.7868217 17.2596899 67.4418605 12.0348837z"/>
    <polygon points="70.748 99.795 71.504 99.818 73.264 95.395 74.694 95.395 74.694 109.14 73.062 110.469 79.116 110.469 77.484 109.14 77.484 95.395 78.74 95.295 80.725 99.795 81.353 99.795 81.353 94.267 70.748 94.267"/>
    <path d="M139.414729 95.496124L140.965116 94.4418605 135.217054 94.4418605 136.600775 95.496124 136.600775 101.073643C135.938356 100.945471 135.263282 100.894743 134.589147 100.922481 134.024143 100.895381 133.458098 100.946247 132.906977 101.073643L132.906977 95.496124 134.290698 94.4418605 128.786822 94.4418605 130.166667 95.496124 130.166667 109.341085 130.166667 109.341085 128.786822 110.395349 133.937984 110.395349 132.98062 109.341085 132.98062 102.507752C133.51169 102.4047 134.04907 102.337366 134.589147 102.306202 135.287672 102.331184 135.98404 102.398491 136.674419 102.507752L136.674419 109.341085 135.294574 110.422481 140.042636 110.422481 140.217054 110.271318 139.387597 109.341085 139.387597 95.496124 139.414729 95.496124zM54.4186047 92.4302326L48.0116279 92.4302326 49.5620155 93.6395349 49.5620155 99.8682171C48.8092215 99.7205821 48.0416703 99.6620401 47.2751938 99.6937984 46.6422039 99.6628349 46.008016 99.721556 45.3914729 99.8682171L45.3914729 93.6124031 46.9418605 92.4069767 40.7248062 92.4069767 42.2751938 93.6124031 42.2751938 109.189922 42.2751938 109.189922 40.7248062 110.395349 46.4806202 110.395349 45.3992248 109.189922 45.3992248 101.527132C45.9979964 101.419004 46.6022717 101.343955 47.2093023 101.302326 47.9995572 101.3353 48.7874949 101.410342 49.5697674 101.527132L49.5697674 109.189922 48.0193798 110.395349 53.7751938 110.395349 52.6937984 109.189922 52.6937984 93.6124031 54.4186047 92.4302326zM172.20155 95.496124C172.224806 102.356589 172.352713 100.697674 172.375969 104.213178L171.775194 104.213178C171.472868 102.507752 168.306202 94.4186047 168.306202 94.4186047L163.383721 94.4186047 164.934109 95.6472868 164.934109 109.302326 163.802326 110.360465 167.996124 110.360465 166.472868 109.302326C166.472868 109.302326 166.321705 97.5968992 166.348837 97.5465116L166.848837 97.5465116C167.302326 98.875969 171.647287 110.383721 171.647287 110.383721L173.434109 110.383721 173.860465 95.4844961 174.790698 94.4302326 171.01938 94.4302326 172.20155 95.496124zM198.027132 107.077519C197.055282 107.077519 196.267442 107.865359 196.267442 108.837209 196.267442 109.809059 197.055282 110.596899 198.027132 110.596899 198.998982 110.596899 199.786822 109.809059 199.786822 108.837209 199.782576 107.867123 198.997218 107.081765 198.027132 107.077519zM197.953488 110.395349C197.14948 110.345598 196.528322 109.669682 196.546512 108.864341 196.546512 108.059461 197.198996 107.406977 198.003876 107.406977 198.808756 107.406977 199.46124 108.059461 199.46124 108.864341L199.46124 109.015504C199.450396 109.400565 199.283847 109.764765 198.999673 110.024831 198.715499 110.284898 198.338 110.418593 197.953488 110.395349L197.953488 110.395349z"/>
    <path d="M198.705426,109.364341 C198.705426,108.976744 198.631783,108.914729 198.48062,108.837209 C198.66466,108.741158 198.773128,108.544084 198.755814,108.337209 C198.769206,108.184741 198.71664,108.03384 198.611418,107.92269 C198.506196,107.81154 198.358399,107.750791 198.205426,107.755814 L197.325581,107.755814 L197.325581,109.841085 L197.651163,109.841085 L197.651163,109.03876 L198.03876,109.03876 C198.317829,109.03876 198.317829,109.139535 198.317829,109.426357 C198.31411,109.555989 198.321892,109.685696 198.341085,109.813953 L198.767442,109.813953 L198.767442,109.763566 C198.705426,109.744186 198.705426,109.666667 198.705426,109.364341 Z M198.178295,108.713178 L197.751938,108.713178 L197.751938,108.158915 L198.205426,108.158915 C198.277687,108.154627 198.348031,108.18314 198.396911,108.236532 C198.445791,108.289925 198.467999,108.362506 198.457364,108.434109 C198.48062,108.635659 198.379845,108.713178 198.178295,108.713178 L198.178295,108.713178 Z"/>
  </g>
</svg>
