<?xml version="1.0" encoding="UTF-8"?>
<svg width="570px" height="532px" viewBox="0 0 570 532" version="1.1" xmlns="http://www.w3.org/2000/svg" xmlns:xlink="http://www.w3.org/1999/xlink">
    <!-- Generator: Sketch 56.3 (81716) - https://sketch.com -->
    <title>Slice 1</title>
    <desc>Created with Sketch.</desc>
    <defs>
        <path d="M12.2976623,0.761814685 L309.930595,0.779825174 C313.295346,0.779996503 316.023418,1.74734261 316.025765,2.9411048 L316.20073,158.595717 C316.20073,159.790182 313.475678,160.76 310.108935,160.76 C310.107232,160.76 310.10553,160.76 310.103827,160.76 L12.4708938,160.740182 C9.10613301,160.740021 6.37806168,159.772678 6.37571409,158.578909 L6.20073,2.92429012 C6.20073,1.72981464 8.92578175,0.76 12.2925438,0.76 C12.2942468,0.76 12.2959594,0.76 12.2976623,0.76 L12.2976623,0.761814685 Z" id="path-1"></path>
        <filter x="-22.9%" y="-43.7%" width="145.8%" height="188.7%" filterUnits="objectBoundingBox" id="filter-2">
            <feMorphology radius="1" operator="dilate" in="SourceAlpha" result="shadowSpreadOuter1"></feMorphology>
            <feOffset dx="0" dy="1" in="shadowSpreadOuter1" result="shadowOffsetOuter1"></feOffset>
            <feGaussianBlur stdDeviation="22.5" in="shadowOffsetOuter1" result="shadowBlurOuter1"></feGaussianBlur>
            <feColorMatrix values="0 0 0 0 0   0 0 0 0 0   0 0 0 0 0  0 0 0 0.0729075612 0" type="matrix" in="shadowBlurOuter1"></feColorMatrix>
        </filter>
        <path d="M6.28557,0.49933 L419.76581,0.5199 C423.22504,0.52007 426.03116,3.3207 426.03812,6.77994 L426.236523,105.55284 C426.24347,109.0171 423.44076,111.8311 419.9765,111.83808 C419.9722,111.83808 419.96789,111.83808 419.96359,111.83808 L6.4834,111.8175 C3.02416,111.81733 0.21803,109.01669 0.21108,105.55746 L0.0126570651,6.78457 C0.00571,3.32029 2.80842,0.5063 6.2727,0.49933 C6.27696,0.49933 6.28126,0.49933 6.28557,0.49933 Z" id="path-3"></path>
        <filter x="-14.0%" y="-51.6%" width="127.9%" height="206.9%" filterUnits="objectBoundingBox" id="filter-4">
            <feMorphology radius="1" operator="dilate" in="SourceAlpha" result="shadowSpreadOuter1"></feMorphology>
            <feOffset dx="0" dy="2" in="shadowSpreadOuter1" result="shadowOffsetOuter1"></feOffset>
            <feGaussianBlur stdDeviation="18.5" in="shadowOffsetOuter1" result="shadowBlurOuter1"></feGaussianBlur>
            <feColorMatrix values="0 0 0 0 0   0 0 0 0 0   0 0 0 0 0  0 0 0 0.0809932255 0" type="matrix" in="shadowBlurOuter1"></feColorMatrix>
        </filter>
    </defs>
    <g id="Page-1" stroke="none" stroke-width="1" fill="none" fill-rule="evenodd">
        <g id="select-the-voice-actor" transform="translate(1.000000, 72.000000)">
            <circle id="Grey_Circle_3_" fill="#F0F4F7" fill-rule="nonzero" cx="228.8" cy="230" r="228.8"></circle>
            <g id="Product_7_" transform="translate(63.360000, 0.440000)">
                <g id="Group">
                    <g id="Background_List_1_">
                        <g id="Background_12_" fill-rule="nonzero">
                            <g id="Path">
                                <use fill="black" fill-opacity="1" filter="url(#filter-2)" xlink:href="#path-1"></use>
                                <use fill="#FFFFFF" xlink:href="#path-1"></use>
                            </g>
                            <path d="M6.43674,0.76519 L315.7847,0.8167 C319.28189,0.81719 322.11734,3.5838 322.11978,6.99796 L322.301632,452.17017 C322.301632,455.58634 319.46932,458.36002 315.97006,458.36002 C315.96829,458.36002 315.96652,458.36002 315.96475,458.36002 L6.61679,458.30334 C3.11959,458.30288 0.28414,455.53628 0.2817,452.1221 L0.099828426,6.94987 C0.099828426,3.53367 2.93214,0.76 6.43142,0.76 C6.43319,0.76 6.43497,0.76 6.43674,0.76 L6.43674,0.76519 Z" id="Path" fill="#FFFFFF"></path>
                        </g>
                        <g id="Other_Responses_1_" transform="translate(30.363200, 65.956640)" fill-rule="nonzero">
                            <g id="Response_5_1_" transform="translate(1.000000, 302.328000)">
                                <path d="M18.81792,22.8055 L140.83345,22.8055 C142.13255,22.8055 143.18568,23.85863 143.18568,25.15774 L143.18568,25.15774 C143.18568,26.45685 142.13255,27.50998 140.83345,27.50998 L18.81792,27.50998 C17.51881,27.50998 16.46568,26.45685 16.46568,25.15774 L16.46568,25.15774 C16.46568,23.85863 17.51881,22.8055 18.81792,22.8055 Z" id="Rectangle_110_" fill="#F0F4F7"></path>
                                <path d="M155.27145,22.8055 L168.27507,22.8055 C169.57417,22.8055 170.6273,23.85863 170.6273,25.15774 L170.6273,25.15774 C170.6273,26.45685 169.57417,27.50998 168.27507,27.50998 L155.27145,27.50998 C153.97235,27.50998 152.91922,26.45685 152.91922,25.15774 L152.91922,25.15774 C152.91922,23.85863 153.97235,22.8055 155.27145,22.8055 Z" id="Rectangle_109_" fill="#F0F4F7"></path>
                                <path d="M9.40775,26.39081 L2.537,31.78926 C1.85599,32.32434 0.87016,32.20604 0.33508,31.52503 C0.11801,31.24875 0,30.90756 0,30.55619 L0,19.75929 C0,18.89322 0.70209,18.19113 1.56816,18.19113 C1.91953,18.19113 2.26072,18.30913 2.537,18.52622 L9.40775,23.92467 C10.08876,24.45975 10.20706,25.44558 9.67198,26.12659 C9.59476,26.22488 9.50605,26.31358 9.40775,26.39081 Z" id="Triangle_7_" fill="#C9D0D9"></path>
                                <path d="M197.08128,15.74878 L253.88351,15.74878 C256.48175,15.74878 258.58801,17.85505 258.58801,20.45326 L258.58801,29.86222 C258.58801,32.46043 256.48175,34.5667 253.88351,34.5667 L197.08128,34.5667 C194.48307,34.5667 192.3768,32.46043 192.3768,29.86222 L192.3768,20.45326 C192.3768,17.85505 194.48308,15.74878 197.08128,15.74878 Z" id="Rectangle_108_" fill="#30A165"></path>
                                <path d="M3.13632,0.06718 L67.43088,0.06718 C69.16302,0.06718 70.5672,1.47136 70.5672,3.2035 L70.5672,3.2035 C70.5672,4.93564 69.16302,6.33982 67.43088,6.33982 L3.13632,6.33982 C1.40418,6.33982 0,4.93564 0,3.2035 L0,3.2035 C0,1.47136 1.40418,0.06718 3.13632,0.06718 Z" id="Rectangle_107_" fill="#C9D0D9"></path>
                                <path d="M208.16809,1.80958 L242.54025,1.80958 C243.83935,1.80958 244.89248,2.86271 244.89248,4.16182 L244.89248,4.16182 C244.89248,5.46093 243.83935,6.51406 242.54025,6.51406 L208.16809,6.51406 C206.86899,6.51406 205.81586,5.46093 205.81586,4.16182 L205.81586,4.16182 C205.81586,2.86271 206.86899,1.80958 208.16809,1.80958 Z" id="Rectangle_106_" fill="#C9D0D9"></path>
                            </g>
                            <g id="Response_4_1_" transform="translate(1.000000, 241.344000)">
                                <path d="M18.81792,22.8055 L140.83345,22.8055 C142.13255,22.8055 143.18568,23.85863 143.18568,25.15774 L143.18568,25.15774 C143.18568,26.45685 142.13255,27.50998 140.83345,27.50998 L18.81792,27.50998 C17.51881,27.50998 16.46568,26.45685 16.46568,25.15774 L16.46568,25.15774 C16.46568,23.85863 17.51881,22.8055 18.81792,22.8055 Z" id="Rectangle_105_" fill="#F0F4F7"></path>
                                <path d="M155.27145,22.8055 L168.27507,22.8055 C169.57417,22.8055 170.6273,23.85863 170.6273,25.15774 L170.6273,25.15774 C170.6273,26.45685 169.57417,27.50998 168.27507,27.50998 L155.27145,27.50998 C153.97235,27.50998 152.91922,26.45685 152.91922,25.15774 L152.91922,25.15774 C152.91922,23.85863 153.97235,22.8055 155.27145,22.8055 Z" id="Rectangle_104_" fill="#F0F4F7"></path>
                                <path d="M9.40775,26.39081 L2.537,31.78926 C1.85599,32.32434 0.87016,32.20604 0.33508,31.52503 C0.11801,31.24875 0,30.90756 0,30.55619 L0,19.75929 C0,18.89322 0.70209,18.19113 1.56816,18.19113 C1.91953,18.19113 2.26072,18.30913 2.537,18.52622 L9.40775,23.92467 C10.08876,24.45975 10.20706,25.44558 9.67198,26.12659 C9.59476,26.22488 9.50605,26.31358 9.40775,26.39081 Z" id="Triangle_6_" fill="#C9D0D9"></path>
                                <path d="M197.08128,15.74878 L253.88351,15.74878 C256.48175,15.74878 258.58801,17.85505 258.58801,20.45326 L258.58801,29.86222 C258.58801,32.46043 256.48175,34.5667 253.88351,34.5667 L197.08128,34.5667 C194.48307,34.5667 192.3768,32.46043 192.3768,29.86222 L192.3768,20.45326 C192.3768,17.85505 194.48308,15.74878 197.08128,15.74878 Z" id="Rectangle_103_" fill="#30A165"></path>
                                <path d="M3.13632,0.06718 L67.43088,0.06718 C69.16302,0.06718 70.5672,1.47136 70.5672,3.2035 L70.5672,3.2035 C70.5672,4.93564 69.16302,6.33982 67.43088,6.33982 L3.13632,6.33982 C1.40418,6.33982 0,4.93564 0,3.2035 L0,3.2035 C0,1.47136 1.40418,0.06718 3.13632,0.06718 Z" id="Rectangle_102_" fill="#C9D0D9"></path>
                                <path d="M208.16809,1.80958 L242.54025,1.80958 C243.83935,1.80958 244.89248,2.86271 244.89248,4.16182 L244.89248,4.16182 C244.89248,5.46093 243.83935,6.51406 242.54025,6.51406 L208.16809,6.51406 C206.86899,6.51406 205.81586,5.46093 205.81586,4.16182 L205.81586,4.16182 C205.81586,2.86271 206.86899,1.80958 208.16809,1.80958 Z" id="Rectangle_101_" fill="#C9D0D9"></path>
                            </g>
                            <g id="Response_3_1_" transform="translate(1.000000, 180.360000)">
                                <path d="M18.81792,22.8055 L140.83345,22.8055 C142.13255,22.8055 143.18568,23.85863 143.18568,25.15774 L143.18568,25.15774 C143.18568,26.45685 142.13255,27.50998 140.83345,27.50998 L18.81792,27.50998 C17.51881,27.50998 16.46568,26.45685 16.46568,25.15774 L16.46568,25.15774 C16.46568,23.85863 17.51881,22.8055 18.81792,22.8055 Z" id="Rectangle_100_" fill="#F0F4F7"></path>
                                <path d="M155.27145,22.8055 L168.27507,22.8055 C169.57417,22.8055 170.6273,23.85863 170.6273,25.15774 L170.6273,25.15774 C170.6273,26.45685 169.57417,27.50998 168.27507,27.50998 L155.27145,27.50998 C153.97235,27.50998 152.91922,26.45685 152.91922,25.15774 L152.91922,25.15774 C152.91922,23.85863 153.97235,22.8055 155.27145,22.8055 Z" id="Rectangle_99_" fill="#F0F4F7"></path>
                                <path d="M9.40775,26.39081 L2.537,31.78926 C1.85599,32.32434 0.87016,32.20603 0.33508,31.52503 C0.11801,31.24874 0,30.90756 0,30.55619 L0,19.75929 C0,18.89322 0.70209,18.19113 1.56816,18.19113 C1.91953,18.19113 2.26072,18.30913 2.537,18.52622 L9.40775,23.92467 C10.08876,24.45975 10.20706,25.44558 9.67198,26.12659 C9.59476,26.22488 9.50605,26.31358 9.40775,26.39081 Z" id="Triangle_5_" fill="#C9D0D9"></path>
                                <path d="M197.08128,15.74878 L253.88351,15.74878 C256.48175,15.74878 258.58801,17.85505 258.58801,20.45326 L258.58801,29.86222 C258.58801,32.46043 256.48175,34.5667 253.88351,34.5667 L197.08128,34.5667 C194.48307,34.5667 192.3768,32.46043 192.3768,29.86222 L192.3768,20.45326 C192.3768,17.85505 194.48308,15.74878 197.08128,15.74878 Z" id="Rectangle_98_" fill="#30A165"></path>
                                <path d="M3.13632,0.06718 L67.43088,0.06718 C69.16302,0.06718 70.5672,1.47136 70.5672,3.2035 L70.5672,3.2035 C70.5672,4.93564 69.16302,6.33982 67.43088,6.33982 L3.13632,6.33982 C1.40418,6.33982 0,4.93564 0,3.2035 L0,3.2035 C0,1.47136 1.40418,0.06718 3.13632,0.06718 Z" id="Rectangle_97_" fill="#C9D0D9"></path>
                                <path d="M208.16809,1.80958 L242.54025,1.80958 C243.83935,1.80958 244.89248,2.86271 244.89248,4.16182 L244.89248,4.16182 C244.89248,5.46092 243.83935,6.51406 242.54025,6.51406 L208.16809,6.51406 C206.86899,6.51406 205.81586,5.46093 205.81586,4.16182 L205.81586,4.16182 C205.81586,2.86271 206.86899,1.80958 208.16809,1.80958 Z" id="Rectangle_96_" fill="#C9D0D9"></path>
                            </g>
                            <g id="Response_1_1_" transform="translate(0.680000, 0.736000)">
                                <g id="Group-3_1_" transform="translate(0.000000, 15.681600)">
                                    <g id="Group_5_" transform="translate(0.000000, 2.784080)">
                                        <path d="M19.68145,4.79759 L141.69698,4.79759 C142.99608,4.79759 144.04921,5.85073 144.04921,7.14983 L144.04921,7.14983 C144.04921,8.44894 142.99608,9.50207 141.69698,9.50207 L19.68145,9.50207 C18.38234,9.50207 17.32921,8.44894 17.32921,7.14983 L17.32921,7.14983 C17.32921,5.85071 18.38234,4.79759 19.68145,4.79759 Z" id="Rectangle_95_" fill="#F0F4F7"></path>
                                        <path d="M155.81819,4.79759 L168.82181,4.79759 C170.12091,4.79759 171.17404,5.85073 171.17404,7.14983 L171.17404,7.14983 C171.17404,8.44894 170.12091,9.50207 168.82181,9.50207 L155.81819,9.50207 C154.51909,9.50207 153.46596,8.44894 153.46596,7.14983 L153.46596,7.14983 C153.46596,5.85071 154.51909,4.79759 155.81819,4.79759 Z" id="Rectangle_94_" fill="#F0F4F7"></path>
                                        <path d="M10.27129,8.3829 L3.40054,13.78135 C2.71953,14.31643 1.7337,14.19813 1.19862,13.51712 C0.98154,13.24083 0.86353,12.89965 0.86353,12.54828 L0.86353,1.7514 C0.86353,0.88533 1.56562,0.18324 2.43169,0.18324 C2.78306,0.18324 3.12425,0.30124 3.40054,0.51832 L10.27129,5.91677 C10.9523,6.45184 11.07059,7.43767 10.53552,8.11868 C10.45829,8.21697 10.36958,8.30567 10.27129,8.3829 Z" id="Triangle_4_" fill="#C9D0D9"></path>
                                    </g>
                                    <path d="M197.94481,0.52495 L254.74706,0.52495 C257.34528,0.52495 259.45154,2.63121 259.45154,5.22943 L259.45154,14.63839 C259.45154,17.2366 257.34528,19.34287 254.74706,19.34287 L197.94481,19.34287 C195.3466,19.34287 193.24033,17.2366 193.24033,14.63839 L193.24033,5.22942 C193.24033,2.63121 195.3466,0.52495 197.94481,0.52495 Z" id="Rectangle_93_" fill="#30A165"></path>
                                </g>
                                <path d="M3.99985,0.52495 L68.29441,0.52495 C70.02655,0.52495 71.43073,1.92912 71.43073,3.66127 L71.43073,3.66127 C71.43073,5.39341 70.02655,6.79758 68.29441,6.79758 L3.99985,6.79758 C2.26771,6.79758 0.86353,5.39341 0.86353,3.66127 L0.86353,3.66127 C0.86353,1.92911 2.26771,0.52495 3.99985,0.52495 Z" id="Rectangle_92_" fill="#C9D0D9"></path>
                                <path d="M209.03162,2.26735 L243.40378,2.26735 C244.70288,2.26735 245.75601,3.32048 245.75601,4.61959 L245.75601,4.61959 C245.75601,5.91869 244.70288,6.97182 243.40378,6.97182 L209.03162,6.97182 C207.73252,6.97182 206.67939,5.91869 206.67939,4.61959 L206.67939,4.61959 C206.67939,3.32048 207.73251,2.26735 209.03162,2.26735 Z" id="Rectangle_91_" fill="#C9D0D9"></path>
                            </g>
                        </g>
                        <text id="Responses" fill="#6E7681" font-family="Helvetica" font-size="12" font-weight="normal">
                            <tspan x="31.67992" y="41.35688">Responses</tspan>
                        </text>
                    </g>
                    <g id="Stand_Out_1_" transform="translate(38.720000, 119.840000)">
                        <g id="Background_10_" fill-rule="nonzero">
                            <g id="Path">
                                <use fill="black" fill-opacity="1" filter="url(#filter-4)" xlink:href="#path-3"></use>
                                <use fill="#FFFFFF" xlink:href="#path-3"></use>
                            </g>
                        </g>
                        <g id="Button_1_" transform="translate(320.408000, 42.688000)">
                            <g id="Group-4_5_" transform="translate(0.000000, 20.522400)">
                                <path d="M6.27264,0.49902 L72.13536,0.49902 C75.59965,0.49902 78.408,3.30738 78.408,6.77166 L78.408,17.74878 C78.408,21.21306 75.59965,24.02142 72.13536,24.02142 L6.27264,24.02142 C2.80836,24.02142 0,21.21306 0,17.74878 L0,6.77166 C0,3.30738 2.80836,0.49902 6.27264,0.49902 Z" id="Rectangle_90_" fill="#30A165" fill-rule="nonzero"></path>
                                <text id="Hire" fill="#FFFFFF" font-family="Helvetica" font-size="11.29075" font-weight="normal">
                                    <tspan x="29.01091" y="15.97231">Hire</tspan>
                                </text>
                            </g>
                            <path d="M58.24522,6.05152 L20.16278,6.05152 C18.67815,6.05152 17.47461,4.84799 17.47461,3.36335 L17.47461,3.36335 C17.47461,1.87872 18.67815,0.67518 20.16278,0.67518 L58.24522,0.67518 C59.72985,0.67518 60.93339,1.87872 60.93339,3.36335 L60.93339,3.36336 C60.93339,4.84799 59.72986,6.05152 58.24522,6.05152 Z" id="Path" fill="#C9D0D9" fill-rule="nonzero"></path>
                        </g>
                        <g id="Player_1_" transform="translate(26.090560, 64.862720)">
                            <g id="Group-2_1_" transform="translate(65.646800, 3.352240)" fill-rule="nonzero">
                                <path d="M2.35224,4.41942 L160.27177,4.41942 C161.57087,4.41942 162.624,5.47255 162.624,6.77166 L162.624,6.77166 C162.624,8.07077 161.57087,9.1239 160.27177,9.1239 L2.35224,9.1239 C1.05313,9.1239 0,8.07077 0,6.77166 L0,6.77166 C0,5.47255 1.05313,4.41942 2.35224,4.41942 Z" id="Rectangle_89_" fill="#C9D0D9"></path>
                                <path d="M2.35224,4.41942 L78.95975,4.41942 C80.25885,4.41942 81.31199,5.47255 81.31199,6.77166 L81.31199,6.77166 C81.31199,8.07077 80.25885,9.1239 78.95975,9.1239 L2.35224,9.1239 C1.05313,9.1239 0,8.07077 0,6.77166 L0,6.77166 C0,5.47255 1.05313,4.41942 2.35224,4.41942 Z" id="Rectangle_88_" fill="#1171BB"></path>
                                <circle id="Oval_4_" fill="#1171BB" cx="81.77664" cy="6.77166" r="6.27264"></circle>
                            </g>
                            <path d="M22.5224,3.06718 L22.5224,3.06718 C23.38847,3.06718 24.09056,3.76927 24.09056,4.63534 L24.09056,15.61246 C24.09056,16.47853 23.38847,17.18062 22.5224,17.18062 L22.5224,17.18062 C21.65633,17.18062 20.95424,16.47853 20.95424,15.61246 L20.95424,4.63534 C20.95424,3.76927 21.65633,3.06718 22.5224,3.06718 Z" id="Rectangle_87_" fill="#C5CDD6" fill-rule="nonzero"></path>
                            <path d="M28.79504,3.06718 L28.79504,3.06718 C29.66111,3.06718 30.3632,3.76927 30.3632,4.63534 L30.3632,15.61246 C30.3632,16.47853 29.66111,17.18062 28.79504,17.18062 L28.79504,17.18062 C27.92897,17.18062 27.22688,16.47853 27.22688,15.61246 L27.22688,4.63534 C27.22688,3.76927 27.92897,3.06718 28.79504,3.06718 Z" id="Rectangle_86_" fill="#C5CDD6" fill-rule="nonzero"></path>
                            <text id="0:15" fill="#4F5963" font-family="Helvetica" font-size="11.29075" font-weight="normal">
                                <tspan x="38.20395" y="11.49901">0:15</tspan>
                            </text>
                            <text id="0:30" fill="#4F5963" font-family="Helvetica" font-size="11.29075" font-weight="normal">
                                <tspan x="240.99997" y="11.49901">0:30</tspan>
                            </text>
                            <g id="Icon-_x2F_-System-_x2F_-Default-_x2F_-far_x5F_fa-thumbs-up_1_" transform="translate(0.000000, 3.784080)" fill="#6E7681" fill-rule="nonzero">
                                <path d="M12.38498,7.0918 C12.59987,6.72794 12.7214,6.33982 12.7214,5.8706 C12.7214,4.79212 11.80947,3.77368 10.61859,3.77368 L9.72474,3.77368 C9.84529,3.4598 9.94159,3.08442 9.94159,2.63333 C9.94159,0.84969 9.01809,0.06718 7.60724,0.06718 C6.09771,0.06718 6.18382,2.39328 5.84894,2.72815 C5.29158,3.28551 4.63325,4.35627 4.16415,4.77166 L1.74428,4.77166 C1.31125,4.77166 0.9602,5.12271 0.9602,5.55574 L0.9602,11.43634 C0.9602,11.86937 1.31125,12.22042 1.74428,12.22042 L3.31244,12.22042 C3.67736,12.22042 3.98401,11.97113 4.07148,11.63359 C5.16206,11.65812 5.91064,12.61222 8.42807,12.61222 C8.60498,12.61222 8.801,12.61246 8.97252,12.61246 C10.86208,12.61246 11.71646,11.6465 11.73983,10.27664 C12.06618,9.82518 12.23721,9.22004 12.1647,8.63522 C12.40615,8.18309 12.49951,7.64671 12.38498,7.0918 Z M10.87195,8.41077 C11.1797,8.92851 10.90282,9.62144 10.53039,9.82138 C10.71906,11.01661 10.09895,11.43609 9.22882,11.43609 L8.30213,11.43609 C6.5468,11.43609 5.41013,10.5094 4.09652,10.5094 L4.09652,5.94777 L4.36409,5.94777 C5.05898,5.94777 6.02977,4.21079 6.68056,3.55976 C7.37545,2.86487 7.1439,1.70664 7.60724,1.24329 C8.76547,1.24329 8.76547,2.05138 8.76547,2.63332 C8.76547,3.59308 8.07058,4.0231 8.07058,4.94979 L10.61859,4.94979 C11.13584,4.94979 11.54307,5.41313 11.5452914,5.87648 C11.54748,6.33958 11.23116,6.80292 10.99961,6.80292 C11.33012,7.15955 11.40074,7.91131 10.87195,8.41077 Z M3.11642,10.65226 C3.11642,10.97704 2.85314,11.24032 2.52836,11.24032 C2.20358,11.24032 1.9403,10.97704 1.9403,10.65226 C1.9403,10.32748 2.20358,10.0642 2.52836,10.0642 C2.85314,10.0642 3.11642,10.32748 3.11642,10.65226 Z" id="Shape"></path>
                            </g>
                        </g>
                        <g id="Star-rating_1_" transform="translate(26.090560, 49.044800)" fill="#FFBC33" fill-rule="nonzero">
                            <g id="Icon-_x2F_-System-_x2F_-Small-_x2F_-fas_x5F_fa-star_9_">
                                <path d="M4.7679,0.58598 L3.61948,2.91234 L1.05005,3.2866 C0.58927,3.35337 0.40461,3.9209 0.73876,4.24596 L2.59769,6.05574 L2.15802,8.61228 C2.07888,9.07439 2.56603,9.42053 2.97405,9.20441 L5.27265,7.9973 L7.57125,9.20441 C7.97926,9.41877 8.46642,9.07439 8.38728,8.61228 L7.94761,6.05574 L9.80654,4.24596 C10.14069,3.9209 9.95603,3.35337 9.49525,3.2866 L6.92582,2.91234 L5.7774,0.58598 C5.57162,0.17131 4.97542,0.16604 4.7679,0.58598 Z" id="Path"></path>
                            </g>
                            <g id="Icon-_x2F_-System-_x2F_-Small-_x2F_-fas_x5F_fa-star_8_" transform="translate(12.545280, 0.000000)">
                                <path d="M4.7679,0.58598 L3.61948,2.91234 L1.05005,3.2866 C0.58928,3.35337 0.40461,3.9209 0.73876,4.24596 L2.59769,6.05574 L2.15802,8.61228 C2.07888,9.07439 2.56603,9.42053 2.97405,9.20441 L5.27265,7.9973 L7.57125,9.20441 C7.97926,9.41877 8.46642,9.07439 8.38728,8.61228 L7.94761,6.05574 L9.80654,4.24596 C10.14069,3.9209 9.95603,3.35337 9.49525,3.2866 L6.92582,2.91234 L5.7774,0.58598 C5.57162,0.17131 4.97542,0.16604 4.7679,0.58598 Z" id="Path"></path>
                            </g>
                            <g id="Icon-_x2F_-System-_x2F_-Small-_x2F_-fas_x5F_fa-star_7_" transform="translate(25.090560, 0.000000)">
                                <path d="M4.7679,0.58598 L3.61948,2.91234 L1.05005,3.2866 C0.58927,3.35337 0.40461,3.9209 0.73876,4.24596 L2.59769,6.05574 L2.15802,8.61228 C2.07888,9.07439 2.56603,9.42053 2.97405,9.20441 L5.27265,7.9973 L7.57125,9.20441 C7.97926,9.41877 8.46642,9.07439 8.38728,8.61228 L7.94761,6.05574 L9.80654,4.24596 C10.14069,3.9209 9.95603,3.35337 9.49525,3.2866 L6.92582,2.91234 L5.7774,0.58598 C5.57162,0.17131 4.97542,0.16604 4.7679,0.58598 Z" id="Path"></path>
                            </g>
                            <g id="Icon-_x2F_-System-_x2F_-Small-_x2F_-fas_x5F_fa-star_6_" transform="translate(37.635840, 0.000000)">
                                <path d="M4.7679,0.58598 L3.61948,2.91234 L1.05005,3.2866 C0.58928,3.35337 0.40461,3.9209 0.73876,4.24596 L2.59769,6.05574 L2.15802,8.61228 C2.07888,9.07439 2.56603,9.42053 2.97405,9.20441 L5.27265,7.9973 L7.57125,9.20441 C7.97926,9.41877 8.46642,9.07439 8.38728,8.61228 L7.94761,6.05574 L9.80654,4.24596 C10.14069,3.9209 9.95603,3.35337 9.49525,3.2866 L6.92582,2.91234 L5.7774,0.58598 C5.57162,0.17131 4.97542,0.16604 4.7679,0.58598 Z" id="Path"></path>
                            </g>
                            <g id="Icon-_x2F_-System-_x2F_-Small-_x2F_-fas_x5F_fa-star_5_" transform="translate(50.181120, 0.000000)">
                                <path d="M4.7679,0.58598 L3.61948,2.91234 L1.05005,3.2866 C0.58927,3.35337 0.40461,3.9209 0.73876,4.24596 L2.59769,6.05574 L2.15802,8.61228 C2.07888,9.07439 2.56603,9.42053 2.97405,9.20441 L5.27265,7.9973 L7.57125,9.20441 C7.97926,9.41877 8.46642,9.07439 8.38728,8.61228 L7.94761,6.05574 L9.80654,4.24596 C10.14069,3.9209 9.95603,3.35337 9.49525,3.2866 L6.92582,2.91234 L5.7774,0.58598 C5.57162,0.17131 4.97542,0.16604 4.7679,0.58598 Z" id="Path"></path>
                            </g>
                        </g>
                        <g id="Name_1_" transform="translate(26.090560, 28.058560)">
                            <text id="Joseph-Allen" fill="#19222B" font-family="Helvetica" font-size="10.56" font-weight="normal">
                                <tspan x="20.95419" y="10.07636">Joseph Allen</tspan>
                            </text>
                            <g id="Icon-_x2F_-System-_x2F_-Default-_x2F_-fas_x5F_fa-headphones-alt_1_" transform="translate(0.000000, 0.600160)" fill="#6E7681" fill-rule="nonzero">
                                <path d="M4.48856,7.1239 L4.09652,7.1239 C3.23036,7.1239 2.52836,7.82712 2.52836,8.695 L2.52836,10.25728 C2.52836,11.12491 3.23036,11.82838 4.09652,11.82838 L4.48856,11.82838 C4.92152,11.82838 5.27264,11.47652 5.27264,11.04283 L5.27264,7.90945 C5.27264,7.47551 4.92152,7.1239 4.48856,7.1239 Z M9.58508,7.1239 L9.19304,7.1239 C8.76008,7.1239 8.40896,7.47551 8.40896,7.90945 L8.40896,11.04283 C8.40896,11.47653 8.76008,11.82838 9.19304,11.82838 L9.58508,11.82838 C10.45124,11.82838 11.15324,11.12491 11.15324,10.25728 L11.15324,8.695 C11.15324,7.82737 10.45124,7.1239 9.58508,7.1239 Z M6.8408,0.85126 C3.33474,0.85126 0.68014,3.77024 0.56816,7.1239 L0.56816,9.86818 C0.56816,10.08478 0.7436,10.26022 0.9602,10.26022 L1.35224,10.26022 C1.56884,10.26022 1.74428,10.08478 1.74428,9.86818 L1.74428,7.1239 C1.74428,4.3142 4.0311,2.03228 6.8408,2.03179 C9.6505,2.03228 11.93732,4.3142 11.93732,7.1239 L11.93732,9.86818 C11.93732,10.08478 12.11276,10.26022 12.32936,10.26022 L12.7214,10.26022 C12.938,10.26022 13.11344,10.08478 13.11344,9.86818 L13.11344,7.1239 C13.00146,3.77024 10.34686,0.85126 6.8408,0.85126 Z" id="Shape"></path>
                            </g>
                        </g>
                    </g>
                </g>
            </g>
        </g>
    </g>
</svg>