<?xml version="1.0" encoding="UTF-8"?>
<svg width="575px" height="458px" viewBox="0 0 575 458" version="1.1" xmlns="http://www.w3.org/2000/svg" xmlns:xlink="http://www.w3.org/1999/xlink">
    <!-- Generator: Sketch 56.3 (81716) - https://sketch.com -->
    <title>Slice 1</title>
    <desc>Created with Sketch.</desc>
    <defs>
        <rect id="path-1" x="0" y="0" width="270" height="284"></rect>
        <filter x="-17.6%" y="-16.0%" width="135.2%" height="133.5%" filterUnits="objectBoundingBox" id="filter-2">
            <feOffset dx="0" dy="2" in="SourceAlpha" result="shadowOffsetOuter1"></feOffset>
            <feGaussianBlur stdDeviation="15.5" in="shadowOffsetOuter1" result="shadowBlurOuter1"></feGaussianBlur>
            <feColorMatrix values="0 0 0 0 0   0 0 0 0 0   0 0 0 0 0  0 0 0 0.0112270542 0" type="matrix" in="shadowBlurOuter1"></feColorMatrix>
        </filter>
        <filter x="-18.1%" y="-74.7%" width="136.3%" height="249.4%" filterUnits="objectBoundingBox" id="filter-3">
            <feOffset dx="0" dy="2" in="SourceAlpha" result="shadowOffsetOuter1"></feOffset>
            <feGaussianBlur stdDeviation="15.5" in="shadowOffsetOuter1" result="shadowBlurOuter1"></feGaussianBlur>
            <feColorMatrix values="0 0 0 0 0   0 0 0 0 0   0 0 0 0 0  0 0 0 0.0660238199 0" type="matrix" in="shadowBlurOuter1" result="shadowMatrixOuter1"></feColorMatrix>
            <feMerge>
                <feMergeNode in="shadowMatrixOuter1"></feMergeNode>
                <feMergeNode in="SourceGraphic"></feMergeNode>
            </feMerge>
        </filter>
    </defs>
    <g id="Page-1" stroke="none" stroke-width="1" fill="none" fill-rule="evenodd">
        <g id="complete-your-project" transform="translate(47.000000, 0.000000)">
            <circle id="Oval_7_" fill="#F0F4F7" fill-rule="nonzero" cx="299.19994" cy="229" r="228.8"></circle>
            <g id="Group">
                <path d="M299.2,0.2 C425.56273,0.2 528,102.63724 528,229 C528,355.36276 425.56271,457.79999 299.2,457.79999 C172.83729,457.79999 70.3999,355.36273 70.3999,229 C70.3999,220.86346 70.82464,212.82617 71.65313,204.909 C74.11694,181.36348 36.34106,209.01392 36.3611051,168.81511 C36.37109,161.86165 36.10924,74.74509 39.42547,68.68355 C54.19116,41.69434 92.04937,41.64072 157.0913,49.67153 C196.12347,18.69888 245.5014,0.2 299.2,0.2 Z" id="Path"></path>
                <g id="Product" transform="translate(0.000000, 85.000000)">
                    <g id="Background-List_1_" transform="translate(151.000000, 21.000000)">
                        <g id="Backgorund_1_">
                            <g id="Rectangle" fill="black" fill-opacity="1">
                                <use filter="url(#filter-2)" xlink:href="#path-1"></use>
                            </g>
                            <path d="M15.8963,43.58667 L334.24512,43.63563 C337.73886,43.63579 340.57318,46.46405 340.58081,49.95781 L340.6586,270.14816 C340.6662,273.64743 337.83566,276.49032 334.3364,276.49798 C334.3317,276.49798 334.327,276.49798 334.3223,276.49798 L15.97345,276.44903 C12.47968,276.44888 9.64539,273.6206 9.63776,270.12686 L9.55996927,49.93649 C9.55237,46.43722 12.38288,43.59432 15.88214,43.58667 C15.88684,43.58667 15.89154,43.58667 15.8963,43.58667 Z" id="Path" fill="#FFFFFF" fill-rule="nonzero"></path>
                        </g>
                        <g id="Group" transform="translate(35.000000, 85.000000)">
                            <g id="Group-23_6_" transform="translate(9.000000, 143.600000)" fill-rule="nonzero">
                                <g id="Icon-_x2F_-System-_x2F_-Large-_x2F_-far_x5F_fa-credit-card_8_" fill="#C5CDD6">
                                    <path d="M22.45325,0.71418 L2.46161,0.71418 C1.35327,0.71418 0.4574,1.61001 0.4574,2.71418 L0.4574,17.38084 C0.4574,18.48501 1.35327,19.38084 2.46161,19.38084 L22.45325,19.38084 C23.56159,19.38084 24.4574,18.48501 24.4574,17.38084 L24.4574,2.71418 C24.4574,1.61001 23.56158,0.71418 22.45325,0.71418 Z M2.71161,2.71418 L22.20325,2.71418 C22.34076,2.71418 22.45325,2.82668 22.45325,2.96418 L22.45325,4.71418 L2.46161,4.71418 L2.46161,2.96418 C2.46161,2.82668 2.5741,2.71418 2.71161,2.71418 Z M22.20325,17.38084 L2.71161,17.38084 C2.5741,17.38084 2.46161,17.26834 2.46161,17.13084 L2.46161,10.04751 L22.45325,10.04751 L22.45325,17.13084 C22.45325,17.26833 22.34076,17.38084 22.20325,17.38084 Z M8.4574,13.21416 L8.4574,14.88083 C8.4574,15.15583 8.23242,15.38083 7.9574,15.38083 L4.9574,15.38083 C4.68244,15.38083 4.4574,15.15583 4.4574,14.88083 L4.4574,13.21416 C4.4574,12.93916 4.68244,12.71416 4.9574,12.71416 L7.9574,12.71416 C8.23242,12.71416 8.4574,12.93918 8.4574,13.21416 Z M16.4574,13.21416 L16.4574,14.88083 C16.4574,15.15583 16.23242,15.38083 15.9574,15.38083 L10.29077,15.38083 C10.01575,15.38083 9.79077,15.15583 9.79077,14.88083 L9.79077,13.21416 C9.79077,12.93916 10.01575,12.71416 10.29077,12.71416 L15.9574,12.71416 C16.23242,12.71416 16.4574,12.93918 16.4574,13.21416 Z" id="Shape"></path>
                                </g>
                                <path d="M157.80966,8.04751 L208.18182,8.04751 C209.48092,8.04751 210.53405,9.10064 210.53405,10.39975 L210.53405,10.39975 C210.53405,11.69886 209.48092,12.75198 208.18182,12.75198 L157.80966,12.75198 C156.51056,12.75198 155.45743,11.69886 155.45743,10.39975 L155.45743,10.39975 C155.45743,9.10064 156.51056,8.04751 157.80966,8.04751 Z" id="Rectangle_138_" fill="#C9D0D9"></path>
                                <path d="M228.80966,8.04751 L261.18182,8.04751 C262.48092,8.04751 263.53405,9.10064 263.53405,10.39975 L263.53405,10.39975 C263.53405,11.69886 262.48092,12.75198 261.18182,12.75198 L228.80966,12.75198 C227.51056,12.75198 226.45743,11.69886 226.45743,10.39975 L226.45743,10.39975 C226.45743,9.10064 227.51056,8.04751 228.80966,8.04751 Z" id="Rectangle_137_" fill="#C9D0D9"></path>
                                <g id="Group-22_6_" transform="translate(43.000000, 1.000000)">
                                    <path d="M2.80963,13.04751 L37.18182,13.04751 C38.48089,13.04751 39.53405,14.10064 39.53405,15.39975 L39.53405,15.39975 C39.53405,16.69886 38.48089,17.75198 37.18182,17.75198 L2.80963,17.75198 C1.51056,17.75198 0.4574,16.69886 0.4574,15.39975 L0.4574,15.39975 C0.4574,14.10064 1.51056,13.04751 2.80963,13.04751 Z" id="Rectangle_136_" fill="#C9D0D9"></path>
                                    <path d="M4.4574,0.04751 L66.53406,0.04751 C68.7432,0.04751 70.53406,1.83837 70.53406,4.04751 L70.53406,4.04751 C70.53406,6.25665 68.7432,8.04751 66.53406,8.04751 L4.4574,8.04751 C2.24829,8.04751 0.4574,6.25665 0.4574,4.04751 L0.4574,4.04751 C0.4574,1.83836 2.24829,0.04751 4.4574,0.04751 Z" id="Rectangle_135_" fill="#959EA8"></path>
                                </g>
                            </g>
                            <path d="M0.4574,118.08749 L281.46167,118.08749" id="Path-2_4_" stroke="#F0F4F7" stroke-width="0.88" stroke-linecap="round" stroke-linejoin="round"></path>
                            <g id="Group-23_5_" transform="translate(9.000000, 71.600000)" fill-rule="nonzero">
                                <g id="Icon-_x2F_-System-_x2F_-Large-_x2F_-far_x5F_fa-credit-card_7_" fill="#C5CDD6">
                                    <path d="M22.45325,0.71418 L2.46161,0.71418 C1.35327,0.71418 0.4574,1.61001 0.4574,2.71418 L0.4574,17.38084 C0.4574,18.48501 1.35327,19.38084 2.46161,19.38084 L22.45325,19.38084 C23.56159,19.38084 24.4574,18.48501 24.4574,17.38084 L24.4574,2.71418 C24.4574,1.61001 23.56158,0.71418 22.45325,0.71418 Z M2.71161,2.71418 L22.20325,2.71418 C22.34076,2.71418 22.45325,2.82668 22.45325,2.96418 L22.45325,4.71418 L2.46161,4.71418 L2.46161,2.96418 C2.46161,2.82668 2.5741,2.71418 2.71161,2.71418 Z M22.20325,17.38084 L2.71161,17.38084 C2.5741,17.38084 2.46161,17.26834 2.46161,17.13084 L2.46161,10.04751 L22.45325,10.04751 L22.45325,17.13084 C22.45325,17.26833 22.34076,17.38084 22.20325,17.38084 Z M8.4574,13.21416 L8.4574,14.88083 C8.4574,15.15583 8.23242,15.38083 7.9574,15.38083 L4.9574,15.38083 C4.68244,15.38083 4.4574,15.15583 4.4574,14.88083 L4.4574,13.21416 C4.4574,12.93916 4.68244,12.71416 4.9574,12.71416 L7.9574,12.71416 C8.23242,12.71416 8.4574,12.93918 8.4574,13.21416 Z M16.4574,13.21416 L16.4574,14.88083 C16.4574,15.15583 16.23242,15.38083 15.9574,15.38083 L10.29077,15.38083 C10.01575,15.38083 9.79077,15.15583 9.79077,14.88083 L9.79077,13.21416 C9.79077,12.93916 10.01575,12.71416 10.29077,12.71416 L15.9574,12.71416 C16.23242,12.71416 16.4574,12.93918 16.4574,13.21416 Z" id="Shape"></path>
                                </g>
                                <path d="M157.80966,8.04751 L208.18182,8.04751 C209.48092,8.04751 210.53405,9.10064 210.53405,10.39975 L210.53405,10.39975 C210.53405,11.69886 209.48092,12.75198 208.18182,12.75198 L157.80966,12.75198 C156.51056,12.75198 155.45743,11.69886 155.45743,10.39975 L155.45743,10.39975 C155.45743,9.10064 156.51056,8.04751 157.80966,8.04751 Z" id="Rectangle_134_" fill="#C9D0D9"></path>
                                <path d="M228.80966,8.04751 L261.18182,8.04751 C262.48092,8.04751 263.53405,9.10064 263.53405,10.39975 L263.53405,10.39975 C263.53405,11.69886 262.48092,12.75198 261.18182,12.75198 L228.80966,12.75198 C227.51056,12.75198 226.45743,11.69886 226.45743,10.39975 L226.45743,10.39975 C226.45743,9.10064 227.51056,8.04751 228.80966,8.04751 Z" id="Rectangle_133_" fill="#C9D0D9"></path>
                                <g id="Group-22_5_" transform="translate(43.000000, 1.000000)">
                                    <path d="M2.80963,13.04751 L37.18182,13.04751 C38.48089,13.04751 39.53405,14.10064 39.53405,15.39975 L39.53405,15.39975 C39.53405,16.69886 38.48089,17.75198 37.18182,17.75198 L2.80963,17.75198 C1.51056,17.75198 0.4574,16.69886 0.4574,15.39975 L0.4574,15.39975 C0.4574,14.10064 1.51056,13.04751 2.80963,13.04751 Z" id="Rectangle_132_" fill="#C9D0D9"></path>
                                    <path d="M4.4574,0.04751 L66.53406,0.04751 C68.7432,0.04751 70.53406,1.83837 70.53406,4.04751 L70.53406,4.04751 C70.53406,6.25665 68.7432,8.04751 66.53406,8.04751 L4.4574,8.04751 C2.24829,8.04751 0.4574,6.25665 0.4574,4.04751 L0.4574,4.04751 C0.4574,1.83836 2.24829,0.04751 4.4574,0.04751 Z" id="Rectangle_131_" fill="#959EA8"></path>
                                </g>
                            </g>
                            <path d="M0.4574,46.08751 L281.46167,46.08751" id="Path-2_3_" stroke="#F0F4F7" stroke-width="0.88" stroke-linecap="round" stroke-linejoin="round"></path>
                            <g id="Group-23_4_" transform="translate(9.000000, 0.000000)" fill-rule="nonzero">
                                <g id="Icon-_x2F_-System-_x2F_-Large-_x2F_-far_x5F_fa-credit-card_6_" fill="#C5CDD6">
                                    <path d="M22.45325,0.71418 L2.46161,0.71418 C1.35327,0.71418 0.4574,1.61001 0.4574,2.71418 L0.4574,17.38084 C0.4574,18.48501 1.35327,19.38084 2.46161,19.38084 L22.45325,19.38084 C23.56159,19.38084 24.4574,18.48501 24.4574,17.38084 L24.4574,2.71418 C24.4574,1.61001 23.56158,0.71418 22.45325,0.71418 Z M2.71161,2.71418 L22.20325,2.71418 C22.34076,2.71418 22.45325,2.82668 22.45325,2.96418 L22.45325,4.71418 L2.46161,4.71418 L2.46161,2.96418 C2.46161,2.82668 2.5741,2.71418 2.71161,2.71418 Z M22.20325,17.38084 L2.71161,17.38084 C2.5741,17.38084 2.46161,17.26834 2.46161,17.13084 L2.46161,10.04751 L22.45325,10.04751 L22.45325,17.13084 C22.45325,17.26833 22.34076,17.38084 22.20325,17.38084 Z M8.4574,13.21416 L8.4574,14.88083 C8.4574,15.15583 8.23242,15.38083 7.9574,15.38083 L4.9574,15.38083 C4.68244,15.38083 4.4574,15.15583 4.4574,14.88083 L4.4574,13.21416 C4.4574,12.93916 4.68244,12.71416 4.9574,12.71416 L7.9574,12.71416 C8.23242,12.71416 8.4574,12.93918 8.4574,13.21416 Z M16.4574,13.21416 L16.4574,14.88083 C16.4574,15.15583 16.23242,15.38083 15.9574,15.38083 L10.29077,15.38083 C10.01575,15.38083 9.79077,15.15583 9.79077,14.88083 L9.79077,13.21416 C9.79077,12.93916 10.01575,12.71416 10.29077,12.71416 L15.9574,12.71416 C16.23242,12.71416 16.4574,12.93918 16.4574,13.21416 Z" id="Shape"></path>
                                </g>
                                <path d="M157.80966,8.04751 L208.18182,8.04751 C209.48092,8.04751 210.53405,9.10064 210.53405,10.39975 L210.53405,10.39975 C210.53405,11.69886 209.48092,12.75198 208.18182,12.75198 L157.80966,12.75198 C156.51056,12.75198 155.45743,11.69886 155.45743,10.39975 L155.45743,10.39975 C155.45743,9.10064 156.51056,8.04751 157.80966,8.04751 Z" id="Rectangle_130_" fill="#C9D0D9"></path>
                                <path d="M228.80966,8.04751 L261.18182,8.04751 C262.48092,8.04751 263.53405,9.10064 263.53405,10.39975 L263.53405,10.39975 C263.53405,11.69886 262.48092,12.75198 261.18182,12.75198 L228.80966,12.75198 C227.51056,12.75198 226.45743,11.69886 226.45743,10.39975 L226.45743,10.39975 C226.45743,9.10064 227.51056,8.04751 228.80966,8.04751 Z" id="Rectangle_129_" fill="#C9D0D9"></path>
                                <g id="Group-22_4_" transform="translate(43.000000, 1.000000)">
                                    <path d="M2.80963,13.04751 L37.18182,13.04751 C38.48089,13.04751 39.53405,14.10064 39.53405,15.39975 L39.53405,15.39975 C39.53405,16.69886 38.48089,17.75198 37.18182,17.75198 L2.80963,17.75198 C1.51056,17.75198 0.4574,16.69886 0.4574,15.39975 L0.4574,15.39975 C0.4574,14.10064 1.51056,13.04751 2.80963,13.04751 Z" id="Rectangle_128_" fill="#C9D0D9"></path>
                                    <path d="M4.4574,0.04751 L66.53406,0.04751 C68.7432,0.04751 70.53406,1.83837 70.53406,4.04751 L70.53406,4.04751 C70.53406,6.25665 68.7432,8.04751 66.53406,8.04751 L4.4574,8.04751 C2.24829,8.04751 0.4574,6.25665 0.4574,4.04751 L0.4574,4.04751 C0.4574,1.83836 2.24829,0.04751 4.4574,0.04751 Z" id="Rectangle_127_" fill="#959EA8"></path>
                                </g>
                            </g>
                        </g>
                    </g>
                    <g id="Front_1_" fill-rule="nonzero">
                        <g id="Path" fill="#FFFFFF">
                            <g id="path-1-link" filter="url(#filter-3)">
                                <path d="M6.6322,0.54079 L342.97699,0.5562 C346.47073,0.55636 349.30505,3.38462 349.31268,6.87838 L349.46826,78.19037 C349.47586,81.68964 346.64532,84.53255 343.14606,84.54021 C343.14136,84.54021 343.13666,84.54021 343.13196,84.54021 L6.78717,84.5248 C3.2934,84.52463 0.45911,81.69637 0.45148,78.20261 L0.295869282,6.89061 C0.28827,3.39134 3.11878,0.54844 6.61804,0.54079 C6.6228,0.54079 6.6275,0.54079 6.6322,0.54079 Z" id="path-1"></path>
                            </g>
                        </g>
                        <g id="Content_1_" transform="translate(31.000000, 31.000000)">
                            <g id="Button_2_" transform="translate(134.000000, 1.000000)">
                                <path d="M5.98444,0.02425 L81.69968,0.02425 C84.84903,0.02425 87.4021,2.5773 87.4021,5.72665 L87.4021,15.70585 C87.4021,18.8552 84.84903,21.40825 81.69968,21.40825 L5.98444,21.40825 C2.83509,21.40825 0.28205,18.8552 0.28205,15.70585 L0.28205,5.72665 C0.28205,2.57731 2.83508,0.02425 5.98444,0.02425 Z" id="Rectangle_126_" fill="#1171BB"></path>
                                <g id="Group" transform="translate(11.000000, 6.000000)" fill="#FFFFFF">
                                    <path d="M3.06525,5.29469 L1.65216,5.29469 L1.65216,8.10133 L0.38361,8.10133 L0.38361,0.80445 L2.95002,0.80445 C3.79182,0.80445 4.44221,0.99293 4.89924,1.37086 C5.35725,1.74879 5.58576,2.29566 5.58576,3.01148 C5.58576,3.49976 5.46857,3.90796 5.23322,4.23804 C4.99689,4.56713 4.66877,4.82006 4.24787,4.99781 L5.88654,8.0359 L5.88654,8.10133 L4.52912,8.10133 L3.06525,5.29469 Z M1.65215,4.27224 L2.95489,4.27224 C3.38262,4.27224 3.71661,4.16482 3.95782,3.949 C4.19805,3.73318 4.31817,3.43826 4.31817,3.06423 C4.31817,2.67361 4.20684,2.37087 3.98516,2.157 C3.7625,1.94313 3.43145,1.83278 2.99004,1.82692 L1.65215,1.82692 L1.65215,4.27224 L1.65215,4.27224 Z" id="Shape"></path>
                                    <path d="M9.05939,8.20193 C8.28791,8.20193 7.66193,7.95877 7.18244,7.47244 C6.70295,6.98611 6.46369,6.33865 6.46369,5.53006 L6.46369,5.37967 C6.46369,4.83865 6.56818,4.35526 6.77619,3.9285 C6.98517,3.50272 7.27814,3.17166 7.65607,2.93436 C8.034,2.69706 8.4549,2.57791 8.91877,2.57791 C9.65803,2.57791 10.22834,2.81425 10.63068,3.28494 C11.03302,3.75563 11.23517,4.42264 11.23517,5.28494 L11.23517,5.77615 L7.69122,5.77615 C7.72833,6.22342 7.87774,6.57791 8.13946,6.83865 C8.40216,7.09939 8.73223,7.22927 9.12969,7.22927 C9.68731,7.22927 10.14239,7.00368 10.49297,6.55251 L11.14922,7.17946 C10.93242,7.50368 10.64238,7.75466 10.28008,7.93337 C9.91778,8.11208 9.51056,8.20193 9.05939,8.20193 Z M8.91388,3.55545 C8.5799,3.55545 8.31036,3.67264 8.10529,3.90604 C7.89924,4.14042 7.76838,4.46561 7.71174,4.88358 L10.03205,4.88358 L10.03205,4.79374 C10.00471,4.38554 9.89631,4.07792 9.70588,3.86894 C9.51545,3.65996 9.25177,3.55545 8.91388,3.55545 Z" id="Shape"></path>
                                    <polygon id="Path" points="13.47443 8.10133 12.25666 8.10133 12.25666 0.4031 13.47443 0.4031"></polygon>
                                    <path d="M17.18829,8.20193 C16.41681,8.20193 15.79083,7.95877 15.31134,7.47244 C14.83185,6.98611 14.59259,6.33865 14.59259,5.53006 L14.59259,5.37967 C14.59259,4.83865 14.69708,4.35526 14.90509,3.9285 C15.11407,3.50272 15.40704,3.17166 15.78497,2.93436 C16.1629,2.69706 16.5838,2.57791 17.04767,2.57791 C17.78693,2.57791 18.35724,2.81425 18.75958,3.28494 C19.16192,3.75563 19.36407,4.42264 19.36407,5.28494 L19.36407,5.77615 L15.82012,5.77615 C15.85723,6.22342 16.00664,6.57791 16.26836,6.83865 C16.53106,7.09939 16.86113,7.22927 17.25859,7.22927 C17.81621,7.22927 18.27129,7.00368 18.62187,6.55251 L19.27812,7.17946 C19.06132,7.50368 18.77128,7.75466 18.40898,7.93337 C18.04668,8.11208 17.63947,8.20193 17.18829,8.20193 Z M17.04279,3.55545 C16.70881,3.55545 16.43927,3.67264 16.2342,3.90604 C16.02815,4.14042 15.89729,4.46561 15.84065,4.88358 L18.16096,4.88358 L18.16096,4.79374 C18.13362,4.38554 18.02522,4.07792 17.83479,3.86894 C17.64436,3.65996 17.38068,3.55545 17.04279,3.55545 Z" id="Shape"></path>
                                    <path d="M23.54865,8.10133 C23.49494,7.99781 23.44904,7.82887 23.40803,7.59547 C23.02131,7.99977 22.5467,8.20192 21.98518,8.20192 C21.44026,8.20192 20.99592,8.04665 20.65217,7.73512 C20.30744,7.42457 20.13557,7.04078 20.13557,6.58278 C20.13557,6.00466 20.35041,5.5613 20.7801,5.25173 C21.20881,4.94314 21.82307,4.78884 22.6219,4.78884 L23.36799,4.78884 L23.36799,4.4324 C23.36799,4.15213 23.28987,3.92752 23.13264,3.75857 C22.97541,3.58962 22.73713,3.50564 22.41584,3.50564 C22.1385,3.50564 21.91193,3.57498 21.7342,3.71365 C21.55744,3.85232 21.46858,4.0281 21.46858,4.24197 L20.25081,4.24197 C20.25081,3.94509 20.34944,3.66677 20.54671,3.40799 C20.74398,3.14921 21.01155,2.94608 21.3514,2.79861 C21.69027,2.65213 22.0682,2.57791 22.48617,2.57791 C23.12094,2.57791 23.62679,2.73807 24.00472,3.05643 C24.38265,3.37577 24.57601,3.82498 24.58675,4.40213 L24.58675,6.84842 C24.58675,7.33669 24.65511,7.72537 24.79183,8.01639 L24.79183,8.10135 C24.79183,8.10135 23.54865,8.10135 23.54865,8.10133 Z M22.21075,7.22439 C22.45098,7.22439 22.67755,7.1658 22.88946,7.04861 C23.10235,6.9324 23.26153,6.77517 23.36798,6.57791 L23.36798,5.55545 L22.71173,5.55545 C22.26056,5.55545 21.92169,5.63357 21.69415,5.79079 C21.46759,5.94802 21.35333,6.1697 21.35333,6.45778 C21.35333,6.69118 21.43145,6.8777 21.58673,7.01637 C21.74201,7.15504 21.95001,7.22439 22.21075,7.22439 Z" id="Shape"></path>
                                    <path d="M28.90118,6.62771 C28.90118,6.41091 28.81231,6.2449 28.6336,6.13162 C28.45489,6.01835 28.15801,5.91775 27.74395,5.83085 C27.32989,5.74395 26.98321,5.63358 26.70586,5.4998 C26.09844,5.20585 25.79375,4.78007 25.79375,4.22246 C25.79375,3.75469 25.99102,3.36308 26.38555,3.04962 C26.78008,2.73517 27.28106,2.57794 27.88946,2.57794 C28.53692,2.57794 29.06134,2.73907 29.46075,3.05939 C29.85919,3.38068 30.05938,3.79573 30.05938,4.30744 L28.84161,4.30744 C28.84161,4.07404 28.7547,3.87873 28.58087,3.72346 C28.40704,3.56819 28.17657,3.49006 27.88946,3.49006 C27.62188,3.49006 27.40411,3.55256 27.23516,3.67561 C27.06621,3.79963 26.98223,3.96467 26.98223,4.1717 C26.98223,4.3592 27.06035,4.50471 27.21758,4.60822 C27.37481,4.71173 27.69219,4.81623 28.16973,4.9217 C28.64727,5.02619 29.02227,5.15217 29.29473,5.29768 C29.56719,5.44221 29.76934,5.61702 29.90118,5.82113 C30.03302,6.02522 30.09942,6.27229 30.09942,6.56233 C30.09942,7.05061 29.89727,7.44612 29.49297,7.74788 C29.08867,8.05061 28.55938,8.20198 27.9041,8.20198 C27.45976,8.20198 27.06426,8.12189 26.7166,7.96077 C26.36894,7.80061 26.09844,7.57991 25.9041,7.29964 C25.71074,7.01839 25.61406,6.71663 25.61406,6.39241 L26.79668,6.39241 C26.81328,6.67952 26.92168,6.9012 27.12188,7.05647 C27.32305,7.21174 27.58868,7.28987 27.91876,7.28987 C28.24005,7.28987 28.48419,7.22835 28.65118,7.10628 C28.81817,6.98421 28.90118,6.82498 28.90118,6.62771 Z" id="Path"></path>
                                    <path d="M33.54767,8.20193 C32.77521,8.20193 32.15021,7.95877 31.67072,7.47244 C31.19123,6.98611 30.95099,6.33865 30.95099,5.53006 L30.95099,5.37967 C30.95099,4.83865 31.05548,4.35526 31.26447,3.9285 C31.47345,3.50272 31.76642,3.17166 32.14435,2.93436 C32.5213,2.69706 32.9422,2.57791 33.40705,2.57791 C34.14533,2.57791 34.71564,2.81425 35.11896,3.28494 C35.5213,3.75564 35.72248,4.42264 35.72248,5.28494 L35.72248,5.77615 L32.17951,5.77615 C32.21564,6.22342 32.36506,6.57791 32.62775,6.83865 C32.88947,7.09939 33.21955,7.22927 33.61798,7.22927 C34.1756,7.22927 34.6297,7.00368 34.98028,6.55251 L35.63751,7.17946 C35.41974,7.50368 35.13067,7.75466 34.76739,7.93337 C34.40509,8.11209 33.99884,8.20193 33.54767,8.20193 Z M33.40216,3.55545 C33.06818,3.55545 32.79767,3.67264 32.59259,3.90604 C32.38751,4.14042 32.25568,4.46561 32.19904,4.88358 L34.51935,4.88358 L34.51935,4.79374 C34.49298,4.38554 34.38458,4.07792 34.19415,3.86894 C34.00372,3.65996 33.73907,3.55545 33.40216,3.55545 Z" id="Shape"></path>
                                    <polygon id="Path" points="43.54575 5.00857 40.60923 5.00857 40.60923 8.10134 39.34068 8.10134 39.34068 0.80446 43.9774 0.80446 43.9774 1.82692 40.60924 1.82692 40.60924 3.99684 43.54576 3.99684 43.54576 5.00857"></polygon>
                                    <path d="M48.03696,7.57008 C47.67954,7.99099 47.17173,8.20192 46.51352,8.20192 C45.92465,8.20192 45.48032,8.02907 45.17758,7.68532 C44.87484,7.34157 44.72348,6.84352 44.72348,6.19216 L44.72348,2.6785 L45.94223,2.6785 L45.94223,6.17655 C45.94223,6.86503 46.22739,7.20878 46.79868,7.20878 C47.39048,7.20878 47.78989,6.99687 47.99692,6.57304 L47.99692,2.6785 L49.21469,2.6785 L49.21469,8.10134 L48.06723,8.10134 L48.03696,7.57008 Z" id="Path"></path>
                                    <path d="M51.58578,2.67849 L51.61996,3.30544 C52.02133,2.82009 52.54769,2.5779 53.19906,2.5779 C54.32797,2.5779 54.90316,3.22438 54.92367,4.51833 L54.92367,8.10136 L53.70492,8.10136 L53.70492,4.58767 C53.70492,4.24392 53.6307,3.98904 53.48226,3.82401 C53.33382,3.65799 53.09066,3.57596 52.75277,3.57596 C52.26156,3.57596 51.89632,3.79764 51.65511,4.24198 L51.65511,8.10136 L50.43734,8.10136 L50.43734,2.6785 C50.43734,2.6785 51.58578,2.6785 51.58578,2.67849 Z" id="Path"></path>
                                    <path d="M55.93539,5.34939 C55.93539,4.51443 56.12973,3.84353 56.51742,3.33766 C56.90414,2.8318 57.42367,2.57789 58.07601,2.57789 C58.65023,2.57789 59.11507,2.77906 59.46859,3.17945 L59.46859,0.4031 L60.68636,0.4031 L60.68636,8.10133 L59.58382,8.10133 L59.52425,7.53981 C59.15999,7.98122 58.67366,8.20192 58.06527,8.20192 C57.4305,8.20192 56.91683,7.94606 56.52425,7.43434 C56.13168,6.92361 55.93539,6.22829 55.93539,5.34939 Z M57.15317,5.45486 C57.15317,6.00662 57.25962,6.43631 57.47153,6.74588 C57.68344,7.05447 57.9852,7.20877 58.3768,7.20877 C58.87387,7.20877 59.23813,6.98709 59.4686,6.54275 L59.4686,4.22732 C59.24497,3.79275 58.88462,3.57595 58.38657,3.57595 C57.99204,3.57595 57.68833,3.7322 57.47446,4.0447 C57.26059,4.35623 57.15317,4.82693 57.15317,5.45486 Z" id="Shape"></path>
                                    <path d="M64.99692,6.62771 C64.99692,6.41091 64.90708,6.2449 64.72837,6.13162 C64.54966,6.01835 64.25376,5.91775 63.83872,5.83085 C63.42466,5.74394 63.07895,5.63358 62.80161,5.4998 C62.19321,5.20585 61.8895,4.78007 61.8895,4.22246 C61.8895,3.75469 62.08677,3.36308 62.4813,3.04962 C62.87485,2.73517 63.37583,2.57794 63.98423,2.57794 C64.63267,2.57794 65.15611,2.73907 65.55552,3.05939 C65.95493,3.38068 66.15415,3.79573 66.15415,4.30744 L64.93638,4.30744 C64.93638,4.07404 64.84947,3.87873 64.67564,3.72346 C64.50181,3.56819 64.27134,3.49006 63.98423,3.49006 C63.71665,3.49006 63.49888,3.55256 63.32993,3.67561 C63.16196,3.79963 63.077,3.96467 63.077,4.1717 C63.077,4.3592 63.1561,4.50471 63.31235,4.60822 C63.46958,4.71174 63.78696,4.81623 64.26547,4.9217 C64.74301,5.02619 65.11801,5.15217 65.39047,5.29768 C65.66293,5.44221 65.86508,5.61702 65.99692,5.82113 C66.12876,6.02522 66.19419,6.27229 66.19419,6.56233 C66.19419,7.05061 65.99204,7.44612 65.58774,7.74788 C65.18344,8.05061 64.65415,8.20198 63.99985,8.20198 C63.55454,8.20198 63.15903,8.12189 62.81137,7.96077 C62.46371,7.80061 62.19321,7.57991 61.99985,7.29964 C61.80551,7.01839 61.70883,6.71663 61.70883,6.39241 L62.89145,6.39241 C62.90805,6.67952 63.01743,6.9012 63.21762,7.05647 C63.41781,7.21174 63.68344,7.28987 64.0145,7.28987 C64.33481,7.28987 64.57895,7.22835 64.74595,7.10628 C64.91295,6.98421 64.99692,6.82498 64.99692,6.62771 Z" id="Path"></path>
                                </g>
                            </g>
                            <g id="Name_3_" transform="translate(43.000000, 0.000000)">
                                <g id="Group" transform="translate(1.000000, 0.000000)" fill="#19222B">
                                    <polygon id="Path" points="4.43243 5.52908 1.3504 5.52908 1.3504 7.83963 4.95392 7.83963 4.95392 8.88065 0.04572 8.88065 0.04572 1.37284 4.91779 1.37284 4.91779 2.42557 1.35041 2.42557 1.35041 4.49784 4.43244 4.49784 4.43244 5.52908"></polygon>
                                    <path d="M7.07306,3.30252 L7.10919,3.88454 C7.50079,3.42752 8.03692,3.19899 8.71759,3.19899 C9.46368,3.19899 9.97345,3.48415 10.24884,4.05446 C10.65509,3.48415 11.2254,3.19899 11.96173,3.19899 C12.57696,3.19899 13.034,3.3689 13.33478,3.70876 C13.63556,4.05056 13.78986,4.55251 13.79669,5.21462 L13.79669,8.88064 L12.54376,8.88064 L12.54376,5.25173 C12.54376,4.89626 12.46564,4.63846 12.31134,4.47243 C12.15704,4.30837 11.90118,4.22438 11.54376,4.22438 C11.2586,4.22438 11.02521,4.3025 10.84454,4.45485 C10.66485,4.60719 10.5379,4.80837 10.46563,5.05446 L10.47149,8.88064 L9.21758,8.88064 L9.21758,5.21071 C9.2,4.55251 8.86602,4.22438 8.21172,4.22438 C7.70977,4.22438 7.3543,4.42946 7.14531,4.83766 L7.14531,8.88064 L5.8914,8.88064 L5.8914,3.30251 C5.8914,3.30252 7.07306,3.30252 7.07306,3.30252 Z" id="Path"></path>
                                    <path d="M15.08575,1.85329 C15.08575,1.65993 15.14727,1.50174 15.26837,1.37282 C15.39142,1.24587 15.56525,1.18337 15.79181,1.18337 C16.01837,1.18337 16.19415,1.24588 16.31818,1.37282 C16.4422,1.50173 16.50373,1.65993 16.50373,1.85329 C16.50373,2.04274 16.44221,2.19899 16.31818,2.32399 C16.19416,2.45094 16.01838,2.51344 15.79181,2.51344 C15.56524,2.51344 15.39142,2.45094 15.26837,2.32399 C15.14728,2.199 15.08575,2.04275 15.08575,1.85329 Z M16.41583,8.88064 L15.1629,8.88064 L15.1629,3.30252 L16.41583,3.30252 L16.41583,8.88064 Z" id="Shape"></path>
                                    <polygon id="Path" points="19.11212 8.88064 17.86017 8.88064 17.86017 0.96072 19.11212 0.96072"></polygon>
                                    <path d="M22.42853,7.08767 L23.5633,3.30249 L24.89826,3.30249 L22.68049,9.72634 C22.34065,10.66579 21.76252,11.13454 20.94807,11.13454 C20.76643,11.13454 20.56526,11.10329 20.34455,11.04079 L20.34455,10.06618 L20.58283,10.0818 C20.89924,10.0818 21.13654,10.02516 21.2967,9.90992 C21.45588,9.79469 21.58283,9.60133 21.67561,9.32984 L21.85627,8.85132 L19.89729,3.30249 L21.2469,3.30249 L22.42853,7.08767 Z" id="Path"></path>
                                    <path d="M30.05939,1.37283 L32.22541,7.12869 L34.38557,1.37283 L36.07209,1.37283 L36.07209,8.88065 L34.77229,8.88065 L34.77229,6.40603 L34.9012,3.09548 L32.6844,8.88065 L31.75081,8.88065 L29.5389,3.10134 L29.66781,6.40604 L29.66781,8.88065 L28.36801,8.88065 L28.36801,1.37283 C28.36801,1.37283 30.05939,1.37283 30.05939,1.37283 Z" id="Path"></path>
                                    <path d="M37.49493,1.85329 C37.49493,1.65993 37.55548,1.50174 37.67852,1.37282 C37.79961,1.24587 37.97442,1.18337 38.20196,1.18337 C38.42852,1.18337 38.60333,1.24588 38.72735,1.37282 C38.8504,1.50173 38.9129,1.65993 38.9129,1.85329 C38.9129,2.04274 38.8504,2.19899 38.72735,2.32399 C38.60333,2.45094 38.42852,2.51344 38.20196,2.51344 C37.97442,2.51344 37.79962,2.45094 37.67852,2.32399 C37.55548,2.199 37.49493,2.04275 37.49493,1.85329 Z M38.82501,8.88064 L37.57208,8.88064 L37.57208,3.30252 L38.82501,3.30252 L38.82501,8.88064 Z" id="Shape"></path>
                                    <polygon id="Path" points="41.52228 8.88064 40.26837 8.88064 40.26837 0.96072 41.52228 0.96072"></polygon>
                                    <polygon id="Path" points="44.21857 8.88064 42.96564 8.88064 42.96564 0.96072 44.21857 0.96072"></polygon>
                                    <path d="M48.03989,8.98416 C47.24494,8.98416 46.60236,8.73416 46.10822,8.23416 C45.61603,7.73416 45.36799,7.06814 45.36799,6.23611 L45.36799,6.08181 C45.36799,5.52517 45.47541,5.02712 45.69026,4.58767 C45.9051,4.15017 46.20784,3.80837 46.59651,3.56423 C46.98421,3.32009 47.41682,3.199 47.89534,3.199 C48.65514,3.199 49.24205,3.44119 49.65611,3.92555 C50.07017,4.40993 50.27818,5.09547 50.27818,5.98414 L50.27818,6.48805 L46.63167,6.48805 C46.66976,6.949 46.82308,7.31422 47.09358,7.5818 C47.36311,7.84939 47.70296,7.98414 48.11217,7.98414 C48.68639,7.98414 49.15319,7.75172 49.51451,7.28687 L50.19029,7.93139 C49.96568,8.26537 49.66881,8.52514 49.29576,8.70873 C48.9227,8.89233 48.50375,8.98416 48.03989,8.98416 Z M47.88947,4.20486 C47.54572,4.20486 47.26838,4.324 47.05744,4.56619 C46.8465,4.80642 46.71174,5.14042 46.65314,5.5701 L49.03989,5.5701 L49.03989,5.4783 C49.01255,5.05839 48.90122,4.74197 48.70493,4.52714 C48.50864,4.31229 48.23715,4.20486 47.88947,4.20486 Z" id="Shape"></path>
                                    <path d="M54.17075,4.44704 C54.00473,4.4197 53.83481,4.40602 53.66001,4.40602 C53.08579,4.40602 52.69907,4.62477 52.49985,5.06618 L52.49985,8.88063 L51.24692,8.88063 L51.24692,3.30251 L52.44223,3.30251 L52.47348,3.92556 C52.77621,3.44118 53.19614,3.199 53.73129,3.199 C53.91098,3.199 54.05844,3.22244 54.17563,3.27127 L54.17075,4.44704 Z" id="Path"></path>
                                </g>
                                <path d="M2.63428,18.88101 L37.00647,18.88101 C38.30554,18.88101 39.3587,19.93414 39.3587,21.23326 L39.3587,21.23326 C39.3587,22.53236 38.30554,23.58549 37.00647,23.58549 L2.63428,23.58549 C1.33521,23.58549 0.28205,22.53236 0.28205,21.23326 L0.28205,21.23326 C0.28205,19.93414 1.33521,18.88101 2.63428,18.88101 Z" id="Rectangle_125_" fill="#C9D0D9"></path>
                            </g>
                            <g id="Icon-_x2F_-System-_x2F_-Large-_x2F_-far_x5F_fa-credit-card_5_" transform="translate(0.000000, 2.000000)" fill="#4DB1FF">
                                <path d="M22.27789,0.38292 L2.28619,0.38292 C1.17791,0.38292 0.28204,1.27875 0.28204,2.38292 L0.28204,17.04959 C0.28204,18.15376 1.17791,19.04959 2.28619,19.04959 L22.27789,19.04959 C23.38623,19.04959 24.28204,18.15376 24.28204,17.04959 L24.28204,2.38292 C24.28204,1.27875 23.38623,0.38292 22.27789,0.38292 Z M2.53619,2.38292 L22.02789,2.38292 C22.1654,2.38292 22.27789,2.49542 22.27789,2.63292 L22.27789,4.38292 L2.28619,4.38292 L2.28619,2.63292 C2.28619,2.49541 2.39874,2.38292 2.53619,2.38292 Z M22.02789,17.04959 L2.53619,17.04959 C2.39874,17.04959 2.28619,16.93709 2.28619,16.79959 L2.28619,9.71625 L22.27789,9.71625 L22.27789,16.79959 C22.27789,16.93709 22.16541,17.04959 22.02789,17.04959 Z M8.28204,12.88292 L8.28204,14.54959 C8.28204,14.82458 8.05706,15.04959 7.78204,15.04959 L4.78204,15.04959 C4.50708,15.04959 4.28204,14.82458 4.28204,14.54959 L4.28204,12.88292 C4.28204,12.60791 4.50708,12.38292 4.78204,12.38292 L7.78204,12.38292 C8.05707,12.38292 8.28204,12.60792 8.28204,12.88292 Z M16.28204,12.88292 L16.28204,14.54959 C16.28204,14.82458 16.05706,15.04959 15.78204,15.04959 L10.11541,15.04959 C9.84039,15.04959 9.61541,14.82458 9.61541,14.54959 L9.61541,12.88292 C9.61541,12.60791 9.84039,12.38292 10.11541,12.38292 L15.78204,12.38292 C16.05707,12.38292 16.28204,12.60792 16.28204,12.88292 Z" id="Shape"></path>
                            </g>
                            <path d="M251.80966,10.03772 L292.18182,10.03772 C293.48092,10.03772 294.53405,11.09085 294.53405,12.38996 L294.53405,12.38996 C294.53405,13.68907 293.48092,14.74219 292.18182,14.74219 L251.80966,14.74219 C250.51056,14.74219 249.45743,13.68907 249.45743,12.38996 L249.45743,12.38996 C249.45743,11.09085 250.51056,10.03772 251.80966,10.03772 Z" id="Rectangle_1_" fill="#C9D0D9"></path>
                        </g>
                    </g>
                </g>
            </g>
        </g>
    </g>
</svg>