<?xml version="1.0" encoding="UTF-8"?>
<svg width="512px" height="458px" viewBox="0 0 512 458" version="1.1" xmlns="http://www.w3.org/2000/svg" xmlns:xlink="http://www.w3.org/1999/xlink">
    <title>home-submit-your-job</title>
    <defs>
        <circle id="path-1" cx="228.8" cy="228.8" r="228.8"></circle>
        <linearGradient x1="131.311905%" y1="52.5855718%" x2="76.6568447%" y2="52.5855718%" id="linearGradient-3">
            <stop stop-color="#F0F4F7" offset="0%"></stop>
            <stop stop-color="#FFFFFF" offset="100%"></stop>
        </linearGradient>
        <filter x="-12.5%" y="-26.2%" width="125.0%" height="152.4%" filterUnits="objectBoundingBox" id="filter-4">
            <feOffset dx="0" dy="2" in="SourceAlpha" result="shadowOffsetOuter1"></feOffset>
            <feGaussianBlur stdDeviation="10" in="shadowOffsetOuter1" result="shadowBlurOuter1"></feGaussianBlur>
            <feColorMatrix values="0 0 0 0 0   0 0 0 0 0   0 0 0 0 0  0 0 0 0.1 0" type="matrix" in="shadowBlurOuter1" result="shadowMatrixOuter1"></feColorMatrix>
            <feMerge>
                <feMergeNode in="shadowMatrixOuter1"></feMergeNode>
                <feMergeNode in="SourceGraphic"></feMergeNode>
            </feMerge>
        </filter>
    </defs>
    <g id="Page-1" stroke="none" stroke-width="1" fill="none" fill-rule="evenodd">
        <g id="home-submit-your-job" transform="translate(32.000000, 0.000000)">
            <circle id="path-1" fill="#F0F4F7" fill-rule="nonzero" cx="250.4" cy="228.8" r="228.8"></circle>
            <g id="path-4" transform="translate(21.600000, 0.000000)">
                <mask id="mask-2" fill="white">
                    <use xlink:href="#path-1"></use>
                </mask>
                <g id="path-1" fill-rule="nonzero"></g>
                <path d="M359.232687,40.7944445 C418.682553,82.1166209 457.6,150.913482 457.6,228.8 C457.6,251.410479 454.320261,273.254934 448.21057,293.883578 L175.2,293.8 C171.7,293.8 168.9,291.1 168.9,287.6 L168.6,47 C168.7,43.5 171.5,40.8 175,40.8 L359.232687,40.7944445 Z" id="Path" fill="url(#linearGradient-3)" fill-rule="nonzero" mask="url(#mask-2)"></path>
            </g>
            <path d="M321.8,262.1 L376.4,262.1 C378.3,262.1 379.9,263.7 379.9,265.6 L379.9,274 C379.9,275.9 378.3,277.5 376.4,277.5 L321.8,277.5 C319.9,277.5 318.3,275.9 318.3,274 L318.3,265.6 C318.3,263.7 319.9,262.1 321.8,262.1 Z" id="Rectangle" fill="#F0F4F7" fill-rule="nonzero"></path>
            <path d="M394,262.1 L448.6,262.1 C450.5,262.1 452.1,263.7 452.1,265.6 L452.1,274 C452.1,275.9 450.5,277.5 448.6,277.5 L394,277.5 C392.1,277.5 390.5,275.9 390.5,274 L390.5,265.6 C390.5,263.7 392.1,262.1 394,262.1 Z" id="Rectangle-2" fill="#F0F4F7" fill-rule="nonzero"></path>
            <g id="Path" transform="translate(0.000000, 253.000000)" fill="#FFFFFF" fill-rule="nonzero">
                <g id="path-6-link" filter="url(#filter-4)">
                    <path d="M7.2,0.9 L337.5,0.9 C341,0.9 343.8,3.7 343.8,7.2 L344,157.3 C344,160.8 341.2,163.6 337.7,163.6 C337.7,163.6 337.7,163.6 337.7,163.6 L337.7,163.6 L7.4,163.6 C3.9,163.6 1.1,160.8 1.1,157.3 L0.9,7.2 C0.9,3.8 3.8,0.9 7.2,0.9 L7.2,0.9 Z" id="path-6"></path>
                </g>
            </g>
            <path d="M43.3,324.7 L302,324.7 C305.9,324.7 309,327.9 309,331.7 L309,373.9 C309,377.8 305.8,380.9 302,380.9 L43.3,380.9 C39.4,380.9 36.3,377.7 36.3,373.9 L36.3,331.7 C36.3,327.8 39.5,324.7 43.3,324.7 Z" id="Rectangle-3" fill="#F0F4F7" fill-rule="nonzero"></path>
            <g id="Group-7" transform="translate(269.000000, 344.000000)" fill-rule="nonzero">
                <circle id="Oval" fill="#30A165" cx="9.3" cy="8.8" r="8.8"></circle>
                <path d="M11.9,6.2 L8,10.1 L6.6,8.6 C6.5,8.5 6.4,8.5 6.4,8.6 L6,9 C5.9,9.1 5.9,9.2 6,9.3 L8,11.3 C8.1,11.4 8.2,11.4 8.3,11.3 L12.8,6.8 C12.9,6.7 12.9,6.6 12.8,6.6 L12.4,6.2 C12.1,6.1 12,6.1 11.9,6.2 C11.9,6.2 11.9,6.2 11.9,6.2 Z" id="Icon-_-System-_-Large-_-far_fa-check" fill="#FFFFFF"></path>
            </g>
            <g id="Final-Script.doc" transform="translate(76.000000, 349.000000)" fill="#19222B" fill-rule="nonzero">
                <g id="Group">
                    <polygon id="Path" points="5 5.3 2 5.3 2 8.5 0.7 8.5 0.7 1 5.5 1 5.5 2 2 2 2 4.2 5 4.2"></polygon>
                    <path d="M6.4,1.5 C6.4,1.3 6.5,1.2 6.6,1 C6.7,0.9 6.9,0.8 7.1,0.8 C7.3,0.8 7.5,0.9 7.6,1 C7.9,1.3 7.9,1.7 7.6,2 C7.6,2 7.6,2 7.6,2 C7.5,2.1 7.3,2.2 7.1,2.2 C6.9,2.2 6.7,2.1 6.6,2 C6.4,1.8 6.3,1.7 6.4,1.5 Z M7.7,8.5 L6.4,8.5 L6.4,2.9 L7.7,2.9 L7.7,8.5 Z" id="Shape"></path>
                    <path d="M10.2,2.9 L10.2,3.5 C10.6,3 11.2,2.7 11.8,2.7 C13,2.7 13.6,3.4 13.6,4.7 L13.6,8.4 L12.4,8.4 L12.4,4.8 C12.4,4.5 12.3,4.2 12.2,4 C12,3.8 11.7,3.7 11.4,3.8 C10.9,3.8 10.5,4 10.3,4.5 L10.3,8.5 L9,8.5 L9,2.9 L10.2,2.9 Z" id="Path"></path>
                    <path d="M18.3,8.5 C18.2,8.3 18.2,8.2 18.2,8 C17.8,8.4 17.3,8.6 16.7,8.6 C16.2,8.6 15.7,8.4 15.3,8.1 C15,7.8 14.8,7.4 14.8,6.9 C14.8,6.4 15,5.8 15.5,5.5 C16.1,5.1 16.7,5 17.4,5 L18.2,5 L18.2,4.6 C18.2,4.3 18.1,4.1 18,3.9 C17.8,3.7 17.5,3.6 17.3,3.6 C17,3.6 16.8,3.7 16.6,3.8 C16.4,3.9 16.3,4.1 16.3,4.3 L15.1,4.3 C15.1,4 15.2,3.7 15.4,3.4 C15.6,3.1 15.9,2.9 16.2,2.7 C16.6,2.5 17,2.5 17.4,2.5 C18,2.5 18.5,2.6 19,3 C19.4,3.3 19.6,3.9 19.6,4.4 L19.6,6.9 C19.6,7.3 19.7,7.7 19.8,8.1 L19.8,8.2 L18.3,8.5 Z M16.9,7.6 C17.1,7.6 17.4,7.5 17.6,7.4 C17.8,7.3 18,7.1 18.1,6.9 L18.1,5.9 L17.4,5.9 C17,5.9 16.7,6 16.3,6.1 C16.1,6.2 15.9,6.5 15.9,6.8 C15.9,7 16,7.2 16.1,7.4 C16.4,7.5 16.6,7.6 16.9,7.6 L16.9,7.6 Z" id="Shape"></path>
                    <polygon id="Path" points="22 8.5 20.8 8.5 20.8 0.6 22 0.6"></polygon>
                    <polygon id="Path" points="25.8 5.8 23.1 5.8 23.1 4.8 25.8 4.8"></polygon>
                    <path d="M30.8,6.6 C30.8,6.3 30.7,6 30.5,5.8 C30.1,5.6 29.7,5.4 29.2,5.3 C28.7,5.2 28.2,5 27.8,4.7 C27.2,4.4 26.8,3.7 26.8,3 C26.8,2.4 27.1,1.9 27.5,1.5 C28.1,1.1 28.7,0.9 29.4,0.9 C29.9,0.9 30.4,1 30.8,1.2 C31.2,1.4 31.6,1.7 31.8,2 C32,2.4 32.2,2.8 32.2,3.2 L30.9,3.2 C30.9,2.9 30.8,2.5 30.5,2.3 C30.2,2.1 29.8,1.9 29.4,2 C29,2 28.7,2.1 28.4,2.3 C28.2,2.5 28,2.8 28,3.1 C28,3.4 28.1,3.6 28.4,3.8 C28.8,4 29.2,4.2 29.7,4.3 C30.2,4.4 30.7,4.6 31.1,4.9 C31.4,5.1 31.7,5.3 31.9,5.7 C32.1,6 32.2,6.4 32.1,6.7 C32.1,7.3 31.8,7.8 31.4,8.2 C30.8,8.6 30.1,8.8 29.4,8.8 C28.9,8.8 28.4,8.7 27.9,8.5 C27.5,8.3 27.1,8 26.8,7.7 C26.5,7.3 26.4,6.9 26.4,6.5 L27.7,6.5 C27.7,6.9 27.8,7.3 28.1,7.5 C28.4,7.8 28.9,7.9 29.3,7.9 C29.7,7.9 30,7.8 30.3,7.6 C30.7,7.1 30.8,6.8 30.8,6.6 Z" id="Path"></path>
                    <path d="M35.5,7.6 C35.8,7.6 36.1,7.5 36.3,7.3 C36.5,7.1 36.6,6.9 36.6,6.6 L37.8,6.6 C37.8,7 37.7,7.3 37.5,7.6 C37.3,7.9 37,8.2 36.7,8.3 C36.4,8.5 36,8.6 35.6,8.6 C34.9,8.6 34.2,8.4 33.7,7.8 C33.2,7.2 33,6.5 33,5.7 L33,5.6 C33,4.9 33.2,4.2 33.7,3.6 C34.2,3.1 34.9,2.8 35.6,2.8 C36.2,2.8 36.8,3 37.2,3.4 C37.6,3.8 37.8,4.3 37.8,4.9 L36.6,4.9 C36.6,4.6 36.5,4.3 36.3,4.1 C36.1,3.9 35.8,3.8 35.5,3.8 C35.1,3.8 34.8,3.9 34.6,4.2 C34.3,4.6 34.2,5.1 34.3,5.5 L34.3,5.7 C34.3,6.2 34.4,6.6 34.6,7.1 C34.8,7.5 35.1,7.6 35.5,7.6 Z" id="Path"></path>
                    <path d="M41.6,4.1 C41.4,4.1 41.3,4.1 41.1,4.1 C40.6,4.1 40.1,4.3 39.9,4.8 L39.9,8.6 L38.7,8.6 L38.7,3 L39.9,3 L39.9,3.6 C40.1,3.1 40.6,2.9 41.1,2.9 C41.3,2.9 41.4,2.9 41.5,3 L41.6,4.1 Z" id="Path"></path>
                    <path d="M42.4,1.5 C42.4,1.3 42.5,1.2 42.6,1 C42.7,0.9 42.9,0.8 43.1,0.8 C43.3,0.8 43.5,0.9 43.6,1 C43.9,1.3 43.9,1.7 43.6,2 C43.5,2.1 43.3,2.2 43.1,2.2 C42.9,2.2 42.7,2.1 42.6,2 C42.5,1.8 42.4,1.7 42.4,1.5 Z M43.8,8.5 L42.5,8.5 L42.5,2.9 L43.8,2.9 L43.8,8.5 Z" id="Shape"></path>
                    <path d="M50,5.8 C50,6.5 49.8,7.3 49.4,7.9 C49,8.4 48.4,8.7 47.8,8.7 C47.2,8.7 46.7,8.5 46.3,8.1 L46.3,10.7 L45.1,10.7 L45.1,3 L46.2,3 L46.3,3.6 C46.7,3.2 47.2,2.9 47.8,2.9 C48.4,2.9 49,3.2 49.4,3.7 C49.8,4.2 50,4.9 50,5.8 L50,5.8 Z M48.8,5.7 C48.8,5.2 48.7,4.8 48.5,4.4 C48.3,4.1 47.9,3.9 47.6,3.9 C47.1,3.9 46.7,4.1 46.5,4.5 L46.5,7 C46.7,7.4 47.1,7.7 47.6,7.6 C48,7.6 48.3,7.4 48.5,7.1 C48.7,6.7 48.8,6.2 48.8,5.7 L48.8,5.7 Z" id="Shape"></path>
                    <path d="M52.6,1.6 L52.6,3 L53.6,3 L53.6,3.9 L52.6,3.9 L52.6,7.1 C52.6,7.3 52.6,7.4 52.7,7.6 C52.8,7.7 53,7.8 53.1,7.7 C53.2,7.7 53.4,7.7 53.5,7.7 L53.5,8.7 C53.2,8.8 53,8.8 52.7,8.8 C51.7,8.8 51.3,8.3 51.3,7.2 L51.3,4 L50.4,4 L50.4,3 L51.3,3 L51.3,1.6 L52.6,1.6 Z" id="Path"></path>
                    <path d="M55.4,7.2 C55.6,7.2 55.8,7.3 55.9,7.4 C56,7.5 56.1,7.7 56.1,7.9 C56.1,8.1 56,8.3 55.9,8.4 C55.8,8.5 55.6,8.6 55.4,8.6 C55.2,8.6 55,8.5 54.9,8.4 C54.8,8.3 54.7,8.1 54.7,7.9 C54.7,7.7 54.8,7.5 54.9,7.4 C55,7.2 55.2,7.2 55.4,7.2 Z" id="Path"></path>
                    <path d="M57.3,5.7 C57.3,5 57.5,4.2 57.9,3.6 C58.3,3.1 58.9,2.8 59.5,2.8 C60,2.8 60.6,3 60.9,3.4 L60.9,0.5 L62.1,0.5 L62.1,8.4 L61,8.4 L60.9,7.8 C60.5,8.3 60,8.5 59.4,8.5 C58.8,8.5 58.2,8.2 57.8,7.7 C57.4,7.2 57.2,6.4 57.3,5.7 Z M58.5,5.8 C58.5,6.3 58.6,6.7 58.8,7.1 C59,7.4 59.4,7.6 59.7,7.6 C60.2,7.6 60.6,7.4 60.8,6.9 L60.8,4.5 C60.6,4.1 60.2,3.8 59.7,3.8 C59.3,3.8 59,4 58.8,4.3 C58.6,4.8 58.5,5.3 58.5,5.8 Z" id="Shape"></path>
                    <path d="M63.2,5.6 C63.2,5.1 63.3,4.6 63.5,4.1 C63.7,3.7 64,3.3 64.4,3.1 C64.8,2.9 65.3,2.7 65.8,2.7 C66.5,2.7 67.2,2.9 67.6,3.4 C68.1,3.9 68.4,4.6 68.4,5.3 L68.4,5.6 C68.4,6.1 68.3,6.6 68.1,7.1 C67.9,7.5 67.6,7.9 67.2,8.1 C66.8,8.3 66.3,8.5 65.8,8.5 C65.1,8.5 64.4,8.2 63.9,7.7 C63.4,7.2 63.2,6.5 63.2,5.6 L63.2,5.6 Z M64.5,5.8 C64.5,6.3 64.6,6.7 64.9,7.2 C65.1,7.5 65.5,7.7 65.9,7.7 C66.3,7.7 66.7,7.5 66.9,7.2 C67.2,6.8 67.3,6.3 67.3,5.7 C67.3,5.2 67.2,4.8 66.9,4.4 C66.5,3.8 65.7,3.7 65.2,4.1 C65.1,4.2 65,4.3 64.9,4.4 C64.6,4.7 64.5,5.3 64.5,5.8 L64.5,5.8 Z" id="Shape"></path>
                    <path d="M71.8,7.6 C72.1,7.6 72.4,7.5 72.6,7.3 C72.8,7.1 72.9,6.9 72.9,6.6 L74.1,6.6 C74.1,7 74,7.3 73.8,7.6 C73.6,7.9 73.3,8.2 73,8.3 C72,8.8 70.8,8.6 70,7.8 C69.5,7.2 69.3,6.5 69.3,5.7 L69.3,5.6 C69.3,4.9 69.5,4.2 70,3.6 C70.5,3.1 71.2,2.8 71.9,2.8 C72.5,2.8 73.1,3 73.5,3.4 C73.9,3.8 74.2,4.3 74.2,4.9 L73,4.9 C73,4.6 72.9,4.3 72.7,4.1 C72.5,3.9 72.2,3.8 71.9,3.8 C71.5,3.8 71.2,3.9 71,4.2 C70.8,4.6 70.6,5.1 70.7,5.5 L70.7,5.7 C70.7,6.2 70.8,6.6 71,7.1 C71.1,7.5 71.4,7.6 71.8,7.6 Z" id="Path"></path>
                </g>
            </g>
            <g id="Icon---Decorative---Default---Audition-File" transform="translate(58.000000, 346.000000)" fill-rule="nonzero">
                <path d="M9.9,13.8 L1.3,13.8 C0.9,13.8 0.6,13.5 0.6,13.1 L0.6,13.1 L0.6,1.3 C0.6,0.9 0.9,0.6 1.3,0.6 L1.3,0.6 L6.3,0.6 C6.5,0.6 6.6,0.7 6.8,0.8 L10.4,4.4 C10.5,4.5 10.6,4.7 10.6,4.9 L10.6,13.1 C10.6,13.5 10.3,13.8 9.9,13.8 C9.9,13.8 9.9,13.8 9.9,13.8 Z" id="Path" fill="#959EA8"></path>
                <path d="M10.3,4.3 C10.5,4.5 10.5,4.7 10.5,4.9 L10.5,4.9 C10.5,4.7 10.4,4.6 10.2,4.6 L7.3,4.6 C6.9,4.6 6.6,4.3 6.6,4 L6.6,1 C6.6,0.8 6.5,0.7 6.3,0.7 L6.3,0.7 C6.5,0.7 6.7,0.8 6.9,0.9 L10.3,4.3 Z" id="Path-2" fill="#6E7681"></path>
                <path d="M2.8,5.6 L8.4,5.6 C8.7,5.6 8.9,5.8 8.9,6.1 L8.9,6.1 C8.9,6.4 8.7,6.6 8.4,6.6 L2.8,6.6 C2.5,6.6 2.3,6.4 2.3,6.1 L2.3,6.1 C2.3,5.8 2.5,5.6 2.8,5.6 Z" id="Rectangle-4" fill="#FFFFFF"></path>
                <path d="M2.8,7.2 L8.4,7.2 C8.7,7.2 8.9,7.4 8.9,7.7 L8.9,7.7 C8.9,8 8.7,8.2 8.4,8.2 L2.8,8.2 C2.5,8.2 2.3,8 2.3,7.7 L2.3,7.7 C2.3,7.4 2.5,7.2 2.8,7.2 Z" id="Rectangle-5" fill="#FFFFFF"></path>
                <path d="M2.8,8.9 L8.4,8.9 C8.7,8.9 8.9,9.1 8.9,9.4 L8.9,9.4 C8.9,9.7 8.7,9.9 8.4,9.9 L2.8,9.9 C2.5,9.9 2.3,9.7 2.3,9.4 L2.3,9.4 C2.3,9.1 2.5,8.9 2.8,8.9 Z" id="Rectangle-6" fill="#FFFFFF"></path>
                <path d="M2.8,10.5 L8.4,10.5 C8.7,10.5 8.9,10.7 8.9,11 L8.9,11 C8.9,11.3 8.7,11.5 8.4,11.5 L2.8,11.5 C2.5,11.5 2.3,11.3 2.3,11 L2.3,11 C2.3,10.7 2.5,10.5 2.8,10.5 Z" id="Rectangle-7" fill="#FFFFFF"></path>
            </g>
            <path d="M218.2,350.2 L252.9,350.2 C254.2,350.2 255.3,351.3 255.3,352.6 C255.3,352.6 255.3,352.6 255.3,352.6 L255.3,352.6 C255.3,353.9 254.2,355 252.9,355 L218.2,355 C216.9,355 215.8,353.9 215.8,352.6 L215.8,352.6 C215.8,351.2 216.9,350.2 218.2,350.2 L218.2,350.2 Z" id="Rectangle-8" fill="#C9D0D9" fill-rule="nonzero"></path>
            <path d="M42,288.6 L117.7,288.6 C120.8,288.6 123.4,291.2 123.4,294.3 L123.4,304.3 C123.4,307.4 120.8,310 117.7,310 L42,310 C38.9,310 36.3,307.4 36.3,304.3 L36.3,294.3 C36.3,291.1 38.9,288.6 42,288.6 Z" id="Rectangle-9" fill="#1171BB" fill-rule="nonzero"></path>
            <g id="Group" transform="translate(55.000000, 295.000000)" fill="#FFFFFF" fill-rule="nonzero">
                <path d="M5.5,6.4 L2.7,6.4 L2.1,8.1 L0.8,8.1 L3.6,0.8 L4.7,0.8 L7.5,8.1 L6.2,8.1 L5.5,6.4 Z M3,5.4 L5.1,5.4 L4.1,2.4 L3,5.4 Z" id="Shape"></path>
                <path d="M9.6,1.3 L9.6,2.6 L10.6,2.6 L10.6,3.5 L9.6,3.5 L9.6,6.5 C9.6,6.7 9.6,6.8 9.7,7 C9.8,7.1 10,7.2 10.1,7.1 C10.2,7.1 10.4,7.1 10.5,7.1 L10.5,8 C10.2,8.1 10,8.1 9.7,8.1 C8.8,8.1 8.3,7.6 8.3,6.6 L8.3,3.5 L7.4,3.5 L7.4,2.6 L8.3,2.6 L8.3,1.3 L9.6,1.3 Z" id="Path"></path>
                <path d="M13,1.3 L13,2.6 L14,2.6 L14,3.5 L13,3.5 L13,6.5 C13,6.7 13,6.8 13.1,7 C13.2,7.1 13.4,7.2 13.5,7.1 C13.6,7.1 13.8,7.1 13.9,7.1 L13.9,8 C13.6,8.1 13.4,8.1 13.1,8.1 C12.2,8.1 11.7,7.6 11.7,6.6 L11.7,3.5 L10.8,3.5 L10.8,2.6 L11.7,2.6 L11.7,1.3 L13,1.3 Z" id="Path"></path>
                <path d="M18.1,8 C18,7.8 18,7.7 18,7.5 C17.3,8.2 16.1,8.3 15.2,7.6 C14.9,7.3 14.7,6.9 14.7,6.5 C14.7,6 14.9,5.5 15.3,5.2 C15.9,4.9 16.5,4.7 17.1,4.7 L17.9,4.7 L17.9,4.3 C17.9,4.1 17.8,3.8 17.7,3.6 C17.5,3.4 17.3,3.3 17,3.4 C16.8,3.4 16.5,3.5 16.3,3.6 C16.1,3.7 16,3.9 16,4.1 L14.8,4.1 C14.8,3.8 14.9,3.5 15.1,3.3 C15.3,3 15.6,2.8 15.9,2.7 C16.3,2.5 16.6,2.5 17,2.5 C17.5,2.5 18.1,2.6 18.5,3 C18.9,3.3 19.1,3.8 19.1,4.3 L19.1,6.8 C19.1,7.2 19.1,7.6 19.3,8 L19.3,8.1 L18.1,8 Z M16.8,7.2 C17,7.2 17.3,7.1 17.5,7 C17.7,6.9 17.9,6.7 18,6.5 L18,5.5 L17.3,5.5 C17,5.5 16.6,5.6 16.3,5.7 C16.1,5.9 16,6.1 16,6.4 C16,6.6 16.1,6.8 16.2,7 C16.3,7.1 16.6,7.2 16.8,7.2 Z" id="Shape"></path>
                <path d="M22.6,7.2 C22.9,7.2 23.1,7.1 23.4,6.9 C23.6,6.7 23.7,6.5 23.7,6.2 L24.8,6.2 C24.8,6.5 24.7,6.9 24.5,7.1 C24.3,7.4 24,7.6 23.7,7.8 C23.4,8 23,8.1 22.6,8 C21.9,8 21.3,7.8 20.8,7.3 C20.3,6.7 20.1,6 20.1,5.3 L20.1,5.2 C20.1,4.5 20.3,3.8 20.8,3.2 C21.3,2.7 21.9,2.4 22.6,2.5 C23.2,2.5 23.7,2.7 24.2,3.1 C24.6,3.5 24.8,4 24.8,4.6 L23.7,4.6 C23.7,4.3 23.6,4 23.4,3.8 C23.2,3.6 22.9,3.5 22.6,3.5 C22.2,3.5 21.9,3.6 21.7,3.9 C21.5,4.3 21.3,4.7 21.4,5.2 L21.4,5.4 C21.4,5.9 21.5,6.3 21.7,6.7 C22,7.1 22.3,7.2 22.6,7.2 Z" id="Path"></path>
                <path d="M27,3.2 C27.4,2.8 27.9,2.5 28.5,2.5 C29.7,2.5 30.3,3.2 30.3,4.5 L30.3,8 L29,8 L29,4.5 C29,4.2 28.9,3.9 28.8,3.7 C28.6,3.5 28.3,3.5 28.1,3.5 C27.6,3.5 27.2,3.7 27,4.1 L27,8 L25.8,8 L25.8,0.3 L27.1,0.3 L27.1,3.2 L27,3.2 Z" id="Path"></path>
                <path d="M37.1,6.6 C37.1,6.4 37,6.2 36.8,6.1 C36.5,6 36.2,5.9 35.9,5.8 C35.6,5.7 35.2,5.6 34.9,5.5 C34.4,5.3 34,4.8 34,4.2 C34,3.7 34.2,3.3 34.6,3 C35,2.7 35.6,2.5 36.1,2.5 C36.7,2.5 37.2,2.6 37.7,3 C38.1,3.3 38.3,3.8 38.3,4.2 L37,4.2 C37,4 36.9,3.8 36.7,3.6 C36.5,3.4 36.3,3.4 36,3.4 C35.8,3.4 35.5,3.5 35.3,3.6 C35.1,3.7 35,3.9 35.1,4.1 C35.1,4.3 35.2,4.4 35.3,4.5 C35.6,4.7 36,4.8 36.3,4.8 C36.7,4.9 37.1,5 37.4,5.2 C37.6,5.3 37.9,5.5 38,5.7 C38.1,5.9 38.2,6.2 38.2,6.4 C38.2,6.9 38,7.3 37.6,7.6 C37.1,7.9 36.6,8.1 36,8.1 C35.6,8.1 35.2,8 34.8,7.9 C34.5,7.8 34.2,7.5 34,7.2 C33.8,6.9 33.7,6.6 33.7,6.3 L34.9,6.3 C34.9,6.6 35,6.8 35.2,7 C35.4,7.2 35.7,7.2 36,7.2 C36.3,7.2 36.5,7.2 36.7,7 C37,6.9 37.1,6.8 37.1,6.6 Z" id="Path"></path>
                <path d="M41.6,7.2 C41.9,7.2 42.1,7.1 42.4,6.9 C42.6,6.7 42.7,6.5 42.7,6.2 L43.8,6.2 C43.8,6.5 43.7,6.9 43.5,7.1 C43.3,7.4 43,7.6 42.7,7.8 C42.4,8 42,8.1 41.6,8 C40.9,8 40.3,7.8 39.8,7.3 C39.3,6.7 39.1,6 39.1,5.3 L39.1,5.2 C39.1,4.5 39.3,3.8 39.8,3.2 C40.3,2.7 40.9,2.4 41.6,2.5 C42.2,2.5 42.7,2.7 43.2,3.1 C43.6,3.5 43.8,4 43.8,4.6 L42.7,4.6 C42.7,4.3 42.6,4 42.4,3.8 C42.2,3.6 41.9,3.5 41.6,3.5 C41.2,3.5 40.9,3.6 40.7,3.9 C40.5,4.3 40.3,4.7 40.4,5.2 L40.4,5.4 C40.4,5.9 40.5,6.3 40.7,6.7 C40.9,7.1 41.2,7.2 41.6,7.2 Z" id="Path"></path>
                <path d="M47.6,3.7 C47.4,3.7 47.3,3.7 47.1,3.7 C46.6,3.7 46.2,3.9 46,4.3 L46,8 L44.8,8 L44.8,2.6 L46,2.6 L46,3.2 C46.2,2.8 46.7,2.5 47.2,2.5 C47.3,2.5 47.5,2.5 47.6,2.6 L47.6,3.7 Z" id="Path"></path>
                <path d="M48.3,1.2 C48.3,1 48.4,0.9 48.5,0.7 C48.8,0.5 49.2,0.5 49.5,0.7 C49.6,0.8 49.7,1 49.7,1.2 C49.7,1.4 49.6,1.5 49.5,1.7 C49.2,1.9 48.8,1.9 48.5,1.7 C48.4,1.6 48.3,1.4 48.3,1.2 Z M49.6,8 L48.4,8 L48.4,2.6 L49.6,2.6 L49.6,8 Z" id="Shape"></path>
                <path d="M55.7,5.4 C55.7,6.1 55.5,6.8 55.1,7.4 C54.4,8.3 53.2,8.4 52.3,7.7 C52.2,7.6 52.2,7.6 52.1,7.5 L52.1,10.1 L51,10.1 L51,2.6 L52.1,2.6 L52.2,3.1 C52.6,2.7 53.1,2.4 53.7,2.5 C54.3,2.5 54.9,2.8 55.3,3.2 C55.6,3.9 55.8,4.6 55.7,5.4 L55.7,5.4 Z M54.5,5.3 C54.5,4.8 54.4,4.4 54.2,4 C54,3.7 53.7,3.5 53.3,3.5 C52.9,3.5 52.4,3.7 52.2,4.1 L52.2,6.5 C52.4,6.9 52.8,7.2 53.3,7.1 C53.7,7.1 54,6.9 54.2,6.6 C54.4,6.3 54.5,5.8 54.5,5.3 Z" id="Shape"></path>
                <path d="M58.2,1.3 L58.2,2.6 L59.2,2.6 L59.2,3.5 L58.2,3.5 L58.2,6.5 C58.2,6.7 58.2,6.8 58.3,7 C58.4,7.1 58.6,7.2 58.7,7.1 C58.8,7.1 59,7.1 59.1,7.1 L59.1,8 C58.8,8.1 58.6,8.1 58.3,8.1 C57.4,8.1 56.9,7.6 56.9,6.6 L56.9,3.5 L56,3.5 L56,2.6 L56.9,2.6 L56.9,1.3 L58.2,1.3 Z" id="Path"></path>
            </g>
            <path d="M50.1,298.5 L47.5,298.5 L47.5,295.9 C47.5,295.7 47.4,295.6 47.2,295.6 L47.2,295.6 L46.6,295.6 C46.4,295.6 46.3,295.7 46.3,295.9 L46.3,295.9 L46.3,298.5 L43.7,298.5 C43.5,298.5 43.4,298.6 43.4,298.8 L43.4,299.4 C43.4,299.6 43.5,299.7 43.7,299.7 C43.7,299.7 43.7,299.7 43.7,299.7 L46.3,299.7 L46.3,302.3 C46.3,302.5 46.4,302.6 46.6,302.6 L46.6,302.6 L47.2,302.6 C47.4,302.6 47.5,302.5 47.5,302.3 L47.5,302.3 L47.5,299.7 L50.1,299.7 C50.3,299.7 50.4,299.6 50.4,299.4 C50.4,299.4 50.4,299.4 50.4,299.4 L50.4,298.8 C50.4,298.7 50.3,298.6 50.1,298.5 Z" id="Icon-_-System-_-Default-_-far_fa-plus" fill="#FFFFFF" fill-rule="nonzero"></path>
            <path d="M229,93.5 L332.3,93.5 C333.6,93.5 334.7,94.6 334.7,95.9 L334.7,95.9 C334.7,97.2 333.6,98.3 332.3,98.3 L332.3,98.3 L229,98.3 C227.7,98.3 226.6,97.2 226.6,95.9 L226.6,95.9 L226.6,95.9 C226.6,94.6 227.7,93.5 229,93.5 Z" id="Rectangle-10" fill="#C9D0D9" fill-rule="nonzero"></path>
            <path d="M228.9,83.4 L228.9,86.2 L227.6,86.2 L227.6,78.7 L230.5,78.7 C231.3,78.7 232,78.9 232.5,79.4 C233,79.8 233.2,80.4 233.2,81.1 C233.2,81.8 233,82.4 232.5,82.8 C232,83.2 231.3,83.4 230.5,83.4 L228.9,83.4 Z M228.9,82.3 L230.5,82.3 C231,82.3 231.3,82.2 231.6,82 C231.8,81.8 232,81.5 232,81.1 C232,80.7 231.9,80.4 231.6,80.1 C231.4,79.9 231,79.7 230.6,79.7 L229,79.7 L229,82.3 L228.9,82.3 Z" id="Shape" fill="#19222B" fill-rule="nonzero"></path>
            <path d="M237.1,81.7 C236.9,81.7 236.8,81.7 236.6,81.7 C236,81.7 235.6,81.9 235.4,82.4 L235.4,86.2 L234.1,86.2 L234.1,80.6 L235.3,80.6 L235.3,81.2 C235.6,80.7 236,80.5 236.6,80.5 C236.8,80.5 236.9,80.5 237,80.6 L237.1,81.7 Z" id="Path" fill="#19222B" fill-rule="nonzero"></path>
            <g id="Group" transform="translate(237.000000, 78.000000)" fill="#19222B" fill-rule="nonzero">
                <path d="M0.5,5.3 C0.5,4.8 0.6,4.3 0.8,3.8 C1,3.3 1.3,3 1.7,2.8 C2.1,2.6 2.5,2.4 3.1,2.4 C3.9,2.4 4.5,2.6 4.9,3.1 C5.3,3.6 5.6,4.2 5.7,5 L5.7,5.3 C5.7,5.9 5.6,6.3 5.4,6.8 C5.2,7.2 4.9,7.6 4.5,7.8 C4.1,8 3.7,8.2 3.1,8.2 C2.3,8.2 1.7,7.9 1.2,7.4 C0.8,7 0.5,6.3 0.5,5.3 L0.5,5.3 Z M1.8,5.4 C1.8,6 1.9,6.4 2.2,6.7 C2.5,7 2.8,7.2 3.2,7.2 C3.6,7.2 4,7 4.2,6.7 C4.4,6.4 4.6,5.9 4.6,5.2 C4.6,4.6 4.5,4.2 4.2,3.9 C4,3.6 3.6,3.4 3.2,3.4 C2.8,3.4 2.5,3.6 2.2,3.9 C1.9,4.3 1.8,4.8 1.8,5.4 Z" id="Shape"></path>
                <path d="M8.1,2.6 L8.1,8.7 C8.1,9.3 8,9.7 7.7,10 C7.4,10.3 7,10.5 6.5,10.5 C6.3,10.5 6,10.5 5.8,10.4 L5.8,9.4 C5.9,9.4 6.1,9.4 6.2,9.4 C6.6,9.4 6.8,9.2 6.8,8.7 L6.8,2.6 L8.1,2.6 Z M6.7,1.1 C6.7,0.9 6.8,0.7 6.9,0.6 C7,0.5 7.2,0.4 7.4,0.4 C7.6,0.4 7.8,0.5 7.9,0.6 C8,0.7 8.1,0.9 8.1,1.1 C8.1,1.3 8,1.4 7.9,1.6 C7.8,1.7 7.6,1.8 7.4,1.8 C7.2,1.8 7,1.7 6.9,1.6 C6.8,1.5 6.7,1.3 6.7,1.1 Z" id="Shape"></path>
                <path d="M11.9,8.3 C11.1,8.3 10.5,8 10,7.5 C9.5,7 9.3,6.3 9.3,5.5 L9.3,5.3 C9.3,4.7 9.4,4.2 9.6,3.8 C9.8,3.4 10.1,3 10.5,2.8 C10.9,2.6 11.3,2.4 11.8,2.4 C12.6,2.4 13.1,2.6 13.6,3.1 C14,3.6 14.2,4.3 14.2,5.2 L14.2,5.7 L10.6,5.7 C10.6,6.2 10.8,6.5 11.1,6.8 C11.4,7.1 11.7,7.2 12.1,7.2 C12.7,7.2 13.1,7 13.5,6.5 L14.2,7.1 C14,7.4 13.7,7.7 13.3,7.9 C12.8,8.2 12.3,8.3 11.9,8.3 Z M11.7,3.5 C11.4,3.5 11.1,3.6 10.9,3.9 C10.7,4.1 10.6,4.5 10.5,4.9 L12.9,4.9 L12.9,4.8 C12.9,4.4 12.8,4.1 12.6,3.8 C12.4,3.5 12.1,3.5 11.7,3.5 Z" id="Shape"></path>
                <path d="M17.4,7.3 C17.7,7.3 18,7.2 18.2,7 C18.4,6.8 18.5,6.6 18.5,6.3 L19.7,6.3 C19.7,6.6 19.6,7 19.4,7.3 C19.2,7.6 18.9,7.8 18.6,8 C18.3,8.2 17.9,8.3 17.5,8.3 C16.7,8.3 16.1,8 15.6,7.5 C15.1,7 14.9,6.3 14.9,5.4 L14.9,5.3 C14.9,4.5 15.1,3.8 15.6,3.3 C16.1,2.8 16.7,2.5 17.5,2.5 C18.2,2.5 18.7,2.7 19.1,3.1 C19.5,3.5 19.7,4 19.8,4.6 L18.6,4.6 C18.6,4.3 18.5,4 18.3,3.8 C18.1,3.6 17.8,3.5 17.5,3.5 C17.1,3.5 16.8,3.6 16.6,3.9 C16.4,4.2 16.3,4.6 16.3,5.2 L16.3,5.4 C16.3,6 16.4,6.5 16.6,6.8 C16.7,7.1 17,7.3 17.4,7.3 Z" id="Path"></path>
                <path d="M22.2,1.2 L22.2,2.6 L23.2,2.6 L23.2,3.5 L22.2,3.5 L22.2,6.6 C22.2,6.8 22.2,7 22.3,7.1 C22.4,7.2 22.5,7.2 22.8,7.2 C22.9,7.2 23.1,7.2 23.2,7.1 L23.2,8.1 C22.9,8.2 22.6,8.2 22.4,8.2 C21.4,8.2 21,7.7 21,6.6 L21,3.4 L20,3.4 L20,2.5 L20.9,2.5 L20.9,1.1 L22.2,1.1 L22.2,1.2 Z" id="Path"></path>
            </g>
            <g id="Group" transform="translate(263.000000, 78.000000)" fill="#19222B" fill-rule="nonzero">
                <polygon id="Path" points="6 1.7 3.7 1.7 3.7 8.2 2.4 8.2 2.4 1.7 0.1 1.7 0.1 0.6 6.1 0.6 6.1 1.7"></polygon>
                <path d="M6.9,1.1 C6.9,0.9 7,0.7 7.1,0.6 C7.2,0.5 7.4,0.4 7.6,0.4 C7.8,0.4 8,0.5 8.1,0.6 C8.2,0.7 8.3,0.9 8.3,1.1 C8.3,1.3 8.2,1.4 8.1,1.6 C8,1.7 7.8,1.8 7.6,1.8 C7.4,1.8 7.2,1.7 7.1,1.6 C6.9,1.5 6.9,1.3 6.9,1.1 Z M8.2,8.2 L7,8.2 L7,2.6 L8.3,2.6 L8.3,8.2 L8.2,8.2 Z" id="Shape"></path>
                <path d="M11.1,1.2 L11.1,2.6 L12.1,2.6 L12.1,3.5 L11.1,3.5 L11.1,6.6 C11.1,6.8 11.1,7 11.2,7.1 C11.3,7.2 11.4,7.2 11.7,7.2 C11.8,7.2 12,7.2 12.1,7.1 L12.1,8.1 C11.8,8.2 11.5,8.2 11.3,8.2 C10.3,8.2 9.9,7.7 9.9,6.6 L9.9,3.4 L9,3.4 L9,2.5 L9.9,2.5 L9.9,1.1 L11.1,1.1 L11.1,1.2 Z" id="Path"></path>
                <polygon id="Path" points="14.4 8.2 13.1 8.2 13.1 0.3 14.4 0.3"></polygon>
                <path d="M18.3,8.3 C17.5,8.3 16.9,8 16.4,7.5 C15.9,7 15.7,6.3 15.7,5.5 L15.7,5.3 C15.7,4.7 15.8,4.2 16,3.8 C16.2,3.4 16.5,3 16.9,2.8 C17.3,2.6 17.7,2.4 18.2,2.4 C19,2.4 19.5,2.6 20,3.1 C20.4,3.6 20.6,4.3 20.6,5.2 L20.6,5.7 L17,5.7 C17,6.2 17.2,6.5 17.5,6.8 C17.8,7.1 18.1,7.2 18.5,7.2 C19.1,7.2 19.5,7 19.9,6.5 L20.6,7.1 C20.4,7.4 20.1,7.7 19.7,7.9 C19.1,8.2 18.7,8.3 18.3,8.3 Z M18.1,3.5 C17.8,3.5 17.5,3.6 17.3,3.9 C17.1,4.1 17,4.5 16.9,4.9 L19.3,4.9 L19.3,4.8 C19.3,4.4 19.2,4.1 19,3.8 C18.8,3.5 18.4,3.5 18.1,3.5 Z" id="Shape"></path>
            </g>
            <g id="Group" transform="translate(234.000000, 115.000000)" fill="#6E7681" fill-rule="nonzero">
                <polygon id="Path" points="1 0.7 2.9 5.3 4.8 0.7 5.8 0.7 5.8 6.4 5 6.4 5 4.2 5.1 1.8 3.2 6.4 2.6 6.4 0.7 1.8 0.8 4.2 0.8 6.4 0 6.4 0 0.7"></polygon>
                <path d="M8.3,5.4 L9.3,2.2 L10.1,2.2 L8.4,7.1 C8.1,7.8 7.7,8.2 7.1,8.2 L7,8.2 L6.7,8.1 L6.7,7.5 L6.9,7.5 C7.1,7.5 7.3,7.5 7.5,7.4 C7.7,7.3 7.7,7.1 7.8,6.9 L8,6.5 L6.5,2.3 L7.3,2.3 L8.3,5.4 Z" id="Path"></path>
                <path d="M15.3,6.4 C15.3,6.3 15.2,6.2 15.2,6 C14.9,6.3 14.5,6.5 14,6.5 C13.6,6.5 13.2,6.4 13,6.1 C12.7,5.9 12.6,5.6 12.6,5.2 C12.6,4.8 12.8,4.4 13.1,4.2 C13.4,4 13.9,3.8 14.5,3.8 L15.2,3.8 L15.2,3.5 C15.2,3.2 15.1,3 15,2.9 C14.8,2.8 14.6,2.7 14.3,2.7 C14,2.7 13.8,2.8 13.7,2.9 C13.5,3 13.4,3.2 13.4,3.4 L12.7,3.4 C12.7,3.2 12.8,3 12.9,2.8 C13.1,2.6 13.3,2.4 13.5,2.3 C13.8,2.2 14,2.1 14.3,2.1 C14.8,2.1 15.2,2.2 15.4,2.5 C15.7,2.7 15.8,3.1 15.8,3.5 L15.8,5.4 C15.8,5.8 15.8,6.1 15.9,6.3 L15.9,6.4 L15.3,6.4 Z M14.1,5.9 C14.3,5.9 14.5,5.8 14.7,5.7 C14.9,5.6 15.1,5.4 15.1,5.2 L15.1,4.3 L14.5,4.3 C13.6,4.3 13.2,4.6 13.2,5.1 C13.2,5.3 13.3,5.5 13.4,5.6 C13.6,5.8 13.8,5.9 14.1,5.9 Z" id="Shape"></path>
                <path d="M17.7,2.2 L17.7,2.7 C18,2.3 18.4,2.2 19,2.2 C19.6,2.2 20,2.4 20.2,2.9 C20.3,2.7 20.5,2.5 20.7,2.4 C20.9,2.3 21.2,2.2 21.5,2.2 C22.4,2.2 22.9,2.7 22.9,3.7 L22.9,6.5 L22.2,6.5 L22.2,3.7 C22.2,3.4 22.1,3.2 22,3 C21.9,2.9 21.6,2.8 21.3,2.8 C21,2.8 20.8,2.9 20.6,3 C20.4,3.2 20.3,3.4 20.3,3.6 L20.3,6.4 L19.6,6.4 L19.6,3.6 C19.6,3 19.3,2.7 18.7,2.7 C18.2,2.7 17.9,2.9 17.7,3.3 L17.7,6.4 L17,6.4 L17,2.2 L17.7,2.2 L17.7,2.2 Z" id="Path"></path>
                <path d="M26.6,6.4 C26.6,6.3 26.5,6.2 26.5,6 C26.2,6.3 25.8,6.5 25.3,6.5 C24.9,6.5 24.5,6.4 24.3,6.1 C24,5.9 23.9,5.6 23.9,5.2 C23.9,4.8 24.1,4.4 24.4,4.2 C24.7,4 25.2,3.8 25.8,3.8 L26.5,3.8 L26.5,3.5 C26.5,3.2 26.4,3 26.3,2.9 C26.1,2.8 25.9,2.7 25.6,2.7 C25.3,2.7 25.1,2.8 25,2.9 C24.8,3 24.7,3.2 24.7,3.4 L24,3.4 C24,3.2 24.1,3 24.2,2.8 C24.4,2.6 24.6,2.4 24.8,2.3 C25.1,2.2 25.3,2.1 25.6,2.1 C26.1,2.1 26.5,2.2 26.7,2.5 C27,2.7 27.1,3.1 27.1,3.5 L27.1,5.4 C27.1,5.8 27.1,6.1 27.2,6.3 L27.2,6.4 L26.6,6.4 Z M25.4,5.9 C25.6,5.9 25.8,5.8 26,5.7 C26.2,5.6 26.4,5.4 26.4,5.2 L26.4,4.3 L25.8,4.3 C24.9,4.3 24.5,4.6 24.5,5.1 C24.5,5.3 24.6,5.5 24.7,5.6 C25,5.8 25.2,5.9 25.4,5.9 Z" id="Shape"></path>
                <polygon id="Path" points="29 5.8 31.5 5.8 31.5 6.4 28.1 6.4 28.1 5.9 30.4 2.8 28.1 2.8 28.1 2.2 31.3 2.2 31.3 2.7"></polygon>
                <path d="M32.3,1.1 C32.3,1 32.3,0.9 32.4,0.8 C32.5,0.7 32.6,0.7 32.7,0.7 C32.8,0.7 32.9,0.7 33,0.8 C33.1,0.9 33.1,1 33.1,1.1 C33.1,1.2 33.1,1.3 33,1.4 C32.9,1.5 32.8,1.5 32.7,1.5 C32.6,1.5 32.5,1.5 32.4,1.4 C32.4,1.3 32.3,1.2 32.3,1.1 Z M33.1,6.4 L32.4,6.4 L32.4,2.2 L33.1,2.2 L33.1,6.4 Z" id="Shape"></path>
                <path d="M35,2.2 L35,2.7 C35.3,2.3 35.7,2.1 36.3,2.1 C37.2,2.1 37.6,2.6 37.7,3.6 L37.7,6.4 L37,6.4 L37,3.6 C37,3.3 36.9,3.1 36.8,2.9 C36.7,2.7 36.5,2.7 36.2,2.7 C36,2.7 35.8,2.8 35.6,2.9 C35.4,3 35.3,3.2 35.2,3.4 L35.2,6.4 L34.5,6.4 L34.5,2.2 L35,2.2 Z" id="Path"></path>
                <path d="M38.5,4.3 C38.5,3.6 38.7,3.1 39,2.7 C39.3,2.3 39.7,2.1 40.2,2.1 C40.7,2.1 41.1,2.3 41.4,2.6 L41.4,2.1 L42.1,2.1 L42.1,6.2 C42.1,6.7 41.9,7.2 41.6,7.5 C41.3,7.8 40.8,8 40.3,8 C40,8 39.7,7.9 39.4,7.8 C39.1,7.7 38.9,7.5 38.7,7.3 L39.1,6.9 C39.4,7.3 39.8,7.5 40.2,7.5 C40.6,7.5 40.8,7.4 41,7.2 C41.2,7 41.3,6.7 41.3,6.4 L41.3,6 C41,6.3 40.6,6.5 40.1,6.5 C39.6,6.5 39.2,6.3 38.9,5.9 C38.7,5.5 38.5,4.9 38.5,4.3 Z M39.2,4.3 C39.2,4.8 39.3,5.2 39.5,5.4 C39.7,5.6 40,5.8 40.3,5.8 C40.8,5.8 41.1,5.6 41.3,5.2 L41.3,3.3 C41.1,2.9 40.7,2.7 40.3,2.7 C39.9,2.7 39.7,2.8 39.5,3.1 C39.3,3.4 39.2,3.8 39.2,4.3 Z" id="Shape"></path>
                <path d="M45.9,2.2 L45.9,6.9 C45.9,7.7 45.5,8.1 44.8,8.1 C44.6,8.1 44.5,8.1 44.4,8 L44.4,7.4 C44.5,7.4 44.6,7.4 44.7,7.4 C44.9,7.4 45,7.4 45.1,7.3 C45.2,7.2 45.2,7.1 45.2,6.8 L45.2,2.1 L45.9,2.1 L45.9,2.2 Z M45.1,1.1 C45.1,1 45.1,0.9 45.2,0.8 C45.3,0.7 45.4,0.7 45.5,0.7 C45.6,0.7 45.7,0.7 45.8,0.8 C45.9,0.9 45.9,1 45.9,1.1 C45.9,1.2 45.9,1.3 45.8,1.4 C45.7,1.5 45.6,1.5 45.5,1.5 C45.4,1.5 45.3,1.5 45.2,1.4 C45.1,1.3 45.1,1.2 45.1,1.1 Z" id="Shape"></path>
                <path d="M46.9,4.3 C46.9,3.9 47,3.5 47.1,3.2 C47.3,2.9 47.5,2.6 47.8,2.4 C48.1,2.2 48.4,2.1 48.8,2.1 C49.4,2.1 49.8,2.3 50.2,2.7 C50.6,3.1 50.7,3.6 50.7,4.3 L50.7,4.4 C50.7,4.8 50.6,5.2 50.5,5.5 C50.3,5.8 50.1,6.1 49.8,6.3 C49.5,6.5 49.2,6.6 48.8,6.6 C48.2,6.6 47.8,6.4 47.4,6 C47,5.6 46.9,5 46.9,4.3 L46.9,4.3 Z M47.6,4.3 C47.6,4.8 47.7,5.1 47.9,5.4 C48.1,5.7 48.4,5.8 48.8,5.8 C49.2,5.8 49.5,5.7 49.7,5.4 C49.9,5.1 50,4.7 50,4.2 C50,3.7 49.9,3.4 49.7,3.1 C49.5,2.8 49.2,2.7 48.8,2.7 C48.4,2.7 48.2,2.8 47.9,3.1 C47.6,3.4 47.6,3.8 47.6,4.3 Z" id="Shape"></path>
                <path d="M55.2,4.3 C55.2,4.9 55.1,5.5 54.8,5.9 C54.5,6.3 54.1,6.5 53.6,6.5 C53.1,6.5 52.7,6.3 52.4,5.9 L52.4,6.4 L51.7,6.4 L51.7,0.4 L52.4,0.4 L52.4,2.6 C52.7,2.2 53.1,2.1 53.6,2.1 C54.1,2.1 54.5,2.3 54.8,2.7 C55.1,3.1 55.2,3.6 55.2,4.3 L55.2,4.3 Z M54.5,4.3 C54.5,3.8 54.4,3.4 54.2,3.2 C54,2.9 53.7,2.8 53.4,2.8 C52.9,2.8 52.6,3 52.4,3.5 L52.4,5.3 C52.6,5.7 53,6 53.4,6 C53.7,6 54,5.9 54.2,5.6 C54.4,5.2 54.5,4.8 54.5,4.3 Z" id="Shape"></path>
            </g>
            <path d="M228.6,107.8 L370.5,107.8 C371.6,107.8 372.4,108.7 372.4,109.7 L372.4,126.3 C372.4,127.4 371.5,128.2 370.5,128.2 L228.6,128.2 C227.5,128.2 226.7,127.3 226.7,126.3 L226.7,109.7 C226.6,108.7 227.5,107.8 228.6,107.8 Z" id="Path" stroke="#4DB1FF" stroke-width="0.75"></path>
            <g id="Group" transform="translate(227.000000, 147.000000)" fill="#19222B" fill-rule="nonzero">
                <polygon id="Path" points="1.9 6.6 5.3 6.6 5.3 7.6 0.6 7.6 0.6 0.1 1.9 0.1"></polygon>
                <path d="M9.5,7.7 C9.4,7.6 9.4,7.4 9.4,7.2 C9,7.6 8.5,7.8 7.9,7.8 C7.3,7.8 6.9,7.6 6.5,7.3 C6.1,7 6,6.6 6,6.1 C6,5.5 6.2,5 6.7,4.7 C7.1,4.4 7.8,4.2 8.6,4.2 L9.4,4.2 L9.4,3.8 C9.4,3.5 9.3,3.3 9.2,3.1 C9,2.9 8.8,2.8 8.5,2.8 C8.2,2.8 8,2.9 7.8,3 C7.6,3.1 7.5,3.3 7.5,3.5 L6.2,3.5 C6.2,3.2 6.3,2.9 6.5,2.6 C6.7,2.3 7,2.1 7.3,2 C7.6,1.8 8,1.8 8.5,1.8 C9.2,1.8 9.7,2 10.1,2.3 C10.5,2.6 10.7,3.1 10.7,3.7 L10.7,6.2 C10.7,6.7 10.8,7.1 10.9,7.4 L10.9,7.5 L9.5,7.5 L9.5,7.7 Z M8.1,6.8 C8.3,6.8 8.6,6.7 8.8,6.6 C9,6.5 9.2,6.3 9.3,6.1 L9.3,5 L8.6,5 C8.1,5 7.8,5.1 7.6,5.2 C7.4,5.4 7.2,5.6 7.2,5.9 C7.2,6.1 7.3,6.3 7.4,6.5 C7.7,6.7 7.9,6.8 8.1,6.8 Z" id="Shape"></path>
                <path d="M13.1,2.1 L13.1,2.7 C13.5,2.2 14.1,2 14.7,2 C15.9,2 16.5,2.7 16.5,4 L16.5,7.7 L15.2,7.7 L15.2,4.1 C15.2,3.7 15.1,3.5 15,3.3 C14.8,3.1 14.6,3 14.2,3 C13.7,3 13.3,3.2 13.1,3.7 L13.1,7.7 L11.8,7.7 L11.8,2.1 L13.1,2.1 L13.1,2.1 Z" id="Path"></path>
                <path d="M17.6,4.8 C17.6,3.9 17.8,3.2 18.2,2.7 C18.6,2.2 19.1,1.9 19.8,1.9 C20.4,1.9 20.9,2.1 21.3,2.6 L21.4,2 L22.5,2 L22.5,7.4 C22.5,8.1 22.3,8.7 21.8,9.1 C21.3,9.5 20.7,9.7 20,9.7 C19.6,9.7 19.2,9.6 18.8,9.4 C18.4,9.2 18.1,9 17.9,8.7 L18.5,7.9 C18.9,8.4 19.4,8.6 19.9,8.6 C20.3,8.6 20.6,8.5 20.9,8.3 C21.1,8.1 21.3,7.7 21.3,7.3 L21.3,6.9 C20.9,7.3 20.5,7.5 19.9,7.5 C19.2,7.5 18.7,7.2 18.3,6.7 C17.8,6.5 17.6,5.8 17.6,4.8 Z M18.8,5 C18.8,5.6 18.9,6 19.1,6.3 C19.3,6.6 19.6,6.8 20.1,6.8 C20.6,6.8 21,6.6 21.2,6.1 L21.2,3.6 C21,3.2 20.6,3 20.1,3 C19.7,3 19.4,3.2 19.1,3.5 C18.9,3.8 18.8,4.3 18.8,5 Z" id="Shape"></path>
                <path d="M27.2,7.1 C26.8,7.5 26.3,7.8 25.6,7.8 C25,7.8 24.5,7.6 24.2,7.3 C23.9,7 23.7,6.4 23.7,5.8 L23.7,2.2 L25,2.2 L25,5.8 C25,6.5 25.3,6.9 25.9,6.9 C26.5,6.9 26.9,6.7 27.1,6.2 L27.1,2.2 L28.4,2.2 L28.4,7.8 L27.2,7.8 L27.2,7.1 Z" id="Path"></path>
                <path d="M33,7.7 C32.9,7.6 32.9,7.4 32.9,7.2 C32.5,7.6 32,7.8 31.4,7.8 C30.8,7.8 30.4,7.6 30,7.3 C29.6,7 29.5,6.6 29.5,6.1 C29.5,5.5 29.7,5 30.2,4.7 C30.6,4.4 31.3,4.2 32.1,4.2 L32.9,4.2 L32.9,3.8 C32.9,3.5 32.8,3.3 32.7,3.1 C32.5,2.9 32.3,2.8 32,2.8 C31.7,2.8 31.5,2.9 31.3,3 C31.1,3.1 31,3.3 31,3.5 L29.7,3.5 C29.7,3.2 29.8,2.9 30,2.6 C30.2,2.3 30.5,2.1 30.8,2 C31.1,1.8 31.5,1.8 32,1.8 C32.7,1.8 33.2,2 33.6,2.3 C34,2.6 34.2,3.1 34.2,3.7 L34.2,6.2 C34.2,6.7 34.3,7.1 34.4,7.4 L34.4,7.5 L33,7.5 L33,7.7 Z M31.6,6.8 C31.8,6.8 32.1,6.7 32.3,6.6 C32.5,6.5 32.7,6.3 32.8,6.1 L32.8,5 L32.1,5 C31.6,5 31.3,5.1 31.1,5.2 C30.9,5.4 30.7,5.6 30.7,5.9 C30.7,6.1 30.8,6.3 30.9,6.5 C31,6.7 31.3,6.8 31.6,6.8 Z" id="Shape"></path>
                <path d="M35.1,4.8 C35.1,3.9 35.3,3.2 35.7,2.7 C36.1,2.2 36.6,1.9 37.3,1.9 C37.9,1.9 38.4,2.1 38.8,2.6 L38.9,2 L40,2 L40,7.4 C40,8.1 39.8,8.7 39.3,9.1 C38.8,9.5 38.2,9.7 37.5,9.7 C37.1,9.7 36.7,9.6 36.3,9.4 C35.9,9.2 35.6,9 35.4,8.7 L36,7.9 C36.4,8.4 36.9,8.6 37.4,8.6 C37.8,8.6 38.1,8.5 38.4,8.3 C38.6,8.1 38.8,7.7 38.8,7.3 L38.8,6.9 C38.4,7.3 38,7.5 37.4,7.5 C36.7,7.5 36.2,7.2 35.8,6.7 C35.3,6.5 35.1,5.8 35.1,4.8 Z M36.4,5 C36.4,5.6 36.5,6 36.7,6.3 C36.9,6.6 37.2,6.8 37.7,6.8 C38.2,6.8 38.6,6.6 38.8,6.1 L38.8,3.6 C38.6,3.2 38.2,3 37.7,3 C37.3,3 37,3.2 36.7,3.5 C36.5,3.8 36.4,4.3 36.4,5 Z" id="Shape"></path>
                <path d="M43.8,7.8 C43,7.8 42.4,7.5 41.9,7 C41.4,6.5 41.2,5.8 41.2,5 L41.2,4.8 C41.2,4.2 41.3,3.7 41.5,3.3 C41.7,2.9 42,2.5 42.4,2.3 C42.8,2.1 43.2,1.9 43.7,1.9 C44.5,1.9 45,2.1 45.5,2.6 C45.9,3.1 46.1,3.8 46.1,4.7 L46.1,5.2 L42.5,5.2 C42.5,5.7 42.7,6 43,6.3 C43.3,6.6 43.6,6.7 44,6.7 C44.6,6.7 45,6.5 45.4,6 L46.1,6.6 C45.9,6.9 45.6,7.2 45.2,7.4 C44.8,7.6 44.3,7.8 43.8,7.8 Z M43.7,3 C43.4,3 43.1,3.1 42.9,3.4 C42.7,3.6 42.6,4 42.5,4.4 L44.9,4.4 L44.9,4.3 C44.9,3.9 44.8,3.6 44.6,3.3 C44.4,3 44,3 43.7,3 Z" id="Shape"></path>
            </g>
            <g id="Group" transform="translate(227.000000, 200.000000)" fill="#19222B" fill-rule="nonzero">
                <path d="M6.3,7.7 C6,8.1 5.7,8.3 5.2,8.5 C4.7,8.7 4.2,8.8 3.6,8.8 C3,8.8 2.4,8.7 1.9,8.4 C1.4,8.1 1,7.7 0.8,7.2 C0.5,6.7 0.4,6 0.4,5.3 L0.4,4.7 C0.4,3.6 0.7,2.7 1.2,2 C1.7,1.4 2.5,1 3.5,1 C4.3,1 5,1.2 5.5,1.6 C6,2 6.3,2.6 6.4,3.4 L5.1,3.4 C5,2.5 4.4,2 3.5,2 C2.9,2 2.5,2.2 2.2,2.6 C1.9,3 1.7,3.6 1.7,4.5 L1.7,5.1 C1.7,5.9 1.9,6.5 2.2,7 C2.5,7.4 3,7.7 3.6,7.7 C4.3,7.7 4.7,7.5 5,7.2 L5,5.7 L3.5,5.7 L3.5,4.7 L6.3,4.7 L6.3,7.7 L6.3,7.7 Z" id="Path"></path>
                <path d="M10.1,8.8 C9.3,8.8 8.7,8.5 8.2,8 C7.7,7.5 7.5,6.8 7.5,6 L7.5,5.8 C7.5,5.2 7.6,4.7 7.8,4.3 C8,3.9 8.3,3.5 8.7,3.3 C9.1,3.1 9.5,2.9 10,2.9 C10.8,2.9 11.3,3.1 11.8,3.6 C12.2,4.1 12.4,4.8 12.4,5.7 L12.4,6.2 L8.8,6.2 C8.8,6.7 9,7 9.3,7.3 C9.6,7.6 9.9,7.7 10.3,7.7 C10.9,7.7 11.3,7.5 11.7,7 L12.4,7.6 C12.2,7.9 11.9,8.2 11.5,8.4 C11,8.7 10.6,8.8 10.1,8.8 Z M10,4 C9.7,4 9.4,4.1 9.2,4.4 C9,4.6 8.9,5 8.8,5.4 L11.2,5.4 L11.2,5.3 C11.2,4.9 11.1,4.6 10.9,4.3 C10.7,4 10.3,4 10,4 Z" id="Shape"></path>
                <path d="M14.5,3.1 L14.5,3.7 C14.9,3.2 15.5,3 16.1,3 C17.3,3 17.9,3.7 17.9,5 L17.9,8.7 L16.6,8.7 L16.6,5 C16.6,4.6 16.5,4.4 16.4,4.2 C16.2,4 16,3.9 15.6,3.9 C15.1,3.9 14.7,4.1 14.5,4.6 L14.5,8.6 L13.2,8.6 L13.2,3 L14.5,3 L14.5,3.1 Z" id="Path"></path>
                <path d="M19,5.8 C19,4.9 19.2,4.2 19.6,3.7 C20,3.2 20.5,2.9 21.2,2.9 C21.8,2.9 22.3,3.1 22.6,3.5 L22.6,0.6 L23.9,0.6 L23.9,8.5 L22.8,8.5 L22.7,7.9 C22.3,8.4 21.8,8.6 21.2,8.6 C20.5,8.6 20,8.3 19.6,7.8 C19.2,7.3 19,6.7 19,5.8 Z M20.2,5.9 C20.2,6.5 20.3,6.9 20.5,7.2 C20.7,7.5 21,7.7 21.4,7.7 C21.9,7.7 22.3,7.5 22.5,7 L22.5,4.6 C22.3,4.2 21.9,3.9 21.4,3.9 C21,3.9 20.7,4.1 20.5,4.4 C20.3,4.8 20.2,5.3 20.2,5.9 Z" id="Shape"></path>
                <path d="M27.6,8.8 C26.8,8.8 26.2,8.5 25.7,8 C25.2,7.5 25,6.8 25,6 L25,5.8 C25,5.2 25.1,4.7 25.3,4.3 C25.5,3.9 25.8,3.5 26.2,3.3 C26.6,3.1 27,2.9 27.5,2.9 C28.3,2.9 28.8,3.1 29.3,3.6 C29.7,4.1 29.9,4.8 29.9,5.7 L29.9,6.2 L26.3,6.2 C26.3,6.7 26.5,7 26.8,7.3 C27.1,7.6 27.4,7.7 27.8,7.7 C28.4,7.7 28.8,7.5 29.2,7 L29.9,7.6 C29.7,7.9 29.4,8.2 29,8.4 C28.5,8.7 28.1,8.8 27.6,8.8 Z M27.5,4 C27.2,4 26.9,4.1 26.7,4.4 C26.5,4.6 26.4,5 26.3,5.4 L28.7,5.4 L28.7,5.3 C28.7,4.9 28.6,4.6 28.4,4.3 C28.2,4 27.8,4 27.5,4 Z" id="Shape"></path>
                <path d="M33.8,4.2 C33.6,4.2 33.5,4.2 33.3,4.2 C32.7,4.2 32.3,4.4 32.1,4.9 L32.1,8.7 L30.8,8.7 L30.8,3.1 L32,3.1 L32,3.7 C32.3,3.2 32.7,3 33.3,3 C33.5,3 33.6,3 33.7,3.1 L33.8,4.2 Z" id="Path"></path>
            </g>
            <path d="M228.6,161.1 L294.5,161.1 C295.6,161.1 296.4,162 296.4,163 L296.4,179.6 C296.4,180.7 295.5,181.5 294.5,181.5 L228.6,181.5 C227.5,181.5 226.7,180.6 226.7,179.6 L226.7,163 C226.6,161.9 227.5,161.1 228.6,161.1 Z" id="Path" fill="#F0F4F7" fill-rule="nonzero"></path>
            <g id="Group" transform="translate(234.000000, 168.000000)" fill="#6E7681" fill-rule="nonzero">
                <polygon id="Path" points="3.2 4 0.7 4 0.7 6 3.6 6 3.6 6.6 0 6.6 0 1 3.6 1 3.6 1.6 0.8 1.6 0.8 3.4 3.3 3.4 3.3 4"></polygon>
                <path d="M5.1,2.4 L5.1,2.9 C5.4,2.5 5.8,2.3 6.4,2.3 C7.3,2.3 7.7,2.8 7.8,3.8 L7.8,6.6 L7,6.6 L7,3.8 C7,3.5 6.9,3.3 6.8,3.1 C6.7,2.9 6.5,2.9 6.2,2.9 C6,2.9 5.8,3 5.6,3.1 C5.4,3.2 5.3,3.4 5.2,3.6 L5.2,6.6 L4.5,6.6 L4.5,2.4 L5.1,2.4 L5.1,2.4 Z" id="Path"></path>
                <path d="M8.7,4.5 C8.7,3.8 8.9,3.3 9.2,2.9 C9.5,2.5 9.9,2.3 10.4,2.3 C10.9,2.3 11.3,2.5 11.6,2.8 L11.6,2.3 L12.3,2.3 L12.3,6.4 C12.3,6.9 12.1,7.4 11.8,7.7 C11.5,8 11,8.2 10.5,8.2 C10.2,8.2 9.9,8.1 9.6,8 C9.3,7.9 9.1,7.7 8.9,7.5 L9.3,7.1 C9.6,7.5 10,7.7 10.4,7.7 C10.8,7.7 11,7.6 11.2,7.4 C11.4,7.2 11.5,6.9 11.5,6.6 L11.5,6.2 C11.2,6.5 10.8,6.7 10.3,6.7 C9.8,6.7 9.4,6.5 9.1,6.1 C8.8,5.7 8.7,5.2 8.7,4.5 Z M9.4,4.6 C9.4,5.1 9.5,5.5 9.7,5.7 C9.9,5.9 10.2,6.1 10.5,6.1 C11,6.1 11.3,5.9 11.5,5.5 L11.5,3.6 C11.3,3.2 10.9,3 10.5,3 C10.1,3 9.9,3.1 9.7,3.4 C9.5,3.7 9.4,4.1 9.4,4.6 Z" id="Shape"></path>
                <polygon id="Path" points="14.1 6.7 13.4 6.7 13.4 0.7 14.1 0.7"></polygon>
                <path d="M15.3,1.3 C15.3,1.2 15.3,1.1 15.4,1 C15.5,0.9 15.6,0.9 15.7,0.9 C15.8,0.9 15.9,0.9 16,1 C16.1,1.1 16.1,1.2 16.1,1.3 C16.1,1.4 16.1,1.5 16,1.6 C15.9,1.7 15.8,1.7 15.7,1.7 C15.6,1.7 15.5,1.7 15.4,1.6 C15.3,1.5 15.3,1.4 15.3,1.3 Z M16.1,6.7 L15.4,6.7 L15.4,2.5 L16.1,2.5 L16.1,6.7 Z" id="Shape"></path>
                <path d="M19.7,5.5 C19.7,5.3 19.6,5.2 19.5,5 C19.4,4.9 19.1,4.8 18.7,4.7 C18.3,4.6 18,4.5 17.8,4.4 C17.6,4.3 17.4,4.2 17.3,4 C17.2,3.8 17.1,3.7 17.1,3.5 C17.1,3.2 17.2,2.9 17.5,2.6 C17.8,2.3 18.2,2.2 18.6,2.2 C19.1,2.2 19.5,2.3 19.8,2.6 C20.1,2.8 20.2,3.2 20.2,3.5 L19.5,3.5 C19.5,3.3 19.4,3.1 19.2,3 C19,2.9 18.8,2.8 18.6,2.8 C18.3,2.8 18.1,2.9 18,3 C17.9,3.1 17.8,3.3 17.8,3.4 C17.8,3.6 17.9,3.7 18,3.8 C18.1,3.9 18.4,4 18.7,4.1 C19.1,4.2 19.4,4.3 19.6,4.4 C19.8,4.5 20,4.6 20.1,4.8 C20.2,5 20.3,5.1 20.3,5.4 C20.3,5.8 20.1,6.1 19.8,6.3 C19.5,6.5 19.1,6.6 18.6,6.6 C18.3,6.6 18,6.5 17.7,6.4 C17.4,6.3 17.2,6.1 17.1,5.9 C17,5.7 16.9,5.5 16.9,5.2 L17.6,5.2 C17.6,5.4 17.7,5.6 17.9,5.8 C18.1,5.9 18.3,6 18.6,6 C18.9,6 19.1,5.9 19.3,5.8 C19.6,5.9 19.7,5.7 19.7,5.5 Z" id="Path"></path>
                <path d="M22.1,2.9 C22.4,2.5 22.8,2.3 23.3,2.3 C24.2,2.3 24.6,2.8 24.7,3.8 L24.7,6.6 L24,6.6 L24,3.8 C24,3.5 23.9,3.3 23.8,3.1 C23.7,2.9 23.5,2.9 23.2,2.9 C23,2.9 22.8,3 22.6,3.1 C22.4,3.2 22.3,3.4 22.2,3.6 L22.2,6.6 L21.5,6.6 L21.5,0.6 L22.2,0.6 L22.2,2.9 L22.1,2.9 Z" id="Path"></path>
            </g>
            <polygon id="Path" fill="#959EA8" fill-rule="nonzero" points="286.3 172.9 289.7 169.7 283 169.7"></polygon>
            <path d="M228.6,215.1 L294.5,215.1 C295.6,215.1 296.4,216 296.4,217 L296.4,233.6 C296.4,234.7 295.5,235.5 294.5,235.5 L228.6,235.5 C227.5,235.5 226.7,234.6 226.7,233.6 L226.7,217 C226.6,215.9 227.5,215.1 228.6,215.1 Z" id="Path" fill="#F0F4F7" fill-rule="nonzero"></path>
            <polygon id="Path" fill="#6E7681" fill-rule="nonzero" points="237.1 226.1 234.7 226.1 234.7 228.6 234 228.6 234 223 237.5 223 237.5 223.6 234.7 223.6 234.7 225.5 237.1 225.5"></polygon>
            <g id="Group" transform="translate(238.000000, 222.000000)" fill="#6E7681" fill-rule="nonzero">
                <path d="M2,6.7 C1.4,6.7 1,6.5 0.6,6.1 C0.2,5.7 0.1,5.2 0.1,4.6 L0.1,4.5 C0.1,4.1 0.2,3.7 0.3,3.4 C0.4,3.1 0.7,2.8 1,2.6 C1.3,2.4 1.6,2.3 1.9,2.3 C2.4,2.3 2.9,2.5 3.2,2.8 C3.5,3.1 3.7,3.7 3.7,4.4 L3.7,4.7 L0.8,4.7 C0.8,5.1 0.9,5.5 1.2,5.7 C1.4,6 1.7,6.1 2.1,6.1 C2.4,6.1 2.6,6 2.7,5.9 C2.9,5.8 3,5.7 3.2,5.5 L3.6,5.8 C3.2,6.4 2.7,6.7 2,6.7 Z M1.9,2.9 C1.6,2.9 1.4,3 1.2,3.2 C1,3.4 0.9,3.7 0.8,4.1 L2.9,4.1 L2.9,4 C2.9,3.6 2.8,3.3 2.6,3.1 C2.4,3 2.2,2.9 1.9,2.9 Z" id="Shape"></path>
                <path d="M5.2,2.4 L5.2,2.9 C5.5,2.5 5.9,2.4 6.5,2.4 C7.1,2.4 7.5,2.6 7.7,3.1 C7.8,2.9 8,2.7 8.2,2.6 C8.4,2.5 8.7,2.4 9,2.4 C9.9,2.4 10.4,2.9 10.4,3.9 L10.4,6.7 L9.7,6.7 L9.7,3.9 C9.7,3.6 9.6,3.4 9.5,3.2 C9.4,3.1 9.1,3 8.8,3 C8.5,3 8.3,3.1 8.1,3.2 C7.9,3.4 7.8,3.6 7.8,3.8 L7.8,6.6 L7.1,6.6 L7.1,3.8 C7.1,3.2 6.8,2.9 6.2,2.9 C5.7,2.9 5.4,3.1 5.2,3.5 L5.2,6.6 L4.5,6.6 L4.5,2.4 L5.2,2.4 Z" id="Path"></path>
                <path d="M14.1,6.6 C14.1,6.5 14,6.4 14,6.2 C13.7,6.5 13.3,6.7 12.8,6.7 C12.4,6.7 12,6.6 11.8,6.3 C11.5,6.1 11.4,5.8 11.4,5.4 C11.4,5 11.6,4.6 11.9,4.4 C12.2,4.2 12.7,4 13.3,4 L14,4 L14,3.7 C14,3.4 13.9,3.2 13.8,3.1 C13.6,3 13.4,2.9 13.1,2.9 C12.8,2.9 12.6,3 12.5,3.1 C12.3,3.2 12.2,3.4 12.2,3.6 L11.5,3.6 C11.5,3.4 11.6,3.2 11.7,3 C11.8,2.8 12.1,2.6 12.3,2.5 C12.6,2.4 12.8,2.3 13.1,2.3 C13.6,2.3 14,2.4 14.2,2.7 C14.5,2.9 14.6,3.3 14.6,3.7 L14.6,5.6 C14.6,6 14.6,6.3 14.7,6.5 L14.7,6.6 L14.1,6.6 Z M12.9,6.1 C13.1,6.1 13.3,6 13.5,5.9 C13.7,5.8 13.8,5.6 13.9,5.4 L13.9,4.5 L13.3,4.5 C12.4,4.5 12,4.8 12,5.3 C12,5.5 12.1,5.7 12.2,5.8 C12.5,6 12.7,6.1 12.9,6.1 Z" id="Shape"></path>
                <polygon id="Path" points="16.6 6.6 15.9 6.6 15.9 0.6 16.6 0.6"></polygon>
                <path d="M19.5,6.7 C18.9,6.7 18.5,6.5 18.1,6.1 C17.7,5.7 17.6,5.2 17.6,4.6 L17.6,4.5 C17.6,4.1 17.7,3.7 17.8,3.4 C17.9,3.1 18.2,2.8 18.5,2.6 C18.8,2.4 19.1,2.3 19.4,2.3 C19.9,2.3 20.4,2.5 20.7,2.8 C21,3.1 21.2,3.7 21.2,4.4 L21.2,4.7 L18.3,4.7 C18.3,5.1 18.4,5.5 18.7,5.7 C18.9,6 19.2,6.1 19.6,6.1 C19.9,6.1 20.1,6 20.2,5.9 C20.4,5.8 20.5,5.7 20.7,5.5 L21.1,5.8 C20.8,6.4 20.2,6.7 19.5,6.7 Z M19.4,2.9 C19.1,2.9 18.9,3 18.7,3.2 C18.5,3.4 18.4,3.7 18.3,4.1 L20.4,4.1 L20.4,4 C20.4,3.6 20.3,3.3 20.1,3.1 C20,3 19.7,2.9 19.4,2.9 Z" id="Shape"></path>
            </g>
            <polygon id="Path" fill="#959EA8" fill-rule="nonzero" points="286.3 226.9 289.7 223.7 283 223.7"></polygon>
        </g>
    </g>
</svg>