<?xml version="1.0" encoding="utf-8"?>
<svg xmlns="http://www.w3.org/2000/svg" width="200" height="200" viewBox="0 0 200 200">
  <path fill="#4F5963" d="M85.2041405,46 L96.2802909,46 L96.2802909,0 L85.2041405,0 L85.2041405,46 Z M65.7458986,32.8860445 C65.7263629,34.5209167 64.4100236,35.8414675 62.7803653,35.8610657 L56.3425468,35.8610657 C54.7134624,35.8401016 53.3979107,34.520341 53.3770135,32.8860445 L53.3770135,14.340795 L42.3008631,14.340795 L42.3008631,33.793854 C42.3008631,41.7462644 47.3942376,45.9325627 54.8533165,45.9325627 L65.67092,45.9325627 C72.5586102,45.9325627 76.7470704,40.9551734 76.7470704,33.793854 L76.7470704,14.340795 L65.67092,14.340795 C65.753655,14.340795 65.753655,32.2972653 65.753655,32.8860445 L65.7458986,32.8860445 Z M128.006585,14.340795 L128.006585,32.8860445 C127.985657,34.5213361 126.66856,35.8414965 125.038466,35.8610657 L118.603233,35.8610657 C116.973574,35.8414675 115.657235,34.5209167 115.637699,32.8860445 L115.637699,14.340795 L104.558964,14.340795 L104.558964,33.793854 C104.558964,41.7462644 109.654924,45.9325627 117.111417,45.9325627 L127.921264,45.9325627 C134.808954,45.9325627 139,40.9551734 139,33.793854 L139,14.340795 L128.006585,14.340795 Z M21.9040958,14.340795 L14.814739,14.340795 C12.3016629,14.340795 11.0787359,14.9788554 11.0787359,14.9788554 L11.0787359,0 L0,0 L0,45.9325627 L11.0115137,45.9325627 L11.0115137,27.4547505 C11.0310494,25.8198783 12.3473887,24.4993275 13.977047,24.4797293 L20.4252074,24.4797293 C22.0553014,24.4992985 23.3723988,25.8194589 23.3933261,27.4547505 L23.3933261,46 L34.4694766,46 L34.4694766,25.976318 C34.4694766,17.5700028 28.8719356,14.340795 21.9170232,14.340795 L21.9040958,14.340795 Z" transform="translate(31 77)"/>
</svg>
