<?xml version="1.0" encoding="utf-8"?>
<svg xmlns="http://www.w3.org/2000/svg" width="200" height="200" viewBox="0 0 200 200">
  <g fill="#4F5963" transform="translate(30 37)">
    <path d="M61.6370305,28.8007505 C54.9355412,27.2029771 48.4974439,30.4018595 46.8970882,32.2831625 C45.8168482,32.8235368 52.0115581,26.6626028 52.5150033,21.5690748 C52.7750611,17.8064687 50.6345855,9.50405146 50.0944654,7.0823741 L53.3151812,4.66069675 C55.735719,7.0823741 63.4941098,11.362005 66.9848855,3.32643926 C65.3845299,4.66069675 60.0266726,4.40718783 57.0660147,0.904761905 L50.0944654,6.25179881 C49.5543454,4.65068982 51.9748833,2.22901247 52.5150033,1.68863818 C53.0551234,1.42845797 52.7750611,0.607889612 51.7148255,1.1482639 C48.2373861,3.55659867 43.6763725,6.50864338 46.0969104,17.7731123 C48.2373861,27.1596138 47.4305401,30.3818456 44.2164926,33.860922 C44.2164926,34.4012963 45.0166704,34.1211022 45.0166704,34.6614765 C47.157146,33.327219 57.0760169,29.8381357 62.6872638,35.7422251 L66.9682152,27.1596138 C66.9682152,27.1596138 66.7081574,26.6192395 66.4280951,26.6192395 C66.1880418,27.1796276 64.310958,29.3211109 61.6303623,28.8007505 L61.6370305,28.8007505 Z M19.5576795,44.9519374 C19.5576795,44.9519374 25.1789287,59.6988184 27.8561903,66.9338297 C31.076906,75.7766212 31.617026,73.3749577 32.1371416,72.8345834 C32.6739275,76.6071965 26.7759502,79.00886 25.1789287,75.272939 L22.2382752,67.7644049 L9.63880862,67.7644049 L8.30517893,70.9632873 C9.10535675,71.2234675 10.1855968,71.2234675 11.2458324,72.0440359 C12.5794621,72.8445904 13.6663703,71.5036616 13.6663703,71.5036616 C13.923094,71.246817 13.923094,71.5036616 14.2064903,71.5036616 L10.9857746,77.1275569 C8.31851523,74.4590419 3.20404534,74.9860736 0.266725939,77.1275569 L0,76.8673767 C0,74.7258934 5.36119138,70.7064427 7.23827517,70.9632873 C7.78172927,70.1627328 15.8201823,50.3156526 15.8201823,50.3156526 C13.6697044,44.4115632 12.3360747,45.4923117 10.7190487,46.2928662 C10.4589909,46.032686 10.7190487,45.4923117 11.5192265,44.4115632 C13.3996444,41.7430482 17.4205379,41.7430482 18.7575017,43.8711889 C19.1802092,43.6965577 19.6338322,43.6091942 20.0911314,43.6143443 L19.2909535,44.6950929 L19.5510113,44.9519374 L19.5576795,44.9519374 Z M20.3578573,62.6308492 L16.0802401,52.1535923 L11.7992887,62.6175067 L20.3578573,62.6308492 Z M74.7532785,72.2708596 L75.2933985,71.7304853 L75.2933985,59.655455 L74.7532785,59.1150807 L84.6854857,53.494521 L91.6436986,61.5367581 C89.2231607,63.1378671 80.3845299,69.3221506 80.3845299,69.3221506 L85.7423872,73.3416013 C87.0760169,72.801227 89.5032229,70.6730863 90.0233385,69.8625249 C91.1035786,68.2614159 92.1604801,69.6023446 91.3569682,70.4028991 C91.0969104,70.9432734 85.4556568,75.2229043 82.5150033,77.9047619 L74.7532785,72.2708596 Z M86.5759058,63.9317503 L80.9579907,56.9669262 L80.9579907,67.951201 L86.5759058,63.9317503 Z M67.7517226,17.2761014 L77.650589,10.5614505 L84.8688597,15.6416359 L84.608802,16.1820102 L84.608802,27.7200019 L84.8688597,28.2603762 L74.9699933,35.2218647 L68.0151145,30.1416793 L68.5552345,29.601305 L68.5552345,17.8164756 L67.7517226,17.2761014 Z M73.6830407,27.4831712 L79.087575,32.0663457 L79.087575,17.4929182 L73.6830407,13.450118 L73.6830407,27.4831712 Z M95.121138,22.0760927 L99.4020894,17.7964618 L105,20.4649768 L104.739942,21.2655313 L104.739942,28.2403623 L105,28.7807366 L95.3545232,34.9416706 C89.9933319,28.5205564 87.5961325,33.0603675 87.5961325,34.4012963 C84.655479,31.7327813 87.8528562,29.3211109 87.8528562,29.3211109 L90.7935097,25.8386988 L87.572794,23.7005512 L87.8328517,23.1568413 L87.8328517,16.7590766 L87.5694599,16.2320449 C91.0702378,14.0705477 94.3142921,12.1892447 98.0951323,10.2845921 C98.8953101,11.895708 101.05579,12.6929269 102.689487,11.895708 L103.769727,11.0984892 C104.029784,12.4327467 102.969549,14.8811092 100.809069,15.9618577 C98.9286508,16.7624122 97.3082907,16.2220379 95.4078684,15.4214834 L93.2473883,13.5401804 L93.2473883,20.7785273 L95.1244721,22.0760927 L95.121138,22.0760927 Z M95.704601,22.0994422 L89.5365637,28.5439059 C91.6770393,27.7433514 95.9779951,26.9427969 99.4554345,30.6820535 L99.4554345,23.9807453 L95.704601,22.0994422 Z"/>
    <line x1="61" x2="61" y1="7.905" y2="29.905"/>
    <path d="M39.8345542,59.8406753 L39.8345542,70.6305214 L41.1480172,71.9621901 C41.6799697,72.501516 42.2119222,71.9621901 42.7438747,71.7025147 L43,71.9621901 L39.0234908,77.9047619 L33.441273,73.0475001 L33.9732256,72.5081743 L33.9732256,60.6396766 L31.8519828,58.4923607 C31.3951394,58.0870473 30.7129687,58.0870473 30.2561253,58.4923607 L30,58.2326853 L34.2687547,53.9047619 L40.3796413,58.7586945 L39.8476888,59.8373462 L39.8345542,59.8406753 Z"/>
    <path d="M49.4243013,59.8480952 L49.4243013,70.6314286 L51.0811665,71.9647619 C51.6323208,72.5047619 52.1834751,71.9647619 52.7346294,71.7047619 L53,71.9647619 L48.873147,77.9047619 L43.0894289,73.0447619 L43.6405832,72.5047619 L43.6405832,60.6480952 L41.1773998,58.4980952 C40.9120292,58.2380952 40.3404617,58.4980952 39.8165249,59.0380952 L39,58.2380952 L43.963791,53.9047619 L50.2918591,58.7647619 L49.4311057,59.8447619 L49.4243013,59.8480952 Z"/>
    <path d="M70.908291,58.840804 L70.3661591,59.3796672 L70.3661591,73.0175619 C70.3661591,74.893604 71.7047565,75.6786145 73.043354,74.0952882 C73.043354,88.238783 62.0233503,84.509983 57.9841324,83.4322566 C54.2327129,82.6339409 52.3452905,83.4322566 51.8031585,83.9711198 C51.2610265,84.7694356 51,83.9711198 51,83.7116672 C53.148449,80.4984461 56.9232939,77.0290987 62.8231622,79.444004 C69.2651626,81.8589093 71.1525851,78.9051409 71.9557436,76.5101935 C68.2009776,79.1712461 65.2292912,75.7118777 65.2292912,74.9135619 L60.3936078,78.126783 L53.406129,72.7813935 L53.9516074,72.2425303 L53.9516074,61.0195409 L53.6905809,60.4806777 L63.6229742,53.5386566 L70.8915586,58.840804 L70.908291,58.840804 Z M59.6707652,69.837604 L65.0954315,74.4079619 L65.0954315,60.673604 L59.6707652,56.6421093 L59.6707652,69.837604 Z M98.9351758,52.0917093 L98.9351758,70.3864461 L100.561572,71.7169724 C100.822598,72.2558356 101.645836,71.7169724 102.187968,71.4575198 L102.448994,71.7169724 L98.3930438,77.6644251 L93.2528295,72.8146566 L93.5105095,72.2757935 L93.5105095,52.8900251 L91.0809551,50.7345724 C90.8232751,50.1957093 89.7423576,50.1957093 89.4545591,50.7345724 L89.1935326,50.4751198 L93.5439744,45.9047619 L99.7684527,51.013983 L98.9351758,52.0917093 Z M104.098816,72.2192461 L104.640948,71.680383 L104.640948,59.6391198 L104.098816,59.1002566 L114.054634,53.4954145 L121.038767,61.5151619 C118.609212,63.1117935 109.737657,69.278783 109.737657,69.278783 L115.125512,73.2869935 C116.46411,72.7481303 118.900357,70.6259409 119.442489,69.8176461 C120.506674,68.2210145 121.590938,69.5581935 120.781087,70.3565093 C120.52006,70.8953724 114.600113,75.1630356 111.909532,77.8373935 L104.098816,72.2192461 Z M115.831622,63.9034566 L109.911675,56.9581093 L109.911675,67.9116672 L115.831622,63.9034566 Z M130.084339,64.159583 L134.100132,59.9118777 L139.718895,62.5729303 L139.457868,63.3712461 L139.457868,70.3332251 L140,70.8720882 L130.067607,77.0191198 C124.96755,70.6159619 122.537996,75.1430777 122.537996,76.4802566 C119.305283,73.819204 122.537996,71.4109514 122.537996,71.4109514 L125.770709,67.941604 L122.276969,65.8061093 L122.822448,65.2672461 L122.822448,58.8640882 L122.541342,58.3252251 C125.846557,56.1340635 129.288063,54.1531587 132.845196,52.394404 C133.92946,54.0109935 135.816883,54.8093093 137.727731,54.0109935 L138.811995,53.216004 C138.811995,54.5731409 137.727731,56.9880461 135.840308,58.0657724 C133.67178,58.8640882 132.042038,58.3252251 130.151269,57.5269093 L128.243768,55.6508672 L128.243768,62.8722987 L130.087686,64.1662356 L130.084339,64.159583 Z M130.669976,64.1828672 L124.495695,70.6159619 C127.847267,69.1946131 131.737328,70.0519271 134.170408,72.7481303 L134.170408,66.0655619 L130.669976,64.1828672 Z M120.714157,111.23693 L124.987629,106.965941 L130.606392,109.626993 L130.345366,110.421983 L130.345366,117.387288 L130.887498,117.926151 L120.931679,124.073183 C115.550517,117.666699 113.144388,122.197141 113.144388,123.530993 C110.192781,120.869941 113.402068,118.465015 113.402068,118.465015 L116.353676,114.995667 L113.117616,112.85352 L113.378643,112.314657 L113.378643,105.911499 L113.097537,105.372636 C116.611356,103.213857 119.864147,101.337815 123.659071,99.4418145 C124.46223,101.058404 126.630758,101.85672 128.2605,101.058404 L129.344764,100.260088 C129.62587,101.620551 128.541606,104.035457 126.373078,105.113183 C124.485655,105.911499 122.859259,105.372636 120.948411,104.57432 L118.779883,102.698278 L118.779883,109.919709 L120.71081,111.250236 L120.714157,111.23693 Z M121.16928,111.256888 L115.245986,117.68333 C118.598157,116.26171 122.488982,117.12053 124.920699,119.818825 L124.920699,113.13293 L121.16928,111.256888 L121.16928,111.256888 Z M94.062681,119.256678 L94.6048129,118.717815 L94.6048129,106.706488 L94.042602,106.167625 L104.001767,100.562783 L110.9859,108.58253 C108.837451,110.179162 99.9658958,116.346151 99.9658958,116.346151 L105.086031,120.357688 C106.424629,119.818825 109.118556,117.696636 109.660688,116.885015 C110.748299,115.288383 111.809137,116.625562 110.999286,117.423878 C110.457154,117.962741 104.818312,122.23373 101.846625,124.904762 L94.035909,119.250025 L94.062681,119.256678 Z M106.210453,110.977478 L100.290506,104.035457 L100.290506,114.989015 L106.210453,110.977478 Z M68.8568904,106.653267 L68.8568904,117.457141 L70.4832863,118.814278 C71.0254183,119.353141 71.5675503,118.814278 72.1130288,118.554825 L72.3941342,118.814278 L68.3381839,124.741772 L63.194623,119.892004 L63.479075,119.353141 L63.479075,107.225393 L61.0260951,105.349351 C60.5605095,104.944386 59.8652848,104.944386 59.3996992,105.349351 L59.1386727,105.089899 L63.4891145,100.765688 L69.7135928,105.615457 L68.8669299,106.653267 L68.8568904,106.653267 Z"/>
    <path d="M79.4380906,106.858948 L79.4380906,117.634458 L81.0867458,118.967236 C81.3750909,119.507011 81.9246426,118.967236 82.7387933,118.707344 L83,118.967236 L78.8885389,124.904762 L73.3930216,120.046786 L73.9425733,119.507011 L73.9425733,107.375399 L71.1948146,105.496182 C70.9302157,105.23629 70.0923189,105.496182 69.8378968,106.035957 L69,105.23629 L73.9493579,100.904762 L80.2590259,105.762738 L79.4448752,106.84562 L79.4380906,106.858948 Z"/>
    <path d="M88.5104518,106.654262 L88.5104518,117.549481 L90.1256141,118.91978 C90.6640015,119.463869 91.202389,118.91978 91.7407764,118.657811 L92,118.91978 L87.9720643,124.904762 L82.8673538,120.007959 L83.1465177,119.463869 L83.1465177,107.218502 L80.7104807,105.324266 C80.1720932,105.062297 79.6337058,105.324266 79.0953184,105.868355 L78.2977073,105.062297 L83.1465177,100.696148 L89.3280031,105.592952 L88.5104518,106.640827 L88.5104518,106.654262 Z M56.3467874,106.654262 L56.3467874,117.515895 L57.9619497,118.859326 C58.244437,119.403415 58.7828244,118.859326 59.5804354,118.597357 L59.8363356,118.859326 L55.8084,124.844308 L50.4245256,119.947504 L50.962913,119.403415 L50.962913,107.174841 L48.5501397,105.280604 C48.0117522,105.018635 47.220788,104.736515 46.9349774,105.280604 L46.6757538,105.018635 L50.9961468,100.652487 L57.1809556,105.54929 L56.3600809,106.640827 L56.3467874,106.654262 Z M48.0981601,99.1411278 C48.8957711,98.5970385 49.972546,98.3350696 51.3085445,99.685217 C52.6378962,100.773396 55.8516039,100.491275 58.244437,96.4408329 L57.9852134,96.1822226 C57.1876024,96.7263118 53.977218,96.4408329 52.9004431,94.5701062 L48.0981601,99.1411278 Z M23,99.9471859 L23,100.209155 C24.0568346,98.5970385 26.2103844,94.8085651 36.0974376,97.2468911 C43.0333301,99.1411278 48.1181004,99.9337516 49.7232926,93.1998073 L49.1849051,92.9378384 C48.6465177,93.7438966 45.7152972,94.2812687 36.6258549,92.3937492 C27.5330893,90.7614814 23.2691937,93.1998073 23,99.9471859 Z"/>
    <path d="M41.7577976,100.505285 C33.2934276,95.3560219 19.2826417,103.19771 22.4604814,115.929515 C25.8916271,128.647857 45.192233,130.259947 48.8997126,114.583302 C49.1563084,114.038086 48.8997126,113.23709 48.366783,114.583302 C47.0509073,117.548335 42.8236569,121.344654 38.0470283,121.344654 C32.4808744,121.344654 27.7272736,115.673734 27.7272736,110.524471 C27.7272736,105.375209 31.1584193,99.9667998 38.0470283,99.9667998 C36.4482394,101.053866 30.9051133,104.56075 34.3494178,110.780252 C37.7838532,117.282458 37.5272574,119.157059 36.2048024,121.337923 L36.4613982,121.600435 C38.5733786,119.439764 43.0703835,116.451172 39.6392378,109.972524 C36.2146715,103.211172 36.4679775,99.1523412 41.7577976,100.505285 Z"/>
    <line x1="44" x2="44" y1="97.905" y2="120.905"/>
  </g>
</svg>
