<?xml version="1.0" encoding="utf-8"?>
<svg xmlns="http://www.w3.org/2000/svg" width="200" height="200" viewBox="0 0 200 200">
  <g fill="#4F5963" transform="translate(0 79)">
    <path d="M199.725301,19.2891566 L199.725301,15.7759036 L195.366265,15.7759036 L195.366265,10.3084337 L195.226506,10.3566265 L191.13012,11.6048193 L191.050602,11.6361446 L191.050602,15.7759036 L184.590361,15.7759036 L184.590361,13.4650602 C184.590361,12.3855422 184.831325,11.573494 185.313253,11.026506 C185.795181,10.4795181 186.453012,10.2144578 187.313253,10.2144578 C187.966776,10.2264005 188.61046,10.3758272 189.20241,10.653012 L189.359036,10.7301205 L189.359036,7.02891566 L189.279518,6.99759036 C187.333981,6.42606987 185.244933,6.60402584 183.424096,7.49638554 C182.429836,8.02870171 181.610619,8.83704054 181.06506,9.82409639 C180.502838,10.878238 180.219174,12.0585106 180.240964,13.253012 L180.240964,15.7831325 L177.20241,15.7831325 L177.20241,19.2891566 L180.240964,19.2891566 L180.240964,34.0819277 L184.6,34.0819277 L184.6,19.2891566 L191.06506,19.2891566 L191.06506,28.686747 C191.06506,32.5590361 192.893976,34.5277108 196.501205,34.5277108 C197.125663,34.5220411 197.748007,34.4542371 198.359036,34.3253012 C198.823258,34.2421665 199.275058,34.100473 199.703614,33.9036145 L199.766265,33.8722892 L199.766265,30.3325301 L199.592771,30.4578313 C199.323506,30.6297122 199.028085,30.7566698 198.718072,30.8337349 C198.441456,30.9259515 198.151823,30.9731388 197.860241,30.973494 C197.016867,30.973494 196.392771,30.7325301 196.00241,30.3012048 C195.612048,29.8698795 195.407229,29.053012 195.407229,27.9421687 L195.407229,19.2891566 L199.725301,19.2891566 Z M167.436145,30.9566265 C165.860241,30.9566265 164.609639,30.426506 163.720482,29.3951807 C162.831325,28.3638554 162.392771,26.8819277 162.392771,24.9903614 C162.392771,23.0626506 162.845783,21.5228916 163.720482,20.4771084 C164.595181,19.4313253 165.828916,18.8987952 167.390361,18.8987952 C168.906024,18.8987952 170.108434,19.4144578 170.966265,20.4144578 C171.824096,21.4144578 172.289157,22.9301205 172.289157,24.8963855 C172.289157,26.8626506 171.881928,28.4120482 171.055422,29.426506 C170.228916,30.4409639 169.040964,30.9566265 167.440964,30.9566265 M167.628916,15.3373494 C164.614458,15.3373494 162.209639,16.2289157 160.506024,17.9614458 C158.80241,19.6939759 157.927711,22.1180723 157.927711,25.146988 C157.927711,28.0216867 158.771084,30.3180723 160.440964,32.0048193 C162.110843,33.6915663 164.378313,34.5349398 167.187952,34.5349398 C170.108434,34.5349398 172.46747,33.6433735 174.175904,31.8626506 C175.884337,30.0819277 176.754217,27.7084337 176.754217,24.7566265 C176.754217,21.8506024 175.942169,19.5253012 174.344578,17.853012 C172.746988,16.1807229 170.489157,15.3373494 167.643373,15.3373494 M150.915663,15.3373494 C148.86988,15.3373494 147.166265,15.8698795 145.86988,16.9012048 C144.594733,17.8583393 143.856964,19.3697357 143.886747,20.9638554 C143.869634,21.7398742 144.013203,22.511046 144.308434,23.2289157 C144.601207,23.8897807 145.045289,24.4725348 145.604819,24.9301205 C146.420411,25.5374963 147.311388,26.0364433 148.255422,26.4144578 C149.012172,26.7058897 149.747343,27.0505262 150.455422,27.4457831 C150.828514,27.6419697 151.156744,27.9135802 151.419277,28.2433735 C151.609576,28.5517718 151.702766,28.9102578 151.686747,29.2722892 C151.686747,30.5060241 150.763855,31.1012048 148.874699,31.1012048 C148.059635,31.0833142 147.252669,30.935262 146.484337,30.6626506 C145.611937,30.3833566 144.789588,29.966895 144.048193,29.4289157 L143.860241,29.3036145 L143.860241,33.4939759 L143.922892,33.5253012 C144.663648,33.8521026 145.438797,34.0945893 146.233735,34.2481928 C147.045637,34.4188885 147.871724,34.5132754 148.701205,34.5301205 C150.93494,34.5301205 152.73253,33.9975904 154.028916,32.9518072 C155.31362,31.9617521 156.050058,30.4190799 156.012048,28.7975904 C156.042718,27.6601024 155.665834,26.5491065 154.949398,25.6650602 C154.248193,24.8216867 153.021687,24.0409639 151.33494,23.3542169 C149.978313,22.8072289 149.103614,22.3542169 148.742169,22.0096386 C148.384112,21.6325306 148.198295,21.1239311 148.228916,20.6048193 C148.224673,20.0874125 148.468318,19.5992274 148.884337,19.2915663 C149.429068,18.9166375 150.081607,18.7304398 150.742169,18.7614458 C152.209959,18.7842664 153.642785,19.2129466 154.881928,20 L155.053012,20.1253012 L155.053012,16.1445783 L154.990361,16.113253 C154.362007,15.8592517 153.707395,15.6757986 153.038554,15.5662651 C152.334175,15.4234605 151.617498,15.3500172 150.898795,15.346988 M132.515663,30.9662651 C130.937349,30.9662651 129.686747,30.4361446 128.812048,29.4048193 C127.937349,28.373494 127.484337,26.8915663 127.484337,25 C127.484337,23.0722892 127.937349,21.5325301 128.812048,20.486747 C129.686747,19.4409639 130.920482,18.9084337 132.484337,18.9084337 C133.99759,18.9084337 135.20241,19.4240964 136.060241,20.4240964 C136.918072,21.4240964 137.373494,22.939759 137.373494,24.9060241 C137.373494,26.8722892 136.966265,28.4216867 136.137349,29.4361446 C135.308434,30.4506024 134.108434,30.9662651 132.522892,30.9662651 M132.708434,15.346988 C129.693976,15.346988 127.289157,16.2385542 125.587952,17.9710843 C123.886747,19.7036145 123.009639,22.1277108 123.009639,25.1566265 C123.009639,28.0313253 123.853012,30.3277108 125.525301,32.0144578 C127.19759,33.7012048 129.460241,34.5445783 132.272289,34.5445783 C135.192771,34.5445783 137.551807,33.653012 139.260241,31.8722892 C140.968675,30.0915663 141.838554,27.7180723 141.838554,24.7662651 C141.838554,21.860241 141.026506,19.5349398 139.416867,17.8626506 C137.807229,16.1903614 135.561446,15.346988 132.715663,15.346988 M116.385542,18.946988 L116.385542,15.7759036 L112.06988,15.7759036 L112.06988,34.0891566 L116.385542,34.0891566 L116.385542,24.7108434 C116.385542,23.1156627 116.744578,21.8048193 117.462651,20.8216867 C118.076786,19.8892131 119.124548,19.3348895 120.240964,19.3518072 C120.679244,19.3600964 121.114761,19.4232382 121.537349,19.539759 C121.891741,19.6165981 122.230099,19.7543875 122.537349,19.946988 L122.722892,20.0698795 L122.722892,15.7325301 L122.660241,15.7012048 C122.118629,15.513532 121.54599,15.4317264 120.973494,15.460241 C119.923252,15.4477638 118.903632,15.8138689 118.101205,16.4915663 C117.346331,17.1511534 116.775872,17.9956327 116.445783,18.9421687 L116.385542,18.946988 Z M104.373494,15.3325301 C102.548702,15.2929642 100.745022,15.7289366 99.139759,16.5975904 C97.6601282,17.4074538 96.4579594,18.6432027 95.6891566,20.1445783 C94.8766429,21.7780646 94.4691866,23.5831043 94.5012048,25.4072289 C94.4833134,27.0512789 94.8829349,28.6729793 95.6626506,30.1204819 C96.4029952,31.4923298 97.5188301,32.6248814 98.8795181,33.3855422 C100.322674,34.1629608 101.941769,34.5554938 103.580723,34.5253012 C105.628916,34.5253012 107.378313,34.1180723 108.783133,33.3060241 L108.845783,33.2746988 L108.845783,29.3228916 L108.657831,29.4481928 C108.015538,29.9192343 107.304343,30.2882431 106.549398,30.5421687 C105.888785,30.789611 105.19188,30.9263868 104.486747,30.946988 C102.8,30.946988 101.440964,30.4168675 100.457831,29.3710843 C99.4746988,28.3253012 98.973494,26.8554217 98.973494,25.0120482 C98.973494,23.1686747 99.4891566,21.6554217 100.520482,20.5445783 C101.551807,19.4337349 102.910843,18.8746988 104.566265,18.8746988 C105.987952,18.8746988 107.361446,19.3566265 108.662651,20.2963855 L108.848193,20.4216867 L108.848193,16.2746988 L108.785542,16.2433735 C108.158649,15.9173632 107.484651,15.6913422 106.787952,15.573494 C105.990307,15.4157705 105.17935,15.3350781 104.366265,15.3325301 M91.5108434,15.7710843 L87.2024096,15.7710843 L87.2024096,34.0843373 L91.513253,34.0843373 L91.5108434,15.7710843 Z M89.3975904,7.98072289 C88.7167341,7.96857574 88.0592148,8.22880766 87.5710843,8.70361446 C87.0673021,9.16350393 86.7877566,9.81929301 86.8048193,10.5012048 C86.7911949,11.1726893 87.070991,11.8167482 87.5710843,12.2650602 C88.0680891,12.7345045 88.7310582,12.9875594 89.4144578,12.9686747 C90.1015334,12.9838529 90.7676454,12.731577 91.2722892,12.2650602 C91.776442,11.8168387 92.0598207,11.170876 92.0481928,10.4963855 C92.0501846,9.8252703 91.7787261,9.18229657 91.2963855,8.71566265 C90.7938092,8.21634551 90.1053681,7.94988036 89.3975904,7.98072289 M78.660241,14.4168675 L78.660241,34.0819277 L83.0481928,34.0819277 L83.0481928,8.53975904 L76.973494,8.53975904 L69.2409639,27.5180723 L61.7445783,8.52771084 L55.4216867,8.52771084 L55.4216867,34.0819277 L59.5421687,34.0819277 L59.5421687,14.4168675 L59.6819277,14.4168675 L67.6,34.0819277 L70.7325301,34.0819277 L78.5253012,14.4168675 L78.660241,14.4168675 Z"/>
    <polygon points="20.258 20.258 0 20.258 0 0 20.258 0"/>
    <polygon points="42.624 20.258 22.366 20.258 22.366 0 42.624 0"/>
    <polygon points="20.258 42.651 0 42.651 0 22.383 20.258 22.383"/>
    <polygon points="42.624 42.651 22.366 42.651 22.366 22.383 42.624 22.383"/>
  </g>
</svg>
