<?xml version="1.0" encoding="utf-8"?>
<svg xmlns="http://www.w3.org/2000/svg" width="200" height="200" viewBox="0 0 200 200">
  <g fill="#4F5963" transform="translate(0 71)">
    <path d="M69.1155624 31.7812018C67.4175655 30.8567026 66.5177196 30.0832049 66.5177196 29.0077042 66.5177196 27.6086287 67.7503852 26.770416 69.6548536 26.770416 71.1071775 26.7986739 72.539701 27.1128238 73.8705701 27.6949153L75.4114022 22.8998459C75.4114022 22.8998459 73.972265 21.7812018 69.7195686 21.7812018 63.8058552 21.7812018 59.6918336 25.1710324 59.6918336 29.9322034 59.6918336 32.6286595 61.6086287 34.6841294 64.1664099 36.1633282 66.2218798 37.3220339 66.9399076 38.1818182 66.9399076 39.3805855 66.9399076 40.6779661 65.9013867 41.7164869 63.98151 41.7164869 61.1063174 41.7164869 58.4345146 40.2372881 58.4345146 40.2372881L56.7765794 45.0323575C56.7765794 45.0323575 59.2942989 46.6902928 63.4483821 46.6902928 69.540832 46.6902928 73.8983051 43.6949153 73.8983051 38.3204931 74.009245 35.3559322 71.7719569 33.3004622 69.1155624 31.7812018zM93.4052388 21.6918336C90.4098613 21.6918336 88.0708783 23.1309707 86.2342065 25.2696456L86.1540832 25.229584 88.751926 11.605547 81.972265 11.605547 75.3805855 46.2434515 82.1602465 46.2434515 84.3975347 34.4191063C85.2942989 29.94453 87.5716487 27.2080123 89.7288136 27.2080123 91.248074 27.2080123 91.8274268 28.2465331 91.8274268 29.7226502 91.8367711 30.7304979 91.733407 31.736231 91.5192604 32.7211094L88.9645609 46.3020031 95.7442219 46.3020031 98.3821263 32.3204931C98.6782571 30.8598217 98.845311 29.3759298 98.8813559 27.8859784 98.9214176 23.990755 96.8998459 21.6918336 93.4052388 21.6918336zM114.24037 21.6918336C106.089368 21.6918336 100.656394 29.0446841 100.656394 37.2357473 100.656394 42.4745763 103.873652 46.7211094 109.966102 46.7211094 117.978428 46.7211094 123.368259 39.550077 123.368259 31.1802773 123.40832 26.3081664 120.59168 21.6918336 114.24037 21.6918336zM110.939908 41.4884438C108.600924 41.4884438 107.664099 39.5100154 107.664099 37.0539291 107.664099 33.1587057 109.679507 26.8474576 113.355932 26.8474576 115.771957 26.8474576 116.533128 28.9060092 116.533128 30.9214176 116.51772 35.1309707 114.49923 41.4884438 110.939908 41.4884438zM140.745763 21.6918336C136.172573 21.6918336 133.57473 25.7288136 133.57473 25.7288136L133.494607 25.7288136 133.895223 22.0924499 127.88906 22.0924499C127.580894 24.5577812 127.029276 28.2557781 126.489985 31.1032357L121.79661 55.9106317 128.576271 55.9106317 130.456086 45.8828968 130.594761 45.8828968C130.594761 45.8828968 131.993837 46.7827427 134.600924 46.7827427 142.57319 46.7827427 147.765794 38.6317411 147.765794 30.3821263 147.738059 25.7688752 145.719569 21.6918336 140.745763 21.6918336zM134.29584 41.6302003C133.284382 41.6427747 132.30138 41.2954472 131.522342 40.6502311L132.640986 34.3389831C133.439137 30.1232666 135.636364 27.3066256 137.972265 27.3066256 140.030817 27.3066256 140.671803 29.2234206 140.671803 31.0231125 140.671803 35.3559322 138.07396 41.6302003 134.298921 41.6302003L134.29584 41.6302003zM157.405239 11.9260204C156.374897 11.9227662 155.385499 12.3291416 154.654913 13.0556815 153.924327 13.7822214 153.512463 14.7693473 153.510015 15.7996918L153.510015 15.8798151C153.510015 17.8983051 154.770416 19.2696456 156.687211 19.2696456L156.767334 19.2696456C158.865948 19.2696456 160.702619 17.8305085 160.773498 15.3343606 160.822804 13.3620955 159.485362 11.9260204 157.405239 11.9260204z"/>
    <polygon points="147.92 46.243 154.73 46.243 159.344 22.231 152.493 22.231"/>
    <path d="M176.542373 22.1540832L171.848998 22.1540832 172.067797 21.0354391C172.468413 18.6964561 173.805855 16.6409861 176.104777 16.6409861 176.838709 16.6393345 177.567774 16.760151 178.261941 16.9984592L179.599384 11.7103236C179.599384 11.7103236 178.428351 11.1248074 175.922958 11.1248074 173.506934 11.1248074 171.130971 11.8058552 169.291217 13.3620955 166.955316 15.3405239 165.901387 18.1571649 165.355932 21.0138675L165.177196 22.1325116 162.040062 22.1325116 161.063174 27.248074 164.197227 27.248074 160.604006 46.2033898 167.383667 46.2033898 170.958398 27.248074 175.614792 27.248074 176.542373 22.1540832zM192.844376 22.2342065C192.844376 22.2342065 188.588598 32.8998459 186.711864 38.7118644L186.631741 38.7118644C186.489985 36.835131 184.973806 22.2342065 184.973806 22.2342065L177.842835 22.2342065 181.916795 44.2650231C182.01198 44.6421325 181.962507 45.0412155 181.77812 45.3836672 180.900334 47.0199574 179.638804 48.4189549 178.101695 49.4607088 176.930489 50.2826285 175.645125 50.9284252 174.286595 51.3775039L176.163328 57.1093991C178.637934 56.4363976 180.913148 55.1750921 182.795069 53.4329738 185.892142 50.5177196 188.748844 46.0832049 191.664099 39.990755L199.953775 22.2126348 192.844376 22.2342065zM32.2588598 55.6918336L49.0200308 52.05547C49.0200308 52.05547 42.9676425 11.164869 42.9275809 10.8875193 42.8914316 10.6382516 42.6801783 10.4517749 42.4283513 10.4468413 42.2095532 10.4468413 37.953775 10.1386749 37.953775 10.1386749 37.953775 10.1386749 34.9984592 7.18335901 34.6379045 6.86286595 34.5648871 6.78604989 34.4767487 6.72519243 34.3790447 6.68412943L32.2588598 55.6918336zM33.6394453 6.59167951C33.5993837 6.59167951 33.4976888 6.63174114 33.4576271 6.63174114 33.4175655 6.63174114 32.779661 6.81047766 31.7996918 7.13097072 30.816641 4.25577812 29.0631741 1.61787365 25.9691834 1.61787365L25.7072419 1.61787365C24.8104777.499229584 23.7288136 0 22.8043143 0 15.5808937 0 12.1263482 9.00770416 11.0477658 13.5839753 8.2742681 14.4437596 6.25269646 15.0600924 6.03389831 15.1402157 4.47457627 15.6394453 4.41602465 15.6795069 4.23420647 17.1587057 4.07395994 18.2588598 0 49.8397535 0 49.8397535L31.5007704 55.7503852 33.6394453 6.59167951zM25.4483821 8.78890601L25.4483821 9.09707242C23.7103236 9.63636364 21.7719569 10.2157165 19.9013867 10.7950693 20.9799692 6.6779661 22.9830508 4.66255778 24.7365177 3.90138675 25.1679507 5.07241911 25.4483821 6.65331279 25.4483821 8.78890601zM22.5731895 1.93836672C22.9057039 1.94363149 23.2285184 2.0512363 23.4976888 2.24653313 21.2326656 3.33744222 18.7180277 6.07395994 17.6795069 11.5254237 16.1602465 12.0246533 14.6810478 12.4653313 13.2850539 12.8628659 14.5208012 8.70878274 17.4175655 1.93836672 22.5731895 1.93836672zM23.8305085 26.2681048C22.547466 25.6502958 21.146415 25.3160616 19.7226502 25.2881356 16.366718 25.2881356 16.2249615 27.3867488 16.2249615 27.9260401 16.2249615 30.8012327 23.7565485 31.9322034 23.7565485 38.6718028 23.7565485 44.0061633 20.4006163 47.4021572 15.8274268 47.4021572 10.3543914 47.4021572 7.57781202 44.0123267 7.57781202 44.0123267L9.05392912 39.1771957C9.05392912 39.1771957 11.9322034 41.642527 14.348228 41.642527 14.934096 41.6643029 15.5035918 41.4466809 15.9256375 41.0397498 16.3476832 40.6328187 16.5859207 40.0716345 16.5855162 39.4853621 16.5855162 35.7288136 10.422188 35.550077 10.422188 29.3559322 10.422188 24.1633282 14.1386749 19.0878274 21.7072419 19.0878274 24.6255778 19.0878274 26.0647149 19.9476117 26.0647149 19.9476117L23.8305085 26.2681048zM26.7057011 3.596302C28.3266564 3.77503852 29.3436055 5.61171032 30.0246533 7.67026194 29.2234206 7.92912173 28.3266564 8.20955316 27.3251156 8.53004622L27.3251156 7.95069337C27.3598261 6.47525329 27.1516022 5.00415114 26.7087827 3.596302L26.7057011 3.596302z"/>
  </g>
</svg>
