<?xml version="1.0" encoding="utf-8"?>
<!-- Generator: Adobe Illustrator 22.1.0, SVG Export Plug-In . SVG Version: 6.00 Build 0)  -->
<svg version="1.1" id="Layer_1" xmlns="http://www.w3.org/2000/svg" xmlns:xlink="http://www.w3.org/1999/xlink" x="0px" y="0px"
	 viewBox="0 0 186 186" style="enable-background:new 0 0 186 186;" xml:space="preserve">
<style type="text/css">
	.st0{fill:#F0F4F7;}
	.st1{fill:#C5CDD6;}
	.st2{filter:url(#Adobe_OpacityMaskFilter);}
	.st3{fill:#FFFFFF;}
	.st4{mask:url(#mask-2_2_);}
	.st5{fill:#19222B;}
	.st6{fill:#004A81;}
	.st7{fill:#4DB1FF;}
	.st8{fill:#1171BB;}
</style>
<g id="Layer_3">
</g>
<g id="Layer_4">
	<path class="st0" d="M28.9,102c0-35,28.5-63.5,63.5-63.5c34.9,0,63.3,28.2,63.5,63.1c9.8-0.1,19.6-0.1,29.5-0.1V1.5H0.9v101
		c9.3,0,18.8,0,28.1-0.1C28.9,102.3,28.9,102.2,28.9,102z"/>
</g>
<g id="Layer_5">
	<path class="st0" d="M155.9,101.6c0,0.1,0,0.3,0,0.4c0,35-28.5,63.5-63.5,63.5c-34.9,0-63.3-28.3-63.5-63.1
		c-9.3,0-18.8,0.1-28.1,0.1V186h184.5v-84.5C175.6,101.5,165.7,101.6,155.9,101.6z"/>
</g>
<g id="Hi-fi-Responsive">
	<g id="Homepage---Tablet---Small-_x28_991-768_x29_" transform="translate(-325.000000, -5047.000000)">
		<g id="_x30_9-Talent" transform="translate(24.000000, 5009.000000)">
			<g id="Mic-Circle-Cropped" transform="translate(301.000000, 38.000000)">
				<path id="Mask" class="st1" d="M92.2,36L92.2,36c35.3,0,63.8,28.6,63.8,63.8l0,0c0,35.3-28.6,63.8-63.8,63.8h0
					c-35.3,0-63.8-28.6-63.8-63.8l0,0C28.4,64.6,56.9,36,92.2,36z"/>
				<g id="Group-2">
					<g id="Mask_1_">
					</g>
					<defs>
						<filter id="Adobe_OpacityMaskFilter" filterUnits="userSpaceOnUse" x="49.6" y="28.7" width="93.6" height="156.9">
							<feColorMatrix  type="matrix" values="1 0 0 0 0  0 1 0 0 0  0 0 1 0 0  0 0 0 1 0"/>
						</filter>
					</defs>
					<mask maskUnits="userSpaceOnUse" x="49.6" y="28.7" width="93.6" height="156.9" id="mask-2_2_">
						<g class="st2">
							<path id="path-1_2_" class="st3" d="M28.4,28.3H156v71.5c0,35.3-28.6,63.8-63.8,63.8l0,0c-35.3,0-63.8-28.6-63.8-63.8v-8.2
								V28.3z"/>
						</g>
					</mask>
					<g id="Spot-Illustration_Mic" class="st4">
						<g transform="translate(18.000000, 0.000000)">
							<path id="Path" class="st5" d="M98.4,127.2l-2.3,0.2l-2.3,0.1c0,0,0,0,0,0h0h0c0,0.1,0.5,9.2-0.7,18.9
								c-1.9,15.5-6.5,20.6-10,22.2c-3.1,1.4-6.6,0.9-10.5-1.6c-1.2-0.8-2.4-1.7-3.6-2.8v6.1c0.4,0.3,0.8,0.6,1.2,0.8
								c5.1,3.3,10.2,3.9,14.6,1.9c6.7-3.1,11-11.9,12.8-26.1C98.9,136.8,98.4,127.6,98.4,127.2z"/>
							<g id="Mic_1_">
								<g id="Group" transform="translate(0.000000, 48.946108)">
									<polygon id="Path_1_" class="st6" points="78.1,39.5 83,39.9 80.1,68.2 75.3,67.7 									"/>
									<path id="Path_2_" class="st3" d="M48.1,49.6c0.2,0,0.4-0.1,0.6-0.2c0.4-0.3,0.6-0.9,0.2-1.4l-6.8-9.5
										c-0.3-0.4-0.9-0.5-1.4-0.2c-0.4,0.3-0.6,0.9-0.2,1.4l6.8,9.5C47.5,49.5,47.8,49.6,48.1,49.6z"/>
									<path id="Path_3_" class="st7" d="M79.1,42l2.3,0.6c1.1,0.3,2.2-0.3,2.5-1.4l0.2-0.7c0.3-1-0.3-2.1-1.4-2.4l-2.3-0.6
										c-1.1-0.3-2.2,0.3-2.5,1.4l-0.2,0.7C77.4,40.6,78,41.7,79.1,42z"/>
									<polygon id="Path_4_" class="st6" points="74.2,65 79.1,64.4 82.7,95.5 77.8,96.1 									"/>
									<polygon id="Rectangle" class="st6" points="35.5,69.6 37.3,39.5 42.2,39.8 40.4,69.9 									"/>
									<polygon id="Rectangle_1_" class="st6" points="34.9,67.6 39.7,66.6 46,96.1 41.3,97.1 									"/>
									<path id="Path_5_" class="st7" d="M41.7,99.2h2.4c1.1,0,2-0.9,2-2v-0.7c0-1.1-0.9-2-2-2h-2.4c-1.1,0-2,0.9-2,2v0.7
										C39.7,98.3,40.6,99.2,41.7,99.2z"/>
									<path id="Path_6_" class="st7" d="M79.6,98.8H82c1.1,0,2-0.9,2-2v-0.7c0-1.1-0.9-2-2-2h-2.4c-1.1,0-2,0.9-2,2v0.7
										C77.6,97.9,78.5,98.8,79.6,98.8z"/>
									<path id="Shape" class="st5" d="M38.9,70.9l-2.6-0.3c-2.8-0.4-4.7-2.5-4.7-5.3c0-2.7,1.9-4.9,4.7-5.2l17.6-2.2
										c10.4-1.3,20.9-1.4,31.3-0.4l4.5,0.4c2.7,0.3,4.8,2.4,4.8,5.1c0.1,2.7-1.8,5-4.5,5.4l-14,2.1c-6.6,1-13.3,1.5-20,1.5
										C50.3,72,44.6,71.7,38.9,70.9z M89.3,63.1C89.3,63.1,89.3,63.1,89.3,63.1l-4.6-0.4c-10-1-20.2-0.8-30.2,0.4l-17.6,2.2
										c0,0-0.1,0-0.1,0c0,0.1,0,0.2,0,0.2c0,0,0,0,0.1,0l2.6,0.3c11.9,1.5,23.9,1.4,35.7-0.4l14-2.1h0c0,0,0.1,0,0.1,0
										C89.4,63.2,89.4,63.1,89.3,63.1z"/>
									<path id="Path_7_" class="st7" d="M38.7,42.5l2.3-0.4c1.1-0.2,1.8-1.2,1.6-2.3l-0.1-0.7c-0.2-1.1-1.2-1.8-2.3-1.6L37.9,38
										c-1.1,0.2-1.8,1.2-1.6,2.3l0.1,0.7C36.6,42,37.6,42.7,38.7,42.5z"/>
								</g>
								<g id="Group_1_" transform="translate(7.714286, 0.000000)">
									<path id="Path_8_" class="st7" d="M61.2,28.7H43.5c-4.8,0-8.6,3.8-8.6,8.5v33.1h35V37.3C69.9,32.6,66,28.7,61.2,28.7z"/>
									<rect id="Rectangle_2_" x="45.9" y="154.6" class="st8" width="12.6" height="31.1"/>
									<rect id="Rectangle_3_" x="45.9" y="154.6" class="st6" width="12.6" height="4.1"/>
									<path id="Path_9_" class="st8" d="M60.9,156.9H43.5c-1.4,0-2.6-1-2.8-2.3l-1.8-12.3h26.5l-1.8,12.3
										C63.4,155.9,62.3,156.9,60.9,156.9z"/>
									<polygon id="Path_10_" class="st6" points="64.5,149.1 40,149.2 38.9,142.2 65.5,142.2 									"/>
									<path id="Path_11_" class="st8" d="M65.6,146.1H39.2c-2.4,0-4.3-1.9-4.3-4.2V70.4h35v71.5C69.9,144.2,68,146.1,65.6,146.1z
										"/>
									<path id="Path_12_" class="st7" d="M70,76.3H34.7c-0.6,0-1.1-0.5-1.1-1.1l0,0c0-0.6,0.5-1.1,1.1-1.1H70
										c0.6,0,1.1,0.5,1.1,1.1l0,0C71.2,75.8,70.7,76.3,70,76.3z"/>
									<path id="Path_13_" class="st5" d="M70.2,117.6H35.4c-1.3,0-2.3-1-2.3-2.3V89.1c0-1.3,1-2.3,2.3-2.3h34.8
										c1.3,0,2.3,1,2.3,2.3v26.2C72.5,116.5,71.5,117.6,70.2,117.6z"/>
								</g>
								<g id="Group_2_" transform="translate(0.000000, 49.748503)">
									<path id="Path_14_" class="st3" d="M43.9,64.7c0.3,0,0.6-0.1,0.8-0.4l19.2-23.8c0.3-0.4,0.3-1-0.2-1.4
										c-0.4-0.3-1.1-0.3-1.4,0.2L43.1,63.1c-0.3,0.4-0.3,1,0.2,1.4C43.5,64.6,43.7,64.7,43.9,64.7z"/>
									<path id="Path_15_" class="st3" d="M82.2,96.3c0.4,0,0.8-0.3,1-0.7l7.5-25.7c0.2-0.5-0.2-1.1-0.7-1.2
										c-0.5-0.2-1.1,0.1-1.2,0.7L81.3,95c-0.2,0.5,0.2,1.1,0.7,1.2C82.1,96.2,82.2,96.3,82.2,96.3z"/>
									<path id="Path_16_" class="st3" d="M83.6,61.7c0.2,0,0.5-0.1,0.6-0.3c0.3-0.4,0.3-1,0-1.4L64.9,39.1
										c-0.4-0.4-0.9-0.4-1.3,0c-0.3,0.4-0.3,1,0,1.4L83,61.4C83.2,61.6,83.4,61.7,83.6,61.7z"/>
									<path id="Path_17_" class="st3" d="M64.2,98c0.3,0,0.5-0.1,0.7-0.4l20.4-28.4c0.3-0.4,0.2-1-0.1-1.4
										c-0.4-0.3-0.9-0.3-1.2,0.2L63.5,96.4c-0.3,0.4-0.2,1,0.1,1.4C63.8,97.9,64,98,64.2,98z"/>
									<path id="Path_18_" class="st3" d="M63.1,98.3c0.2,0,0.4-0.1,0.6-0.2c0.4-0.3,0.6-0.9,0.2-1.4L45.7,71.2
										c-0.3-0.4-0.9-0.6-1.4-0.2c-0.4,0.3-0.6,0.9-0.2,1.4l18.2,25.5C62.5,98.1,62.8,98.3,63.1,98.3z"/>
									<path id="Path_19_" class="st3" d="M41.2,65.4c0,0,0.1,0,0.1,0c0.5-0.1,0.9-0.6,0.8-1.1l-3.5-24.6
										c-0.1-0.5-0.6-0.9-1.1-0.8c-0.5,0.1-0.9,0.6-0.8,1.1l3.5,24.6C40.3,65.1,40.8,65.4,41.2,65.4z"/>
									<path id="Path_20_" class="st3" d="M41.2,97.1c0.5,0,1-0.4,1-1l0.4-23.4c0-0.5-0.4-1-1-1c0,0,0,0,0,0c-0.5,0-1,0.4-1,1
										l-0.4,23.4C40.2,96.6,40.7,97.1,41.2,97.1C41.2,97.1,41.2,97.1,41.2,97.1z"/>
									<rect id="Rectangle_4_" x="61.3" y="39.2" class="st6" width="4.9" height="29.3"/>
									<rect id="Rectangle_5_" x="61.3" y="69.8" class="st6" width="4.9" height="26.3"/>
									<path id="Shape_1_" class="st5" d="M89.9,59c2.7,0.3,4.7,2.5,4.7,5.2c0,2.7-1.9,4.9-4.7,5.3l-14,1.8
										c-6.7,0.9-13.4,1.2-20.1,1.1c-5.7-0.1-11.4-0.6-17.1-1.5l-2.6-0.4c-2.7-0.4-4.6-2.6-4.5-5.4c0.1-2.7,2-4.8,4.8-5.1
										c1.4-0.1,2.7,0.9,2.9,2.3c0.1,1.4-0.9,2.7-2.3,2.8c0,0-0.1,0-0.1,0c0,0.1,0,0.2,0,0.2c0,0,0,0,0.1,0l2.6,0.4
										c11.8,1.8,23.8,1.9,35.7,0.4l14-1.8c0,0,0.1,0,0.1,0c0-0.1,0-0.2,0-0.2c0,0,0,0-0.1,0L89.9,59z"/>
									<g id="Path_21_" transform="translate(6.090226, 14.443114)">
										<path class="st7" d="M34.6,51.5H37c1.1,0,2-0.9,2-2v-0.7c0-1.1-0.9-2-2-2h-2.4c-1.1,0-2,0.9-2,2v0.7
											C32.6,50.6,33.5,51.5,34.6,51.5z"/>
										<path class="st3" d="M37.8,50.2c0.3,0,0.6-0.1,0.8-0.4l6.8-8.5c0.3-0.4,0.3-1-0.2-1.4c-0.4-0.3-1.1-0.3-1.4,0.2l-6.8,8.5
											c-0.3,0.4-0.3,1,0.2,1.4C37.4,50.1,37.6,50.2,37.8,50.2z"/>
										<path class="st7" d="M35.8,59.7h2.4c1.1,0,2-0.9,2-2V57c0-1.1-0.9-2-2-2h-2.4c-1.1,0-2,0.9-2,2v0.7
											C33.8,58.8,34.7,59.7,35.8,59.7z"/>
										<path class="st3" d="M46.5,69c0.2,0,0.4-0.1,0.6-0.2c0.4-0.3,0.6-0.9,0.2-1.4l-7.6-10.7c-0.3-0.4-0.9-0.6-1.4-0.2
											c-0.4,0.3-0.6,0.9-0.2,1.4l7.6,10.7C45.8,68.9,46.1,69,46.5,69z"/>
									</g>
									<g id="Path_22_" transform="translate(36.947368, 12.838323)">
										<path class="st7" d="M49.6,49.8l-2.1,0.4c-1,0.2-1.9-0.5-2.1-1.6L45.3,48c-0.2-1.1,0.4-2.1,1.4-2.3l2.1-0.4
											c1-0.2,1.9,0.5,2.1,1.6l0.1,0.7C51.1,48.5,50.5,49.6,49.6,49.8z"/>
										<path class="st3" d="M46.7,48.9c0.2,0,0.5-0.1,0.6-0.3c0.3-0.4,0.3-1,0-1.4l-6.9-7.4c-0.4-0.4-0.9-0.4-1.3,0
											c-0.3,0.4-0.3,1,0,1.4l6.9,7.4C46.2,48.8,46.5,48.9,46.7,48.9z"/>
										<path class="st7" d="M49.1,59.4L47,59.9c-1,0.2-1.9-0.5-2.1-1.6l-0.1-0.7c-0.2-1.1,0.4-2.1,1.4-2.3l2.1-0.4
											c1-0.2,1.9,0.5,2.1,1.6l0.1,0.7C50.7,58.2,50.1,59.2,49.1,59.4z"/>
										<path class="st3" d="M39.1,68.7c0.3,0,0.5-0.1,0.7-0.4l7-9.7c0.3-0.4,0.2-1-0.1-1.4c-0.4-0.3-0.9-0.3-1.2,0.2l-7,9.7
											c-0.3,0.4-0.2,1,0.1,1.4C38.7,68.7,38.9,68.7,39.1,68.7z"/>
									</g>
									<path id="Path_23_" class="st3" d="M89.1,61.5c0.1,0,0.2,0,0.3,0c0.5-0.1,0.8-0.7,0.7-1.2l-6.1-22.1
										c-0.1-0.5-0.7-0.8-1.2-0.7c-0.5,0.1-0.8,0.7-0.7,1.2l6.1,22.1C88.2,61.2,88.6,61.5,89.1,61.5z"/>
									<path id="Path_24_" class="st7" d="M62.5,43.3h2.4c1.1,0,2-0.9,2-2v-0.7c0-1.1-0.9-2-2-2h-2.4c-1.1,0-2,0.9-2,2v0.7
										C60.5,42.4,61.4,43.3,62.5,43.3z"/>
									<path id="Path_25_" class="st7" d="M62.5,98.4h2.4c1.1,0,2-0.9,2-2v-0.7c0-1.1-0.9-2-2-2h-2.4c-1.1,0-2,0.9-2,2v0.7
										C60.5,97.5,61.4,98.4,62.5,98.4z"/>
								</g>
							</g>
							<g id="Pop_Filter_1_" transform="translate(32.000000, 1.000000)">
								<g id="Group_3_">
									<ellipse id="Oval" class="st6" cx="65.2" cy="75.5" rx="24.6" ry="43.3"/>
									<path id="Shape_2_" class="st5" d="M63,122.1c-7.7-1-14.7-6.9-19.5-16.7c-4.5-9.2-6.8-21-6.3-33.1c0.3-8.1,1.9-16,4.6-22.7
										c2.6-6.7,6.3-12.1,10.6-15.8c4.6-3.9,9.8-5.6,15-4.9c7.7,1,14.7,6.9,19.5,16.7c4.5,9.2,6.8,21,6.3,33.1
										c-0.3,8.1-1.9,16-4.6,22.7c-2.6,6.7-6.3,12.1-10.6,15.8c-3.9,3.3-8.3,5-12.8,5C64.5,122.2,63.7,122.2,63,122.1z M56.8,39.1
										C49.6,45.2,44.7,58,44.1,72.5c-0.9,21.7,8.1,41.2,19.7,42.7c3.3,0.4,6.6-0.7,9.7-3.3c7.2-6.1,12.1-18.9,12.7-33.5
										c0.9-21.7-8.1-41.2-19.7-42.7c-0.5-0.1-0.9-0.1-1.4-0.1C62.3,35.7,59.5,36.8,56.8,39.1z"/>
								</g>
								<path id="Path_26_" class="st5" d="M60.9,130.3l0.6,0.4c1.6,1.1,3.5,1.2,5.3,0.5l2.1-1c1.3-0.6,2.1-2,2.1-3.5v-10.2H59.3
									v10.6C59.3,128.4,59.9,129.6,60.9,130.3z"/>
							</g>
						</g>
					</g>
				</g>
			</g>
		</g>
	</g>
</g>
</svg>
