<?xml version="1.0" encoding="utf-8"?>
<!-- Generator: Adobe Illustrator 22.1.0, SVG Export Plug-In . SVG Version: 6.00 Build 0)  -->
<svg version="1.1" id="Layer_1" xmlns="http://www.w3.org/2000/svg" xmlns:xlink="http://www.w3.org/1999/xlink" x="0px" y="0px"
	 viewBox="0 0 186 186" style="enable-background:new 0 0 186 186;" xml:space="preserve">
<style type="text/css">
	.st0{fill:#C9D0D9;}
	.st1{fill:#F0F4F7;}
	.st2{fill:#1171BB;}
	.st3{opacity:0.4;}
	.st4{fill:#004A81;}
	.st5{fill:#FFFFFF;}
	.st6{fill:#1F8FE6;}
	.st7{fill:#97D2FF;}
	.st8{opacity:0.5;}
	.st9{fill:#FFBC33;}
</style>
<circle class="st0" cx="92" cy="98" r="66.6"/>
<g id="Layer_4">
	<path class="st1" d="M28.3,101.3c0-35.3,28.7-64,64-64c35.2,0,63.8,28.4,64,63.6c9.9-0.1,19.8-0.1,29.7-0.1V0H0v101.8
		c9.4,0,18.9,0,28.3-0.1C28.3,101.6,28.3,101.5,28.3,101.3z"/>
</g>
<g id="card2">
	<g id="Together_2_">
		<g id="CC_2_1_">
			<g>
				<path class="st2" d="M61.4,142.7L25,42.6c-1.1-2.9,0.4-6.2,3.4-7.2l60.2-21.9c2.9-1.1,6.2,0.4,7.2,3.4L132.2,117
					c1.1,2.9-0.4,6.2-3.4,7.2l-60.2,21.9C65.7,147.1,62.5,145.6,61.4,142.7z"/>
			</g>
			<g class="st3">
				<path class="st4" d="M61.4,142.7L25,42.6c-1.1-2.9,0.4-6.2,3.4-7.2l60.2-21.9c2.9-1.1,6.2,0.4,7.2,3.4L132.2,117
					c1.1,2.9-0.4,6.2-3.4,7.2l-60.2,21.9C65.7,147.1,62.5,145.6,61.4,142.7z"/>
			</g>
			
				<rect x="90.6" y="14.2" transform="matrix(0.9397 -0.342 0.342 0.9397 -19.1572 37.5701)" class="st4" width="12.7" height="117.8"/>
			<path class="st5" d="M79.4,94.3l-21.1-58c-0.4-1,0.1-2.1,1.1-2.4l6.2-2.3c1-0.4,2.1,0.1,2.4,1.1l21.1,58c0.4,1-0.1,2.1-1.1,2.4
				l-6.2,2.3C80.8,95.8,79.7,95.2,79.4,94.3z"/>
			<path class="st4" d="M75.5,68c0.2-0.2,0.1-0.5-0.1-0.7c-0.6-0.4-1.1-0.8-1.5-1.2c0.7-0.3,1.6-0.7,1.3-1.7c-0.2-0.5-0.5-1-0.8-1.4
				c-0.1-0.2-0.2-0.4-0.3-0.5c-0.4-0.7-0.9-1.4-1.4-2.1c-1-1.4-2-2.9-3-4.2l-0.3-0.4c-0.6-0.7-1.1-1.5-1.8-2.2
				c0.4-0.2,0.7-0.4,1-0.8c0.4-0.5,0.6-0.9,0.5-1.4c-0.1-0.3-0.3-0.5-0.5-0.7c-0.1-0.1-0.3-0.3-0.3-0.4c0,0,0-0.1,0.3-0.3
				c0.2-0.1,0.3-0.2,0.3-0.3s0-0.3-0.1-0.5c-0.7-1.2-1.3-2.6-0.2-3.4c0.1-0.1,0.2-0.3,0.2-0.5s-0.1-0.3-0.2-0.4l-2.1-1.5
				c-0.1-0.1-0.2-0.1-0.4-0.2c-0.4-0.2-1-0.6-1.3-1l2,0.1c0.2,0,0.4,0,0.7,0.1c0.5,0.1,1.1,0.1,1.6,0c0.4-0.1,0.6-0.3,0.7-0.5
				c0.1-0.3,0.1-0.8-0.2-1.3c-1.3-2.1-4.5-2.8-6.8-2.8c-0.2,0-0.3,0.1-0.4,0.3c-0.1,0.2-0.1,0.4,0,0.6c0.1,0.2,0.3,0.3,0.5,0.3
				c2.1,0,4,0.6,5.2,1.6c0.2,0.2,0.4,0.4,0.5,0.6l0,0c0.1,0.1,0.1,0.1,0.2,0.2h-0.1l0,0l0,0c-0.1,0.1-0.7,0-1,0c-0.2,0-0.3,0-0.4,0
				l-3.1-0.1c-0.3,0-0.5,0.2-0.5,0.4c-0.3,0.9,0.5,1.5,1.1,1.9c0.7,0.5,1.5,1,2.3,1.6l0.6,0.4c-0.7,0.9-0.7,2.2,0.2,3.9
				c-0.5,0.4-0.7,0.8-0.6,1.3c0.1,0.3,0.2,0.4,0.3,0.5l0.1,0.1l0.1,0.1c0.4,0.4,0.4,0.5,0,0.8c-0.3,0.3-0.8,0.6-1.1,0.4l0,0
				c-0.1,0-0.1-0.1-0.2-0.1c-0.2-0.2-0.5-0.1-0.7,0.1c-0.2,0.2-0.2,0.4-0.1,0.6l0,0l0.1,0.1c0.1,0.1,0.2,0.1,0.2,0.2
				c1.6,1.3,2.9,3.2,4.2,5.1c0.2,0.3,0.5,0.7,0.7,1c0.7,1,1.4,2.1,2.1,3.2c0.1,0.2,0.2,0.3,0.4,0.5c0.3,0.4,0.6,0.8,0.7,1.2
				c0.1,0.2,0.1,0.2,0.1,0.2s-0.1,0.1-0.2,0.1L73.9,65c-0.2,0.1-0.4,0.2-0.7,0.3c-0.1,0-0.2,0.1-0.4,0.1c-0.2,0.1-0.3,0.2-0.3,0.4
				c0,0.2,0,0.3,0.1,0.4c0.7,0.8,1.4,1.4,2.3,2C75,68.4,75.4,68.3,75.5,68z"/>
			<path class="st6" d="M41.7,61.1l-6-16.4c-0.4-1,0.1-2.1,1.1-2.4l10.6-3.9c1-0.4,2.1,0.1,2.4,1.1l6,16.4c0.4,1-0.1,2.1-1.1,2.4
				l-10.6,3.9C43.2,62.6,42.1,62.1,41.7,61.1z"/>
			<path class="st5" d="M87.7,117.1l-5.6-15.3c-0.4-1,0.1-2.1,1.1-2.4l6.2-2.3c1-0.4,2.1,0.1,2.4,1.1l5.6,15.3
				c0.4,1-0.1,2.1-1.1,2.4l-6.2,2.3C89.1,118.6,88,118.1,87.7,117.1z"/>
			<g>
				<path class="st7" d="M85.3,104.9l-0.8-2.1c-0.2-0.5,0.1-1,0.6-1.2l4-1.4c0.5-0.2,1,0.1,1.2,0.6l0.8,2.1c0.2,0.5-0.1,1-0.6,1.2
					l-4,1.4C86,105.7,85.4,105.4,85.3,104.9z"/>
				<path class="st7" d="M89,115.1l-0.8-2.1c-0.2-0.5,0.1-1,0.6-1.2l4-1.4c0.5-0.2,1,0.1,1.2,0.6l0.8,2.1c0.2,0.5-0.1,1-0.6,1.2
					l-4,1.4C89.7,115.8,89.1,115.6,89,115.1z"/>
				<path class="st7" d="M87.1,110l-0.8-2.1c-0.2-0.5,0.1-1,0.6-1.2l4-1.4c0.5-0.2,1,0.1,1.2,0.6l0.8,2.1c0.2,0.5-0.1,1-0.6,1.2
					l-4,1.4C87.8,110.8,87.3,110.5,87.1,110z"/>
			</g>
			<g>
				<path class="st6" d="M69.9,106.8L54.4,64.2c-0.2-0.6,0.1-1.3,0.7-1.5l0,0c0.6-0.2,1.3,0.1,1.5,0.7l15.5,42.5
					c0.2,0.6-0.1,1.3-0.7,1.5l0,0C70.8,107.7,70.1,107.4,69.9,106.8z"/>
				<path class="st6" d="M65.4,108.4L50,65.9c-0.2-0.6,0.1-1.3,0.7-1.5l0,0c0.6-0.2,1.3,0.1,1.5,0.7l15.5,42.5
					c0.2,0.6-0.1,1.3-0.7,1.5l0,0C66.3,109.3,65.7,109,65.4,108.4z"/>
				<path class="st6" d="M54.2,91.4l-8.7-23.9c-0.2-0.6,0.1-1.3,0.7-1.5l0,0c0.6-0.2,1.3,0.1,1.5,0.7l8.7,23.9
					c0.2,0.6-0.1,1.3-0.7,1.5l0,0C55.1,92.3,54.5,92,54.2,91.4z"/>
			</g>
		</g>
	</g>
</g>
<g id="card1">
	<g id="CC_1_2_">
		<g>
			<path class="st6" d="M160.3,67.5l-36.4,100.1c-1.1,2.9-4.3,4.4-7.2,3.4l-60.2-21.9c-2.9-1.1-4.4-4.3-3.4-7.2L89.4,41.7
				c1.1-2.9,4.3-4.4,7.2-3.4l60.2,21.9C159.8,61.3,161.3,64.6,160.3,67.5z"/>
		</g>
		<g class="st8">
			<g>
				<path class="st2" d="M81.7,90.6c16.9,6.1,30.1,18,38.2,32.5c6.9-30.1-6.2-61.1-32-77.2l-15.3,42C75.6,88.6,78.7,89.5,81.7,90.6z
					"/>
			</g>
			<g>
				<path class="st2" d="M119.9,123.1c-0.7,2.9-1.5,5.7-2.5,8.6c-4.7,12.8-12.6,23.5-22.5,31.4l21.7,7.9c2.9,1.1,6.2-0.4,7.2-3.4
					l5.1-14.1C128.2,142.8,125.1,132.4,119.9,123.1z"/>
			</g>
			<g>
				<path class="st2" d="M72.6,87.9L53,141.8c-1.1,2.9,0.4,6.2,3.4,7.2L95,163c9.9-8,17.8-18.6,22.5-31.4c1-2.8,1.9-5.7,2.5-8.6
					c-8.1-14.5-21.3-26.4-38.2-32.5C78.7,89.5,75.6,88.6,72.6,87.9z"/>
			</g>
		</g>
		<g class="st8">
			<path class="st2" d="M72.6,87.9L53,141.8c-1.1,2.9,0.4,6.2,3.4,7.2L95,163c9.9-8,17.8-18.6,22.5-31.4c1-2.8,1.9-5.7,2.5-8.6
				c-8.1-14.5-21.3-26.4-38.2-32.5C78.7,89.5,75.6,88.6,72.6,87.9z"/>
		</g>
		<g>
			
				<rect x="144.4" y="72.4" transform="matrix(0.342 -0.9397 0.9397 0.342 26.1539 185.8725)" class="st9" width="2.8" height="3.8"/>
			
				<rect x="133.7" y="68.5" transform="matrix(0.342 -0.9397 0.9397 0.342 22.7076 173.3253)" class="st9" width="2.8" height="3.8"/>
			<rect x="136.4" y="69" transform="matrix(0.342 -0.9397 0.9397 0.342 24.4713 179.5287)" class="st9" width="8" height="6.6"/>
			<path class="st9" d="M137.6,69.3l1.9-5.3l-0.9-0.3c-1.5-0.5-3.1,0.2-3.6,1.7l-1,2.7L137.6,69.3z"/>
			<rect x="141" y="63.4" transform="matrix(0.342 -0.9397 0.9397 0.342 31.1379 177.7978)" class="st9" width="3.1" height="6.6"/>
			<path class="st9" d="M143.4,75.4l-0.7,2l-0.2,0.4l-1,2.9l0.9,0.3c1.5,0.5,3.1-0.2,3.6-1.7l1-2.7L143.4,75.4z"/>
			<path class="st9" d="M136.3,72.8l-3.5-1.3l-1,2.7c-0.5,1.5,0.2,3.1,1.7,3.6l0.9,0.3L136.3,72.8z"/>
			<path class="st9" d="M145.5,69.4l-0.2,0.4l-0.7,2l3.5,1.3l1-2.7c0.5-1.5-0.2-3.1-1.7-3.6l-0.9-0.3L145.5,69.4z"/>
			
				<rect x="136.9" y="74.7" transform="matrix(0.342 -0.9397 0.9397 0.342 17.8345 181.3703)" class="st9" width="3.1" height="6.6"/>
		</g>
		<g>
			<circle class="st7" cx="75.2" cy="129.1" r="7.1"/>
			<path class="st5" d="M72.3,136.9c-2.4-0.9-4.1-2.7-4.9-4.9c-0.9,0.8-1.7,1.8-2.1,3c-1.3,3.7,0.6,7.7,4.2,9.1s7.7-0.6,9.1-4.2
				c0.4-1.1,0.5-2.2,0.4-3.3C76.9,137.5,74.6,137.7,72.3,136.9z"/>
		</g>
		<g>
			<g>
				<path class="st5" d="M91.6,148.7l-0.8,2.2c-0.2,0.5-0.7,0.7-1.2,0.6l-4-1.5c-0.5-0.2-0.7-0.7-0.6-1.2l0.8-2.2
					c0.2-0.5,0.7-0.7,1.2-0.6l4,1.5C91.5,147.6,91.8,148.2,91.6,148.7z"/>
				<path class="st5" d="M93.5,143.6l-0.8,2.2c-0.2,0.5-0.7,0.7-1.2,0.6l-4-1.5c-0.5-0.2-0.7-0.7-0.6-1.2l0.8-2.2
					c0.2-0.5,0.7-0.7,1.2-0.6l4,1.5C93.4,142.6,93.6,143.1,93.5,143.6z"/>
				<path class="st5" d="M97.2,133.4l-0.8,2.2c-0.2,0.5-0.7,0.7-1.2,0.6l-4-1.5c-0.5-0.2-0.7-0.7-0.6-1.2l0.8-2.2
					c0.2-0.5,0.7-0.7,1.2-0.6l4,1.5C97.1,132.4,97.4,132.9,97.2,133.4z"/>
				<path class="st5" d="M95.3,138.5l-0.8,2.2c-0.2,0.5-0.7,0.7-1.2,0.6l-4-1.5c-0.5-0.2-0.7-0.7-0.6-1.2l0.8-2.2
					c0.2-0.5,0.7-0.7,1.2-0.6l4,1.5C95.2,137.5,95.5,138,95.3,138.5z"/>
			</g>
			<g>
				<path class="st5" d="M100.6,124l-0.8,2.2c-0.2,0.5-0.7,0.7-1.2,0.6l-4-1.5c-0.5-0.2-0.7-0.7-0.6-1.2l0.8-2.2
					c0.2-0.5,0.7-0.7,1.2-0.6l4,1.5C100.5,123,100.8,123.5,100.6,124z"/>
				<path class="st5" d="M102.4,118.9l-0.8,2.2c-0.2,0.5-0.7,0.7-1.2,0.6l-4-1.5c-0.5-0.2-0.7-0.7-0.6-1.2l0.8-2.2
					c0.2-0.5,0.7-0.7,1.2-0.6l4,1.5C102.4,117.9,102.6,118.4,102.4,118.9z"/>
				<path class="st5" d="M106.2,108.7l-0.8,2.2c-0.2,0.5-0.7,0.7-1.2,0.6l-4-1.5c-0.5-0.2-0.7-0.7-0.6-1.2l0.8-2.2
					c0.2-0.5,0.7-0.7,1.2-0.6l4,1.5C106.1,107.7,106.3,108.2,106.2,108.7z"/>
				<path class="st5" d="M104.3,113.8l-0.8,2.2c-0.2,0.5-0.7,0.7-1.2,0.6l-4-1.5c-0.5-0.2-0.7-0.7-0.6-1.2l0.8-2.2
					c0.2-0.5,0.7-0.7,1.2-0.6l4,1.5C104.2,112.8,104.5,113.3,104.3,113.8z"/>
			</g>
			<g>
				<path class="st5" d="M109.6,99.3l-0.8,2.2c-0.2,0.5-0.7,0.7-1.2,0.6l-4-1.5c-0.5-0.2-0.7-0.7-0.6-1.2l0.8-2.2
					c0.2-0.5,0.7-0.7,1.2-0.6l4,1.5C109.5,98.3,109.8,98.8,109.6,99.3z"/>
				<path class="st5" d="M111.4,94.2l-0.8,2.2c-0.2,0.5-0.7,0.7-1.2,0.6l-4-1.5c-0.5-0.2-0.7-0.7-0.6-1.2l0.8-2.2
					c0.2-0.5,0.7-0.7,1.2-0.6l4,1.5C111.4,93.2,111.6,93.7,111.4,94.2z"/>
				<path class="st5" d="M115.1,84l-0.8,2.2c-0.2,0.5-0.7,0.7-1.2,0.6l-4-1.5c-0.5-0.2-0.7-0.7-0.6-1.2l0.8-2.2
					c0.2-0.5,0.7-0.7,1.2-0.6l4,1.5C115.1,83,115.3,83.6,115.1,84z"/>
				<path class="st5" d="M113.3,89.1l-0.8,2.2c-0.2,0.5-0.7,0.7-1.2,0.6l-4-1.5c-0.5-0.2-0.7-0.7-0.6-1.2l0.8-2.2
					c0.2-0.5,0.7-0.7,1.2-0.6l4,1.5C113.2,88.1,113.5,88.7,113.3,89.1z"/>
			</g>
			<g>
				<path class="st5" d="M118.6,74.7l-0.8,2.1c-0.2,0.5-0.7,0.8-1.2,0.6l-4-1.4c-0.5-0.2-0.8-0.7-0.6-1.2l0.8-2.1
					c0.2-0.5,0.7-0.7,1.2-0.6l4,1.4C118.5,73.6,118.7,74.2,118.6,74.7z"/>
				<path class="st5" d="M120.4,69.6l-0.8,2.1c-0.2,0.5-0.7,0.8-1.2,0.6l-4-1.4c-0.5-0.2-0.8-0.7-0.6-1.2l0.8-2.1
					c0.2-0.5,0.7-0.7,1.2-0.6l4,1.4C120.3,68.5,120.6,69.1,120.4,69.6z"/>
				<path class="st5" d="M124.1,59.4l-0.8,2.1c-0.2,0.5-0.7,0.8-1.2,0.6l-4-1.4c-0.5-0.2-0.8-0.7-0.6-1.2l0.8-2.1
					c0.2-0.5,0.7-0.7,1.2-0.6l4,1.4C124,58.3,124.3,58.9,124.1,59.4z"/>
				<path class="st5" d="M122.3,64.5l-0.8,2.1c-0.2,0.5-0.7,0.8-1.2,0.6l-4-1.4c-0.5-0.2-0.8-0.7-0.6-1.2l0.8-2.1
					c0.2-0.5,0.7-0.7,1.2-0.6l4,1.4C122.2,63.4,122.4,64,122.3,64.5z"/>
			</g>
		</g>
		<path class="st7" d="M103.1,51.7l-12,33.1c-0.2,0.5-0.7,0.8-1.2,0.6l-4-1.4c-0.5-0.2-0.8-0.7-0.6-1.2l12-33.1
			c0.2-0.5,0.7-0.7,1.2-0.6l4,1.4C103,50.7,103.3,51.2,103.1,51.7z"/>
		<path class="st7" d="M87.2,95.3l-3.8,10.4c-0.2,0.5-0.7,0.8-1.2,0.6l-4-1.4c-0.5-0.2-0.8-0.7-0.6-1.2l3.8-10.4
			c0.2-0.5,0.7-0.7,1.2-0.6l4,1.4C87.1,94.3,87.4,94.8,87.2,95.3z"/>
	</g>
</g>
<g id="Layer_3">
</g>
<g id="Layer_5">
	<path class="st1" d="M156.3,100.9c0,0.1,0,0.3,0,0.4c0,35.3-28.7,64-64,64c-35.2,0-63.8-28.5-64-63.6c-9.4,0-18.9,0.1-28.3,0.1V186
		h186v-85.2C176.1,100.8,166.2,100.9,156.3,100.9z"/>
</g>
</svg>
